<svg width="37" height="45" viewBox="0 0 37 45" fill="none" xmlns="http://www.w3.org/2000/svg">
<path fill-rule="evenodd" clip-rule="evenodd" d="M28.3394 8.09698H24.291C24.291 3.6234 20.6676 0 16.194 0C11.7204 0 8.09698 3.6234 8.09698 8.09698H4.04849C1.82182 8.09698 0 9.9188 0 12.1455V36.4364C0 38.6631 1.82182 40.4849 4.04849 40.4849H13.0094C12.5571 39.2054 12.2715 37.8473 12.1787 36.4364H4.04849V12.1455H8.09698V16.194C8.09698 17.3073 9.00789 18.2182 10.1212 18.2182C11.2346 18.2182 12.1455 17.3073 12.1455 16.194V12.1455H20.2425V16.194C20.2425 17.3073 21.1534 18.2182 22.2667 18.2182C23.38 18.2182 24.291 17.3073 24.291 16.194V12.1455H28.3394V20.2757C29.7503 20.3685 31.1085 20.6541 32.3879 21.1063V12.1455C32.3879 9.9188 30.5661 8.09698 28.3394 8.09698ZM16.194 4.04849C18.4206 4.04849 20.2425 5.87031 20.2425 8.09698H12.1455C12.1455 5.87031 13.9673 4.04849 16.194 4.04849ZM25.9012 36.6664V44.5449H29.1215V36.6664H37V33.4461H29.1215V25.5676H25.9012V33.4461H18.0227V36.6664H25.9012Z" fill="white"/>
</svg>
