<svg width="589" height="113" viewBox="0 0 589 113" fill="none" xmlns="http://www.w3.org/2000/svg">
<path d="M558.959 82V31.0909H588.49V35.267H563.607V54.4325H586.924V58.6087H563.607V77.8239H588.987V82H558.959Z" fill="#031732"/>
<path d="M541.04 47H536.366C536.018 45.2599 535.389 43.6525 534.477 42.1776C533.582 40.6861 532.455 39.3852 531.097 38.2749C529.738 37.1645 528.196 36.3028 526.473 35.6896C524.749 35.0765 522.885 34.7699 520.88 34.7699C517.665 34.7699 514.732 35.6068 512.08 37.2805C509.445 38.9543 507.332 41.4152 505.741 44.6633C504.167 47.8949 503.38 51.8556 503.38 56.5455C503.38 61.2685 504.167 65.2457 505.741 68.4773C507.332 71.7088 509.445 74.1615 512.08 75.8352C514.732 77.4924 517.665 78.321 520.88 78.321C522.885 78.321 524.749 78.0144 526.473 77.4013C528.196 76.7881 529.738 75.9347 531.097 74.8409C532.455 73.7306 533.582 72.4297 534.477 70.9382C535.389 69.4467 536.018 67.831 536.366 66.0909H541.04C540.625 68.4276 539.847 70.6068 538.703 72.6285C537.576 74.6338 536.134 76.3904 534.378 77.8984C532.638 79.4065 530.633 80.5831 528.362 81.4283C526.092 82.2734 523.598 82.696 520.88 82.696C516.604 82.696 512.809 81.6271 509.495 79.4893C506.181 77.335 503.579 74.3023 501.69 70.3913C499.817 66.4804 498.881 61.8651 498.881 56.5455C498.881 51.2258 499.817 46.6106 501.69 42.6996C503.579 38.7886 506.181 35.7642 509.495 33.6264C512.809 31.4721 516.604 30.3949 520.88 30.3949C523.598 30.3949 526.092 30.8175 528.362 31.6626C530.633 32.4912 532.638 33.6678 534.378 35.1925C536.134 36.7005 537.576 38.4571 538.703 40.4624C539.847 42.4676 540.625 44.6468 541.04 47Z" fill="#031732"/>
<path d="M450.697 82H445.825L464.344 31.0909H469.316L487.835 82H482.963L467.004 37.1314H466.656L450.697 82ZM454.202 62.4865H479.458V66.6626H454.202V62.4865Z" fill="#031732"/>
<path d="M401.035 82V31.0909H405.683V77.8239H429.945V82H401.035Z" fill="#031732"/>
<path d="M321.484 82H316.612L335.131 31.0909H340.103L358.622 82H353.75L337.791 37.1314H337.443L321.484 82ZM324.989 62.4865H350.245V66.6626H324.989V62.4865Z" fill="#031732"/>
<path d="M300.875 31.0909V82H296.35L266.272 39.3686H265.875V82H261.226V31.0909H265.725L295.903 73.772H296.301V31.0909H300.875Z" fill="#031732"/>
<path d="M236.067 31.0909H240.716V64.7983C240.716 68.2618 239.904 71.3608 238.28 74.0952C236.656 76.813 234.394 78.959 231.494 80.5334C228.61 82.0911 225.254 82.87 221.426 82.87C217.615 82.87 214.259 82.0829 211.359 80.5085C208.459 78.9342 206.196 76.7881 204.572 74.0703C202.948 71.3525 202.136 68.2618 202.136 64.7983V31.0909H206.785V64.4751C206.785 67.1764 207.39 69.5876 208.599 71.7088C209.809 73.8134 211.508 75.4706 213.695 76.6804C215.899 77.8901 218.476 78.495 221.426 78.495C224.376 78.495 226.953 77.8901 229.157 76.6804C231.361 75.4706 233.06 73.8134 234.253 71.7088C235.463 69.5876 236.067 67.1764 236.067 64.4751V31.0909Z" fill="#031732"/>
<path d="M155.761 82V31.0909H160.41V77.8239H184.671V82H155.761Z" fill="#031732"/>
<path fill-rule="evenodd" clip-rule="evenodd" d="M51.1929 0.0151407C53.4588 -0.0252577 55.7236 0.0151892 57.9866 0.136457C58.1484 0.217327 58.31 0.298221 58.4719 0.37909C58.0315 0.562715 57.6273 0.764925 57.2587 0.985673C50.0078 3.27494 43.6186 6.99531 38.0907 12.1468C37.5651 11.9626 37.2012 12.2053 36.9988 12.8747C36.59 12.2955 36.226 11.6889 35.907 11.0549C36.3665 10.7878 36.5284 10.4643 36.3922 10.0844C37.2075 9.33288 38.178 9.04983 39.3038 9.2352C39.3038 8.74993 39.3038 8.26467 39.3038 7.7794C40.0529 7.71959 40.7402 7.47696 41.3662 7.0515C41.447 7.13237 41.5281 7.21326 41.6089 7.29413C41.6933 6.89626 41.572 6.57274 41.2449 6.3236C41.8906 5.5679 42.6185 4.88042 43.4286 4.26122C43.3478 4.18035 43.2668 4.09946 43.186 4.01859C44.1225 3.99316 45.012 3.79095 45.8549 3.412C46.0398 3.13824 46.2017 2.85519 46.3402 2.56279C46.9354 2.38647 47.5014 2.14383 48.0386 1.83489C48.234 1.35649 48.5576 0.99254 49.0092 0.74304C49.9474 1.33793 50.9988 1.66145 52.1634 1.71357C52.3252 1.6327 52.4868 1.55181 52.6487 1.47094C52.7853 0.934914 53.1087 0.570965 53.6192 0.37909C52.7639 0.335732 51.955 0.214415 51.1929 0.0151407Z" fill="#031732"/>
<path fill-rule="evenodd" clip-rule="evenodd" d="M44.1566 1.71356C44.1566 1.9562 44.1566 2.19883 44.1566 2.44146C43.7578 2.38966 43.3938 2.47053 43.0648 2.68409C43.0422 3.2925 42.8401 3.81819 42.4582 4.26121C41.6017 4.92052 40.6312 5.28447 39.5466 5.35306C39.5847 5.68629 39.5442 6.00982 39.4253 6.32359C39.3445 6.16183 39.2635 6.00009 39.1827 5.83832C38.6649 6.31981 38.0583 6.64331 37.3629 6.80886C37.1409 7.00973 36.9793 7.25237 36.8777 7.53676C35.6402 7.76561 34.4676 8.17 33.3595 8.74992C33.259 8.63894 33.1377 8.55807 32.9955 8.50729C32.6143 8.97193 32.1291 9.21456 31.5397 9.23519C31.5759 9.49044 31.5356 9.73307 31.4184 9.96309C31.2442 9.73244 31.0421 9.69202 30.8118 9.84177C29.7891 10.9895 28.4949 11.5557 26.9297 11.5402C27.2919 11.8207 27.2514 12.023 26.8084 12.1468C25.9592 12.4108 25.1505 12.7344 24.382 13.1173C24.2816 13.0064 24.1603 12.9254 24.0181 12.8747C23.767 13.5458 23.3627 13.7074 22.8049 13.36C23.5835 12.4028 24.4733 11.5535 25.4739 10.8123C27.3499 9.55309 29.2102 8.2995 31.0545 7.05149C33.7618 5.65754 36.5118 4.32306 39.304 3.04804C40.8493 2.33058 42.4669 1.88576 44.1566 1.71356Z" fill="#031732"/>
<path fill-rule="evenodd" clip-rule="evenodd" d="M51.193 0.0151367C51.9551 0.214411 52.7641 0.335728 53.6193 0.379086C53.1088 0.570961 52.7854 0.93491 52.6488 1.47094C52.487 1.5518 52.3254 1.6327 52.1635 1.71357C50.9989 1.66145 49.9476 1.33792 49.0093 0.743036C48.5578 0.992536 48.2341 1.35649 48.0388 1.83488C47.5016 2.14383 46.9355 2.38646 46.3403 2.56278C46.2018 2.85518 46.04 3.13824 45.8551 3.412C45.0122 3.79094 44.1227 3.99315 43.1861 4.01858C43.2669 4.09945 43.3479 4.18035 43.4287 4.26122C42.6186 4.88042 41.8907 5.56789 41.2451 6.3236C40.1612 6.78283 39.0288 7.10633 37.8482 7.29413C37.9135 7.76207 37.7921 8.16647 37.4842 8.50729C36.8248 8.38292 36.1374 8.38292 35.4219 8.50729C35.4071 9.01493 35.1644 9.37888 34.694 9.59914C34.8558 9.68001 35.0174 9.76091 35.1792 9.84178C34.34 9.98524 33.4505 10.1875 32.5103 10.4484C32.1907 11.2934 31.6244 11.9 30.8118 12.2681C28.8936 12.8572 26.9525 13.3425 24.9886 13.7239C24.6584 14.1082 24.4966 14.5532 24.5034 15.0584C24.1901 15.0009 23.9475 15.0817 23.7755 15.301C22.802 15.1523 22.3168 15.5568 22.3197 16.5142C21.1972 16.6918 20.1862 17.1771 19.2868 17.97C19.163 17.0337 19.5675 16.3866 20.4999 16.0289C21.3656 16.3815 21.7701 16.058 21.7131 15.0584C22.375 14.7024 22.5771 14.2172 22.3197 13.6026C22.4815 13.5218 22.6431 13.4408 22.8049 13.36C23.3628 13.7074 23.767 13.5458 24.0181 12.8747C24.1603 12.9254 24.2816 13.0064 24.3821 13.1173C25.1505 12.7344 25.9592 12.4108 26.8084 12.1468C27.2514 12.023 27.2919 11.8207 26.9297 11.5402C28.4949 11.5557 29.7891 10.9895 30.8118 9.84178C31.0421 9.69202 31.2442 9.73245 31.4184 9.96309C31.5356 9.73308 31.5759 9.49044 31.5397 9.23519C32.1291 9.21457 32.6143 8.97194 32.9955 8.50729C33.1377 8.55808 33.259 8.63895 33.3595 8.74993C34.4676 8.17001 35.6402 7.76561 36.8777 7.53676C36.9793 7.25237 37.1409 7.00974 37.3629 6.80886C38.0583 6.64331 38.6649 6.31981 39.1827 5.83833C39.2635 6.00009 39.3445 6.16183 39.4253 6.3236C39.5442 6.00982 39.5847 5.6863 39.5466 5.35306C40.6312 5.28447 41.6017 4.92052 42.4582 4.26122C42.8401 3.81819 43.0422 3.2925 43.0648 2.6841C43.3938 2.47054 43.7578 2.38967 44.1566 2.44147C44.1566 2.19883 44.1566 1.9562 44.1566 1.71357C46.3913 0.811434 48.7366 0.245298 51.193 0.0151367Z" fill="#031732"/>
<path fill-rule="evenodd" clip-rule="evenodd" d="M60.6557 9.47782C61.5214 9.54074 61.8449 10.026 61.6263 10.9336C62.2617 10.8685 62.8683 10.9494 63.446 11.1763C63.1764 12.2686 63.0551 13.401 63.0821 14.5731C62.4595 14.611 61.8529 14.5299 61.2623 14.3305C60.5116 14.5891 59.7434 14.7507 58.9573 14.8157C58.9194 14.1932 59.0005 13.5866 59.1999 12.996C57.6604 11.2777 58.0649 10.5901 60.4131 10.9336C60.4172 10.4326 60.498 9.94736 60.6557 9.47782Z" fill="#031732"/>
<path fill-rule="evenodd" clip-rule="evenodd" d="M85.8894 10.9336C86.0081 11.2963 86.1697 11.62 86.3747 11.9041C86.5052 12.2965 86.586 12.701 86.6173 13.1173C88.7202 13.1173 90.8229 13.1173 92.9258 13.1173C92.9651 13.6091 92.9246 14.0944 92.8045 14.5731C91.2771 15.6788 89.781 16.8109 88.3157 17.97C88.6069 19.0599 88.9306 20.1115 89.2863 21.1242C89.6602 22.3044 89.822 23.5175 89.7715 24.7637C89.3593 24.8025 88.9548 24.7622 88.5584 24.6424C87.1368 23.5039 85.681 22.4121 84.191 21.3668C82.9317 22.4242 81.6378 23.435 80.3088 24.3997C79.8612 24.6734 79.3759 24.7948 78.8531 24.7637C78.5769 24.0834 78.5364 23.3555 78.7317 22.58C79.0957 21.1647 79.4596 19.7492 79.8236 18.3339C79.6258 17.8535 79.3024 17.4896 78.8531 17.2421C77.7197 16.247 76.5471 15.2765 75.3349 14.3305C75.216 14.0168 75.1755 13.6931 75.2136 13.3599C77.4009 13.3597 79.5846 13.2789 81.7646 13.1173C82.0844 11.5509 82.5292 10.0142 83.0991 8.50728C83.6383 7.36014 84.2854 7.27924 85.0402 8.26465C85.3493 9.15116 85.6322 10.0408 85.8894 10.9336Z" fill="#031732"/>
<path fill-rule="evenodd" clip-rule="evenodd" d="M22.3195 13.6026C22.5769 14.2172 22.3748 14.7024 21.7129 15.0584C21.7699 16.058 21.3655 16.3815 20.4998 16.0289C19.5673 16.3866 19.1628 17.0337 19.2866 17.97C20.186 17.1771 21.1971 16.6918 22.3195 16.5142C22.3166 15.5568 22.8019 15.1523 23.7753 15.301C23.7586 15.928 23.4756 16.4133 22.9261 16.7568C22.806 17.2355 22.7655 17.7208 22.8048 18.2126C21.915 18.4553 21.349 19.0213 21.1063 19.9111C22.0946 19.6267 22.9843 19.748 23.7753 20.275C23.1709 20.4269 23.1709 20.629 23.7753 20.8816C23.5397 21.2363 23.6205 21.5597 24.0179 21.8521C23.5273 23.0791 23.2039 23.0791 23.0474 21.8521C22.4003 21.8521 21.7534 21.8521 21.1063 21.8521C21.0255 20.8816 20.9445 20.8816 20.8637 21.8521C20.1608 21.7611 19.5139 21.8824 18.9226 22.2161C19.0845 22.2969 19.2461 22.3779 19.4079 22.4587C18.8552 22.6979 18.2891 22.9003 17.7095 23.0653C17.4018 23.503 17.24 23.9883 17.2242 24.5211C16.812 24.4823 16.4075 24.5225 16.011 24.6424C16.1241 24.9576 16.1241 25.3215 16.011 25.7342C15.6876 25.7342 15.3639 25.7342 15.0405 25.7342C14.9743 26.2076 15.1359 26.5716 15.5258 26.8261C14.7202 27.2949 13.871 27.4162 12.9781 27.19C12.7476 27.3167 12.5453 27.4785 12.3715 27.6753C11.9921 27.5089 11.5876 27.5494 11.1584 27.7966C10.8815 27.9764 10.8815 28.1788 11.1584 28.4032C10.3749 28.9045 9.97045 29.6324 9.94521 30.5869C9.37042 31.1947 8.72356 31.68 8.00415 32.0427C11.6056 25.009 16.3774 18.8624 22.3195 13.6026Z" fill="#031732"/>
<path fill-rule="evenodd" clip-rule="evenodd" d="M45.6124 20.6389C46.1516 20.5608 46.5965 20.7227 46.9469 21.1242C47.2689 22.1697 47.552 23.221 47.7961 24.2784C49.1711 24.2784 50.5459 24.2784 51.9209 24.2784C51.5785 25.5952 50.7698 26.5657 49.4945 27.19C49.4138 27.4327 49.3327 27.6753 49.2519 27.9179C49.5198 28.9234 49.7624 29.9345 49.9798 30.9508C50.0262 31.4296 49.8643 31.7935 49.4945 32.0427C48.3777 31.3434 47.2859 30.6155 46.219 29.859C45.1279 30.6473 43.9958 31.3752 42.8221 32.0427C42.6348 32.0075 42.473 31.9267 42.3369 31.8001C42.5298 30.3329 42.7724 28.8771 43.0648 27.4327C42.0222 26.6504 41.0111 25.8417 40.0319 25.0063C40.1476 24.769 40.3092 24.5669 40.5171 24.3998C41.8897 24.2787 43.2647 24.2382 44.6419 24.2784C44.9275 23.0548 45.2511 21.8417 45.6124 20.6389Z" fill="#031732"/>
<path fill-rule="evenodd" clip-rule="evenodd" d="M41.2451 6.3236C41.5722 6.57274 41.6935 6.89626 41.609 7.29413C41.5282 7.21326 41.4472 7.13237 41.3664 7.0515C40.7404 7.47696 40.053 7.71959 39.304 7.7794C39.304 8.26467 39.304 8.74993 39.304 9.2352C38.1782 9.04983 37.2077 9.33288 36.3924 10.0844C36.5285 10.4643 36.3667 10.7878 35.9072 11.0549C36.2262 11.6889 36.5902 12.2955 36.999 12.8747C37.2014 12.2053 37.5653 11.9626 38.0909 12.1468C36.8682 13.3689 35.7359 14.6631 34.694 16.0289C33.2234 17.5966 31.9294 19.295 30.8119 21.1242C30.9305 19.9562 31.4158 18.9454 32.2677 18.0913C31.8598 17.2503 31.6172 17.2906 31.5398 18.2126C31.1122 18.1779 30.7078 18.259 30.3266 18.4553C30.1648 18.2934 30.0032 18.1318 29.8413 17.97C29.0627 18.1435 28.3348 18.4266 27.6576 18.8192C27.7685 18.9197 27.8496 19.041 27.9003 19.1832C27.3643 19.7601 26.7982 20.2859 26.2018 20.7603C26.3637 20.8411 26.5253 20.9221 26.6871 21.0029C25.9823 21.2545 25.2946 21.5377 24.6247 21.8521C24.724 22.2707 24.6834 22.6751 24.5034 23.0653C23.9179 23.5212 23.3113 23.9257 22.6837 24.2785C22.5538 23.8487 22.3515 23.768 22.0771 24.0358C21.865 24.581 21.784 25.1471 21.8344 25.7342C21.5918 25.7342 21.3492 25.7342 21.1065 25.7342C21.0068 26.475 20.8452 27.2029 20.6213 27.9179C21.0063 28.3901 20.9255 28.7541 20.3786 29.0098C20.4895 29.1102 20.5706 29.2316 20.6213 29.3737C20.555 30.3673 20.3124 31.2571 19.8934 32.0427C20.5815 29.6984 19.7728 28.8492 17.467 29.4951C17.1368 29.8794 16.975 30.3244 16.9818 30.8295C16.7954 31.0147 16.6741 31.2573 16.6178 31.5574C16.2473 31.1399 16.0047 30.6546 15.8899 30.1016C15.2618 30.5168 14.6552 30.9618 14.0702 31.4361C13.3467 31.557 12.6188 31.5975 11.8865 31.5574C11.7574 32.8427 11.555 32.8427 11.2799 31.5574C11.16 31.9539 11.1198 32.3584 11.1586 32.7706C10.916 32.7706 10.6733 32.7706 10.4307 32.7706C10.4307 33.0132 10.4307 33.2559 10.4307 33.4985C10.6733 33.4985 10.916 33.4985 11.1586 33.4985C11.1586 33.7411 11.1586 33.9838 11.1586 34.2264C10.5115 34.2264 9.86463 34.2264 9.21752 34.2264C9.27673 35.3927 8.75094 36.1206 7.64041 36.4101C7.55954 37.0572 7.47864 37.7041 7.39778 38.3512C7.25649 37.5825 7.01386 37.5017 6.66988 38.1085C6.47131 38.7411 6.34999 39.3882 6.30593 40.0496C6.85532 40.7938 6.77445 41.3598 6.06329 41.748C5.92111 41.6973 5.79979 41.6163 5.69934 41.5054C5.58045 42.2284 5.2165 42.7945 4.6075 43.2038C4.1908 42.9204 4.02903 42.516 4.12223 41.9907C4.94509 38.4856 6.23915 35.1698 8.00436 32.0427C8.72376 31.68 9.37062 31.1947 9.94542 30.5869C9.97066 29.6324 10.3751 28.9045 11.1586 28.4032C10.8817 28.1788 10.8817 27.9764 11.1586 27.7966C11.5878 27.5494 11.9923 27.5089 12.3718 27.6753C12.5455 27.4785 12.7478 27.3167 12.9783 27.19C13.8712 27.4162 14.7204 27.2949 15.526 26.8261C15.1361 26.5716 14.9745 26.2076 15.0407 25.7342C15.3641 25.7342 15.6878 25.7342 16.0112 25.7342C16.1243 25.3215 16.1243 24.9576 16.0112 24.6424C16.4077 24.5225 16.8122 24.4823 17.2244 24.5211C17.2402 23.9883 17.402 23.503 17.7097 23.0653C18.2893 22.9003 18.8554 22.6979 19.4081 22.4587C19.2463 22.3779 19.0847 22.2969 18.9228 22.2161C19.5141 21.8824 20.161 21.7611 20.8639 21.8521C20.9447 20.8816 21.0257 20.8816 21.1065 21.8521C21.7536 21.8521 22.4005 21.8521 23.0476 21.8521C23.2041 23.0791 23.5275 23.0791 24.0181 21.8521C23.6207 21.5597 23.5399 21.2363 23.7755 20.8816C23.1711 20.629 23.1711 20.4269 23.7755 20.275C22.9845 19.748 22.0948 19.6267 21.1065 19.9111C21.3492 19.0213 21.9152 18.4553 22.805 18.2126C22.7657 17.7208 22.8062 17.2355 22.9263 16.7568C23.4759 16.4133 23.7588 15.928 23.7755 15.301C23.9475 15.0817 24.1902 15.0009 24.5034 15.0584C24.4966 14.5532 24.6584 14.1082 24.9887 13.7239C26.9525 13.3425 28.8936 12.8572 30.8119 12.2681C31.6244 11.9 32.1907 11.2935 32.5103 10.4484C33.4505 10.1875 34.34 9.98525 35.1793 9.84178C35.0174 9.76091 34.8558 9.68002 34.694 9.59915C35.1645 9.37889 35.4071 9.01494 35.4219 8.5073C36.1374 8.38292 36.8248 8.38292 37.4843 8.5073C37.7922 8.16647 37.9135 7.76208 37.8482 7.29413C39.0289 7.10634 40.1612 6.78283 41.2451 6.3236Z" fill="#031732"/>
<path fill-rule="evenodd" clip-rule="evenodd" d="M19.8931 32.0427C18.381 32.9494 17.4105 32.5449 16.9815 30.8295C16.9747 30.3244 17.1366 29.8794 17.4668 29.4951C19.7725 28.8492 20.5812 29.6984 19.8931 32.0427Z" fill="#ECF3F5"/>
<path fill-rule="evenodd" clip-rule="evenodd" d="M71.3316 30.1016C72.3364 30.4831 73.2261 31.0491 74.0006 31.8001C73.9797 32.0417 74.0608 32.2438 74.2432 32.4066C74.0814 32.5685 73.9198 32.7301 73.758 32.8919C72.7413 33.1731 71.7708 33.2944 70.8464 33.2559C69.6339 32.5889 68.34 32.3057 66.9642 32.4066C66.115 33.2559 65.2658 34.1051 64.4166 34.9543C64.1718 35.3243 64.0504 35.7288 64.0526 36.1675C63.8219 35.8232 63.7411 35.4189 63.81 34.9543C63.1149 34.8463 62.5083 35.0082 61.9902 35.4396C61.8274 35.2571 61.6253 35.1761 61.3837 35.1969C63.2088 33.1695 65.1498 31.2689 67.2069 29.495C67.854 29.3332 68.5008 29.3332 69.1479 29.495C69.8593 29.7729 70.5872 29.975 71.3316 30.1016Z" fill="#031732"/>
<path fill-rule="evenodd" clip-rule="evenodd" d="M70.8461 33.2559C72.957 34.1941 74.4534 35.7307 75.3348 37.8659C75.5054 38.4552 75.4651 39.0213 75.2135 39.5643C74.6246 39.5587 74.0586 39.4374 73.5151 39.2004C72.0506 38.3485 70.514 37.6609 68.9051 37.138C67.3619 36.4734 65.7443 36.15 64.0524 36.1675C64.0502 35.7288 64.1715 35.3243 64.4163 34.9543C65.2656 34.1051 66.1148 33.2559 66.964 32.4066C68.3397 32.3057 69.6337 32.5889 70.8461 33.2559Z" fill="#ECF3F5"/>
<path fill-rule="evenodd" clip-rule="evenodd" d="M30.8117 21.1242C29.6219 23.3412 28.5705 25.6056 27.6575 27.9179C27.7502 26.5548 27.1031 25.9077 25.7164 25.9769C25.8516 26.9799 25.6089 27.8697 24.9885 28.6458C24.7631 28.3573 24.6823 28.0339 24.7459 27.6753C24.0988 27.6753 23.4519 27.6753 22.8048 27.6753C22.8684 28.0339 22.7876 28.3573 22.5622 28.6458C22.1866 29.1117 21.7821 29.5564 21.349 29.9803C21.0004 31.0663 20.6769 32.1582 20.3785 33.2559C19.9185 33.4903 19.4332 33.571 18.9227 33.4985C18.9227 33.7411 18.9227 33.9838 18.9227 34.2264C18.2756 34.3882 17.6287 34.5498 16.9816 34.7117C16.9816 34.9543 16.9816 35.1969 16.9816 35.4396C15.7115 35.4279 14.4173 35.5898 13.0995 35.9248C13.0995 36.4101 13.0995 36.8954 13.0995 37.3806C12.5106 37.3862 11.9446 37.5075 11.4011 37.7446C11.5629 37.9064 11.7245 38.068 11.8863 38.2298C11.5988 38.5581 11.2752 38.8413 10.9158 39.0791C11.0316 39.3164 11.1931 39.5185 11.4011 39.6856C11.1167 39.7873 10.8741 39.9489 10.6732 40.1709C11.075 40.6069 11.3176 41.1327 11.4011 41.748C10.9212 42.6288 10.274 43.3567 9.46002 43.9317C9.66019 44.1467 9.90282 44.2275 10.1879 44.1744C10.1879 44.4978 10.1879 44.8215 10.1879 45.1449C10.5759 45.0799 10.8993 45.1609 11.1584 45.3875C9.63326 46.9195 9.55222 48.5371 10.9158 50.2402C10.7581 50.3139 10.5963 50.3947 10.4305 50.4828C10.1879 50.0783 9.86449 49.7549 9.46002 49.5123C9.51946 49.1444 9.51946 48.74 9.46002 48.2991C9.07884 48.1028 8.67437 48.0218 8.24685 48.0565C8.32158 47.4683 8.24054 46.9023 8.00422 46.3581C7.78932 46.5582 7.70845 46.8009 7.76158 47.086C6.95282 47.086 6.14402 47.086 5.33525 47.086C5.38839 46.8009 5.30752 46.5582 5.09262 46.3581C4.15421 47.9114 3.34544 49.529 2.66629 51.2107C3.17398 51.6586 3.4975 52.2247 3.63682 52.9091C3.30017 52.9836 2.89577 52.9836 2.42366 52.9091C2.44489 53.6608 2.32357 53.7419 2.05971 53.1518C1.83265 54.0287 1.71134 54.9181 1.69576 55.8207C1.73739 56.0614 1.6565 56.223 1.45312 56.306C1.75627 51.3954 2.64593 46.6235 4.12209 41.9907C4.02889 42.516 4.19066 42.9204 4.60735 43.2038C5.21636 42.7945 5.58031 42.2284 5.6992 41.5054C5.79965 41.6163 5.92097 41.6973 6.06315 41.748C6.77431 41.3598 6.85518 40.7937 6.30579 40.0496C6.34985 39.3882 6.47117 38.7411 6.66974 38.1085C7.01372 37.5017 7.25635 37.5825 7.39764 38.3512C7.47851 37.7041 7.5594 37.0572 7.64027 36.4101C8.7508 36.1206 9.27659 35.3927 9.21738 34.2264C9.86449 34.2264 10.5113 34.2264 11.1584 34.2264C11.1584 33.9838 11.1584 33.7411 11.1584 33.4985C10.9158 33.4985 10.6732 33.4985 10.4305 33.4985C10.4305 33.2559 10.4305 33.0132 10.4305 32.7706C10.6732 32.7706 10.9158 32.7706 11.1584 32.7706C11.1196 32.3584 11.1599 31.9539 11.2798 31.5574C11.5549 32.8427 11.7573 32.8427 11.8863 31.5574C12.6186 31.5975 13.3465 31.557 14.07 31.4361C14.655 30.9618 15.2616 30.5168 15.8898 30.1016C16.0046 30.6546 16.2472 31.1399 16.6177 31.5574C16.674 31.2573 16.7953 31.0147 16.9816 30.8295C17.4106 32.545 18.3811 32.9494 19.8932 32.0427C20.3123 31.2571 20.5549 30.3673 20.6211 29.3737C20.5704 29.2316 20.4894 29.1102 20.3785 29.0098C20.9254 28.7541 21.0062 28.3901 20.6211 27.9179C20.8451 27.2029 21.0067 26.475 21.1064 25.7342C21.349 25.7342 21.5917 25.7342 21.8343 25.7342C21.7838 25.1471 21.8649 24.581 22.0769 24.0358C22.3514 23.7679 22.5537 23.8487 22.6835 24.2784C23.3112 23.9257 23.9178 23.5212 24.5033 23.0653C24.6833 22.6751 24.7238 22.2707 24.6246 21.8521C25.2945 21.5377 25.9821 21.2545 26.687 21.0029C26.5251 20.9221 26.3635 20.8411 26.2017 20.7603C26.7981 20.2859 27.3642 19.7601 27.9001 19.1831C27.8494 19.041 27.7684 18.9197 27.6575 18.8192C28.3347 18.4266 29.0626 18.1435 29.8412 17.97C30.003 18.1318 30.1646 18.2934 30.3265 18.4553C30.7076 18.259 31.1121 18.1779 31.5396 18.2126C31.617 17.2906 31.8597 17.2503 32.2675 18.0913C31.4156 18.9454 30.9304 19.9562 30.8117 21.1242Z" fill="#031732"/>
<path fill-rule="evenodd" clip-rule="evenodd" d="M104.572 29.3737C105.947 32.1235 107.322 34.8735 108.697 37.6232C108.29 37.789 108.128 38.1126 108.212 38.5938C107.237 38.9582 106.347 38.7964 105.543 38.1085C105.312 38.4834 105.231 38.8879 105.3 39.3217C104.941 39.2581 104.618 39.3389 104.33 39.5643C105.591 39.9375 106.804 39.8567 107.969 39.3217C107.914 39.9156 107.914 40.5222 107.969 41.1414C107.612 41.3137 107.45 41.5966 107.484 41.9906C107.248 41.593 106.924 41.2693 106.513 41.0201C106.486 40.8704 106.406 40.7491 106.271 40.6562C105.219 40.4943 104.168 40.4943 103.116 40.6562C101.051 41.3037 98.9487 41.7485 96.808 41.9906C95.1809 41.9176 93.6037 41.5939 92.0766 41.0201C89.1735 42.4546 86.1406 43.4251 82.9779 43.9317C81.5078 43.9914 80.052 43.9106 78.6105 43.6891C78.9548 43.4583 79.359 43.3775 79.8236 43.4464C82.0326 43.5175 84.2163 43.3154 86.3747 42.8399C85.7711 42.431 85.8519 42.1073 86.6174 41.8693C87.6668 41.5153 88.7181 41.394 89.7716 41.5054C90.2003 40.9255 90.7664 40.521 91.47 40.2922C90.4988 39.3816 90.7414 38.8963 92.1979 38.8364C92.1159 38.1917 92.2778 37.6257 92.6832 37.138C92.6531 36.9907 92.5723 36.9099 92.4406 36.8953C94.305 35.0356 95.8821 32.9327 97.1719 30.5869C98.9349 25.8919 101.401 25.4875 104.572 29.3737Z" fill="#031732"/>
<path fill-rule="evenodd" clip-rule="evenodd" d="M74.0005 31.8001C74.1798 31.7683 74.3417 31.8088 74.4858 31.9214C76.4346 33.5004 77.7286 35.482 78.3679 37.8659C78.3679 38.9983 78.3679 40.1304 78.3679 41.2627C77.3186 41.146 76.3885 40.7416 75.5777 40.0496C75.181 40.3769 74.817 40.3364 74.4858 39.9283C74.7859 39.872 75.0286 39.7507 75.2137 39.5643C75.4653 39.0213 75.5056 38.4552 75.335 37.8659C74.4535 35.7307 72.9572 34.1941 70.8463 33.2559C71.7707 33.2944 72.7413 33.1731 73.7579 32.8919C73.9197 32.7301 74.0813 32.5685 74.2432 32.4066C74.0607 32.2438 73.9797 32.0417 74.0005 31.8001Z" fill="#031732"/>
<path fill-rule="evenodd" clip-rule="evenodd" d="M64.0525 36.1675C65.7444 36.15 67.3621 36.4734 68.9052 37.138C69.5567 37.9465 70.2846 38.7149 71.0889 39.443C71.0484 39.5643 71.0081 39.6857 70.9676 39.807C70.6442 39.6451 70.3205 39.4835 69.997 39.3217C69.5746 39.6269 69.1299 39.8696 68.6626 40.0496C66.0234 39.2547 63.3545 38.5674 60.6557 37.9872C60.3951 37.8079 60.2333 37.5653 60.1704 37.2593C60.3014 36.388 60.7057 35.7004 61.3836 35.1969C61.6252 35.1761 61.8274 35.2571 61.9902 35.4396C62.5082 35.0082 63.1148 34.8463 63.8099 34.9543C63.741 35.4189 63.8218 35.8232 64.0525 36.1675Z" fill="#031732"/>
<path fill-rule="evenodd" clip-rule="evenodd" d="M57.0161 38.8364C59.2886 39.6063 61.5531 40.4555 63.8099 41.3841C64.1923 43.3455 63.3833 44.0734 61.3835 43.5678C59.9277 42.9207 58.4719 42.2738 57.0161 41.6267C56.567 41.2181 56.1626 40.7734 55.803 40.2922C56.0449 39.648 56.4494 39.1628 57.0161 38.8364Z" fill="#031732"/>
<path fill-rule="evenodd" clip-rule="evenodd" d="M68.9051 37.138C70.514 37.6609 72.0506 38.3485 73.5151 39.2004C74.0586 39.4374 74.6247 39.5587 75.2136 39.5643C75.0284 39.7507 74.7858 39.872 74.4857 39.9283C74.8169 40.3364 75.1808 40.3769 75.5775 40.0496C76.3884 40.7416 77.3184 41.146 78.3678 41.2628C78.3678 40.1304 78.3678 38.9983 78.3678 37.8659C78.4804 38.9456 78.723 39.9969 79.0957 41.0201C78.9943 41.1953 78.8327 41.3166 78.6104 41.3841C79.045 41.8951 79.2068 42.5016 79.0957 43.2038C79.4089 43.1463 79.6516 43.2271 79.8236 43.4465C79.359 43.3775 78.9547 43.4583 78.6104 43.6891C76.6085 43.5023 74.6271 43.1786 72.6659 42.7186C72.3828 42.7591 72.0999 42.7994 71.8167 42.8399C71.6825 43.2955 71.4399 43.6595 71.0888 43.9317C70.7717 43.5309 70.7717 43.1267 71.0888 42.7186C70.8925 42.1772 70.5688 41.7728 70.1183 41.5054C70.1156 41.1373 69.954 40.8542 69.633 40.6562C69.253 40.5087 68.9294 40.3063 68.6625 40.0496C69.1298 39.8696 69.5745 39.6269 69.997 39.3217C70.3204 39.4835 70.6441 39.6451 70.9675 39.807C71.008 39.6856 71.0483 39.5643 71.0888 39.443C70.2845 38.7149 69.5566 37.9464 68.9051 37.138Z" fill="#031732"/>
<path fill-rule="evenodd" clip-rule="evenodd" d="M92.4406 36.8954C92.5723 36.9099 92.6531 36.9907 92.6832 37.138C92.2778 37.6257 92.1159 38.1917 92.1979 38.8364C90.7414 38.8964 90.4988 39.3816 91.47 40.2922C90.7664 40.521 90.2003 40.9255 89.7716 41.5054C88.7181 41.394 87.6668 41.5153 86.6174 41.8693C85.8519 42.1074 85.7711 42.431 86.3747 42.8399C84.2163 43.3154 82.0326 43.5175 79.8236 43.4464C79.6516 43.2271 79.409 43.1463 79.0957 43.2038C79.2069 42.5016 79.045 41.8951 78.6105 41.3841C78.8327 41.3166 78.9943 41.1953 79.0957 41.0201C84.103 41.3273 88.5512 39.9523 92.4406 36.8954Z" fill="#031732"/>
<path fill-rule="evenodd" clip-rule="evenodd" d="M78.6104 43.6891C80.0518 43.9106 81.5076 43.9914 82.9778 43.9317C83.3109 43.8936 83.6346 43.9341 83.9483 44.053C83.4793 44.1139 83.0345 44.2353 82.6138 44.417C82.7203 44.9651 82.8416 45.5312 82.9778 46.1154C83.9483 46.1154 84.9188 46.1154 85.8894 46.1154C85.8894 45.8728 85.8894 45.6302 85.8894 45.3875C86.8859 45.3919 87.8564 45.5537 88.801 45.8728C88.5125 46.0982 88.189 46.179 87.8304 46.1154C87.8304 46.4388 87.8304 46.7625 87.8304 47.086C87.1833 47.086 86.5365 47.086 85.8894 47.086C85.8894 47.4094 85.8894 47.7331 85.8894 48.0565C85.5659 48.0565 85.2423 48.0565 84.9188 48.0565C84.9188 48.461 84.9188 48.8652 84.9188 49.2696C84.4947 49.5824 84.4139 49.9464 84.6762 50.3615C85.2423 50.5233 85.8086 50.5233 86.3746 50.3615C86.5095 50.2686 86.5903 50.1473 86.6173 49.9975C86.947 49.8745 87.1896 49.6319 87.3452 49.2696C87.5676 49.4218 87.8103 49.5028 88.0731 49.5123C88.2313 50.4974 87.8268 50.9826 86.8599 50.9681C86.8599 51.2915 86.8599 51.6152 86.8599 51.9386C87.507 51.9386 88.1539 51.9386 88.801 51.9386C88.801 52.262 88.801 52.5857 88.801 52.9091C91.3891 52.9091 93.977 52.9091 96.5652 52.9091C96.5652 53.2326 96.5652 53.5562 96.5652 53.8797C97.3443 53.7613 98.0317 53.9231 98.6276 54.3649C98.7084 54.2031 98.7894 54.0415 98.8702 53.8797C98.9891 54.1934 99.0296 54.5171 98.9915 54.8502C95.6895 55.8571 92.4545 56.9895 89.2862 58.2471C83.7273 59.8172 78.2275 61.5559 72.7872 63.4637C72.3019 63.585 71.8166 63.7063 71.3314 63.8276C71.1091 63.8172 70.9473 63.7364 70.8461 63.585C69.7972 62.2129 68.6648 60.9189 67.4492 59.7029C65.0105 57.3454 62.746 54.8383 60.6555 52.1812C63.7459 48.9025 67.2238 46.1528 71.0887 43.9317C71.4398 43.6595 71.6825 43.2955 71.8166 42.8399C72.0998 42.7994 72.3827 42.7591 72.6659 42.7186C74.6271 43.1786 76.6084 43.5023 78.6104 43.6891Z" fill="#ECF3F5"/>
<path fill-rule="evenodd" clip-rule="evenodd" d="M51.9208 43.2038C54.1853 43.6216 56.369 44.309 58.4719 45.2662C59.2467 46.5483 58.9232 47.438 57.5014 47.9352C57.0161 48.097 56.5309 48.097 56.0456 47.9352C54.5884 47.0847 53.0515 46.3974 51.4356 45.8728C51.1454 45.6158 50.9836 45.2922 50.9503 44.9023C51.0889 44.2197 51.4123 43.6537 51.9208 43.2038Z" fill="#031732"/>
<path fill-rule="evenodd" clip-rule="evenodd" d="M99.2343 45.6302C99.1281 45.6459 99.047 45.6056 98.9917 45.5088C99.1996 45.019 99.5233 44.655 99.9622 44.417C100.357 44.144 100.721 43.8204 101.054 43.4465C100.87 44.4832 100.264 45.2111 99.2343 45.6302Z" fill="#031732"/>
<path fill-rule="evenodd" clip-rule="evenodd" d="M108.697 37.6233C110.467 41.2487 111.761 45.0498 112.579 49.027C111.807 48.9229 111.241 48.5185 110.881 47.8138C110.592 47.5884 110.269 47.5076 109.91 47.5712C109.707 46.6805 109.586 45.791 109.546 44.9022C109.975 45.2218 110.299 45.6263 110.517 46.1154C110.679 45.6301 110.679 45.1449 110.517 44.6596C110.041 44.3568 109.678 43.9523 109.425 43.4465C109.476 43.3043 109.557 43.183 109.668 43.0825C109.476 42.3362 109.355 41.568 109.304 40.7775C109.053 40.4863 108.851 40.1627 108.697 39.807C108.918 39.0875 108.918 38.3596 108.697 37.6233Z" fill="#031732"/>
<path fill-rule="evenodd" clip-rule="evenodd" d="M69.1478 45.8728C70.0681 45.8582 70.5937 46.2627 70.7249 47.086C69.6263 47.4868 69.1005 47.0826 69.1478 45.8728Z" fill="#031732"/>
<path fill-rule="evenodd" clip-rule="evenodd" d="M10.9158 50.2402C9.55222 48.5371 9.63326 46.9195 11.1585 45.3875C14.145 44.9372 15.3987 46.2314 14.9193 49.2696C13.8762 50.7652 12.5417 51.0887 10.9158 50.2402Z" fill="#ECF3F5"/>
<path fill-rule="evenodd" clip-rule="evenodd" d="M97.536 46.1154C97.7536 46.3818 97.9558 46.3818 98.1426 46.1154C98.0679 46.8761 97.6231 47.2805 96.8081 47.3286C96.8081 47.086 96.8081 46.8433 96.8081 46.6007C97.0507 46.4389 97.2934 46.2773 97.536 46.1154Z" fill="#031732"/>
<path fill-rule="evenodd" clip-rule="evenodd" d="M47.0682 47.3286C49.0578 47.7624 50.9988 48.369 52.8914 49.1483C53.6598 50.3564 53.4171 51.3269 52.1635 52.0599C51.759 52.2218 51.3548 52.2218 50.9503 52.0599C49.6299 51.0763 48.1741 50.3484 46.5829 49.8762C45.5602 48.8276 45.722 47.9784 47.0682 47.3286Z" fill="#031732"/>
<path fill-rule="evenodd" clip-rule="evenodd" d="M72.0594 47.3286C73.1527 47.0925 73.6783 47.497 73.6365 48.5418C73.1003 48.8448 72.5748 48.8043 72.0594 48.4204C71.7614 48.0589 71.7614 47.695 72.0594 47.3286Z" fill="#031732"/>
<path fill-rule="evenodd" clip-rule="evenodd" d="M108.697 37.6233C108.918 38.3596 108.918 39.0875 108.697 39.807C108.851 40.1627 109.053 40.4863 109.304 40.7775C109.355 41.568 109.476 42.3362 109.667 43.0825C109.557 43.183 109.476 43.3043 109.425 43.4465C109.677 43.9523 110.041 44.3568 110.517 44.6596C110.679 45.1449 110.679 45.6301 110.517 46.1154C110.299 45.6263 109.975 45.2218 109.546 44.9022C109.586 45.791 109.707 46.6805 109.91 47.5712C110.269 47.5076 110.592 47.5884 110.881 47.8138C111.241 48.5185 111.807 48.9229 112.579 49.027C112.947 49.0297 113.23 49.1913 113.428 49.5123C113.728 50.376 113.85 51.2658 113.792 52.1812C111.697 52.7842 109.756 53.7144 107.969 54.9715C104.333 56.2509 100.693 57.5046 97.0506 58.7323C96.6461 58.7323 96.2419 58.7323 95.8374 58.7323C95.8374 58.975 95.8374 59.2176 95.8374 59.4602C94.6611 59.502 93.5288 59.7446 92.4405 60.1881C92.1591 60.0025 91.9165 59.7599 91.7126 59.4602C91.7634 59.318 91.8444 59.1967 91.9553 59.0963C93.9854 58.5268 96.0075 57.9608 98.0211 57.3979C97.9403 57.3171 97.8593 57.236 97.7785 57.1552C99.2498 57.0065 100.706 56.7639 102.146 56.4273C103.288 55.8149 104.501 55.3296 105.785 54.9715C105.361 54.5459 105.199 54.0202 105.3 53.3944C104.884 53.3631 104.479 53.2823 104.087 53.1518C104.087 53.071 104.087 52.9899 104.087 52.9091C104.441 52.9254 104.764 52.8446 105.057 52.6665C106.544 51.9032 108.04 51.1753 109.546 50.4828C109.645 47.4601 108.958 44.6293 107.484 41.9907C107.45 41.5966 107.612 41.3137 107.969 41.1414C107.913 40.5222 107.913 39.9157 107.969 39.3217C106.804 39.8567 105.591 39.9375 104.33 39.5643C104.618 39.3389 104.941 39.2581 105.3 39.3217C105.231 38.8879 105.312 38.4834 105.543 38.1085C106.347 38.7964 107.237 38.9582 108.212 38.5938C108.128 38.1126 108.29 37.789 108.697 37.6233Z" fill="#031732"/>
<path fill-rule="evenodd" clip-rule="evenodd" d="M70.1185 41.5054C70.5691 41.7728 70.8927 42.1772 71.089 42.7186C70.7719 43.1267 70.7719 43.5309 71.089 43.9317C67.2241 46.1528 63.7462 48.9025 60.6558 52.1812C62.7463 54.8383 65.0108 57.3454 67.4495 59.7029C65.984 60.5123 65.3372 60.027 65.5085 58.2471C64.9016 58.5688 64.2545 58.6901 63.5674 58.611C63.1003 58.0129 63.1003 57.3658 63.5674 56.67C63.1763 56.4953 62.8123 56.5355 62.4756 56.7913C62.1924 56.5081 61.9095 56.2252 61.6263 55.9421C61.8821 55.6053 61.9223 55.2413 61.7477 54.8502C61.4325 54.9633 61.0685 54.9633 60.6558 54.8502C60.4792 54.2245 60.3579 53.5774 60.2919 52.9091C60.2256 52.4654 60.0233 52.1014 59.6853 51.8173C59.8988 51.4883 59.9798 51.1243 59.9279 50.7254C59.1525 50.8223 58.4246 51.0649 57.7442 51.4533C58.2804 52.1407 58.2399 52.7068 57.6229 53.1518C57.0981 52.8684 56.6128 52.7065 56.1671 52.6665C55.5074 52.9521 55.1434 53.3563 55.0752 53.8797C54.7098 54.1822 54.3459 54.1822 53.9834 53.8797C53.3657 55.1229 52.4356 55.7698 51.1931 55.8207C57.2206 50.6837 63.5291 45.9118 70.1185 41.5054Z" fill="#031732"/>
<path fill-rule="evenodd" clip-rule="evenodd" d="M75.4563 48.2991C76.1405 48.238 76.7874 48.3593 77.3973 48.6631C77.7899 49.3424 77.5878 49.7064 76.7908 49.7549C75.788 49.7624 75.3432 49.2772 75.4563 48.2991Z" fill="#031732"/>
<path fill-rule="evenodd" clip-rule="evenodd" d="M95.1096 47.5712C95.3583 47.6675 95.3988 47.8291 95.2309 48.0565C94.2506 49.102 93.1588 49.3446 91.9553 48.7844C92.9205 48.2455 93.9718 47.841 95.1096 47.5712Z" fill="#031732"/>
<path fill-rule="evenodd" clip-rule="evenodd" d="M80.0664 49.027C80.7987 48.987 81.5266 49.0275 82.2501 49.1483C82.5058 49.4851 82.5461 49.849 82.3714 50.2402C81.0716 50.8147 80.3032 50.4103 80.0664 49.027Z" fill="#031732"/>
<path fill-rule="evenodd" clip-rule="evenodd" d="M88.3159 49.5123C88.8827 49.0535 89.5295 48.9322 90.257 49.1484C90.5801 50.0039 90.2567 50.4486 89.2864 50.4828C88.5556 50.5607 88.2322 50.2373 88.3159 49.5123Z" fill="#031732"/>
<path fill-rule="evenodd" clip-rule="evenodd" d="M27.6575 27.9179C27.5452 28.5781 27.3836 29.2252 27.1723 29.859C26.1622 32.9725 25.4343 36.1267 24.9886 39.3217C25.0204 39.1424 24.9798 38.9806 24.8673 38.8364C24.6127 39.2263 24.2488 39.3879 23.7754 39.3217C23.7754 39.0791 23.7754 38.8364 23.7754 38.5938C23.452 38.5938 23.1283 38.5938 22.8049 38.5938C22.8049 38.8364 22.8049 39.0791 22.8049 39.3217C21.7504 39.2814 20.6991 39.3219 19.6507 39.443C19.0346 39.881 18.792 40.4875 18.9228 41.2628C19.2559 41.2247 19.5796 41.2652 19.8933 41.3841C19.1707 41.553 18.4428 41.6743 17.7096 41.748C17.7096 41.5054 17.7096 41.2628 17.7096 41.0201C17.4543 40.984 17.2117 41.0243 16.9817 41.1414C17.3466 41.4658 17.5892 41.8703 17.7096 42.3546C17.3786 43.2482 17.2168 44.1782 17.2243 45.1449C16.9009 45.1449 16.5772 45.1449 16.2538 45.1449C16.2538 45.792 16.2538 46.4389 16.2538 47.086C16.5389 47.0328 16.7815 47.1136 16.9817 47.3286C16.8133 47.9565 16.5304 48.5226 16.1325 49.027C16.0119 49.5875 15.9716 50.1536 16.0112 50.7255C15.6877 50.7255 15.3641 50.7255 15.0406 50.7255C15.0406 50.9681 15.0406 51.2107 15.0406 51.4534C12.41 52.2162 9.74103 52.7417 7.03373 53.0305C7.26438 53.2047 7.3048 53.4068 7.15505 53.637C6.67293 53.2517 6.14722 53.0496 5.57793 53.0305C6.39269 53.4757 6.47356 54.0015 5.82056 54.6076C5.52397 54.0063 5.0387 53.7637 4.36476 53.8797C4.36476 54.2031 4.36476 54.5268 4.36476 54.8502C4.04126 54.8502 3.71774 54.8502 3.39423 54.8502C3.43385 55.4221 3.39341 55.9882 3.27292 56.5486C3.19205 56.306 3.11115 56.0634 3.03028 55.8207C2.80624 56.1262 2.60402 56.4497 2.4237 56.7913C2.17604 56.4513 1.93341 56.1277 1.6958 55.8207C1.71138 54.9181 1.83269 54.0287 2.05975 53.1518C2.32361 53.7419 2.44493 53.6608 2.4237 52.9091C2.89582 52.9836 3.30021 52.9836 3.63687 52.9091C3.49755 52.2247 3.17402 51.6586 2.66633 51.2107C3.34549 49.529 4.15426 47.9114 5.09266 46.3581C5.30756 46.5582 5.38843 46.8009 5.3353 47.086C6.14407 47.086 6.95286 47.086 7.76163 47.086C7.70849 46.8009 7.78936 46.5582 8.00426 46.3581C8.24059 46.9023 8.32163 47.4683 8.24689 48.0565C8.67441 48.0218 9.07888 48.1028 9.46006 48.2991C9.5195 48.74 9.5195 49.1445 9.46006 49.5123C9.86453 49.7549 10.188 50.0784 10.4306 50.4828C10.5963 50.3947 10.7581 50.3139 10.9159 50.2402C12.5417 51.0887 13.8762 50.7652 14.9193 49.2697C15.3987 46.2314 14.1451 44.9372 11.1585 45.3875C10.8994 45.1609 10.5759 45.0799 10.188 45.1449C10.188 44.8215 10.188 44.4978 10.188 44.1744C9.90286 44.2275 9.66023 44.1467 9.46006 43.9317C10.2741 43.3567 10.9212 42.6288 11.4011 41.748C11.3177 41.1327 11.075 40.6069 10.6732 40.1709C10.8741 39.9489 11.1168 39.7873 11.4011 39.6856C11.1932 39.5185 11.0316 39.3164 10.9159 39.0791C11.2752 38.8413 11.5989 38.5581 11.8864 38.2298C11.7246 38.068 11.563 37.9064 11.4011 37.7446C11.9446 37.5075 12.5107 37.3862 13.0996 37.3806C13.0996 36.8954 13.0996 36.4101 13.0996 35.9248C14.4173 35.5898 15.7115 35.4279 16.9817 35.4396C16.9817 35.1969 16.9817 34.9543 16.9817 34.7117C17.6288 34.5498 18.2756 34.3882 18.9228 34.2264C18.9228 33.9838 18.9228 33.7411 18.9228 33.4985C19.4333 33.5711 19.9185 33.4903 20.3785 33.2559C20.677 32.1582 21.0004 31.0663 21.3491 29.9803C21.7822 29.5564 22.1867 29.1117 22.5622 28.6458C22.7877 28.3574 22.8685 28.0339 22.8049 27.6753C23.452 27.6753 24.0988 27.6753 24.7459 27.6753C24.6824 28.0339 24.7632 28.3574 24.9886 28.6458C25.609 27.8697 25.8516 26.9799 25.7165 25.9769C27.1031 25.9077 27.7502 26.5548 27.6575 27.9179Z" fill="#031732"/>
<path fill-rule="evenodd" clip-rule="evenodd" d="M12.857 37.6233C13.3338 37.732 13.4146 37.9746 13.0996 38.3512C12.8847 38.151 12.8039 37.9084 12.857 37.6233Z" fill="#ECF3F5"/>
<path fill-rule="evenodd" clip-rule="evenodd" d="M84.919 49.2697C85.4108 49.2304 85.8961 49.2709 86.3748 49.391C86.5573 49.5538 86.6383 49.7559 86.6174 49.9976C86.5905 50.1473 86.5097 50.2686 86.3748 50.3615C85.8087 50.5233 85.2424 50.5233 84.6764 50.3615C84.4141 49.9464 84.4949 49.5824 84.919 49.2697Z" fill="#031732"/>
<path fill-rule="evenodd" clip-rule="evenodd" d="M41.4878 51.2107C43.6336 51.4677 45.6555 52.1148 47.5536 53.1518C47.8343 53.9486 47.8749 54.7575 47.6749 55.5781C47.0691 56.058 46.3815 56.1794 45.6126 55.9421C44.2245 55.0863 42.7687 54.3584 41.2452 53.7584C40.5685 52.8424 40.6495 51.9932 41.4878 51.2107Z" fill="#031732"/>
<path fill-rule="evenodd" clip-rule="evenodd" d="M24.7459 59.9455C19.9321 62.0283 15.1602 64.2525 10.4305 66.6179C8.48948 67.7503 6.54842 68.8824 4.60735 70.0148C3.99141 70.5898 3.42527 71.1964 2.90892 71.8345C2.34478 71.5543 2.0617 71.069 2.05971 70.3787C1.76141 68.5279 1.55923 66.6677 1.45312 64.7982C1.49394 60.5955 1.61525 60.5955 1.81707 64.7982C1.89794 63.3424 1.97884 61.8866 2.05971 60.4308C2.1367 59.9938 2.29846 59.913 2.54497 60.1881C2.66566 59.5461 2.70611 58.899 2.66629 58.2471C4.48737 57.8145 6.34757 57.6526 8.24685 57.7618C8.24685 58.0852 8.24685 58.4089 8.24685 58.7323C8.57028 58.7323 8.89395 58.7323 9.21738 58.7323C9.15891 60.2173 9.76549 60.6217 11.0371 59.9455C11.1179 59.7029 11.199 59.4602 11.2798 59.2176C11.5175 59.5959 11.7197 60.0003 11.8863 60.4308C12.2634 60.0443 12.6679 59.7208 13.0995 59.4602C13.2613 59.4602 13.3421 59.3795 13.3421 59.2176C13.6214 58.2478 13.9854 57.2773 14.434 56.306C14.5344 56.4169 14.6558 56.4979 14.7979 56.5487C15.0343 56.0044 15.1153 55.4384 15.0406 54.8502C16.2644 54.9296 17.4776 54.8488 18.6801 54.6076C18.5993 54.4458 18.5182 54.2842 18.4374 54.1223C18.7512 53.7334 18.9938 53.3292 19.1653 52.9092C19.2432 53.2848 19.4859 53.4466 19.8932 53.3944C20.0973 53.5179 20.2186 53.3563 20.2572 52.9092C20.338 52.99 20.419 53.071 20.4998 53.1518C20.4811 52.8514 20.5214 52.6088 20.6211 52.4239C20.8465 52.7124 20.9273 53.0358 20.8638 53.3944C21.5109 53.3944 22.1577 53.3944 22.8048 53.3944C22.8048 53.071 22.8048 52.7473 22.8048 52.4239C23.1283 52.4239 23.4519 52.4239 23.7754 52.4239C23.8377 53.2566 23.9996 54.0655 24.2606 54.8502C23.7754 54.8502 23.2901 54.8502 22.8048 54.8502C22.8048 55.8208 22.8048 56.7913 22.8048 57.7618C23.1283 57.7618 23.4519 57.7618 23.7754 57.7618C23.7754 58.0044 23.7754 58.2471 23.7754 58.4897C24.0988 58.4897 24.4225 58.4897 24.7459 58.4897C24.7508 58.8884 24.5889 59.2118 24.2606 59.4602C24.4409 59.6257 24.6025 59.7876 24.7459 59.9455Z" fill="#031732"/>
<path fill-rule="evenodd" clip-rule="evenodd" d="M60.6556 54.8502C61.0683 54.9633 61.4322 54.9633 61.7474 54.8502C61.9221 55.2413 61.8818 55.6053 61.6261 55.9421C61.9093 56.2252 62.1922 56.5081 62.4753 56.7913C62.8121 56.5355 63.1761 56.4953 63.5672 56.67C63.1001 57.3658 63.1001 58.0129 63.5672 58.611C64.2543 58.6901 64.9014 58.5688 65.5082 58.2471C65.3369 60.027 65.9838 60.5123 67.4493 59.7029C68.6649 60.9189 69.7973 62.2129 70.8462 63.585C70.5397 64.1447 70.0545 64.4684 69.3904 64.5555C69.188 64.2527 68.8646 64.0909 68.4198 64.0703C67.6716 64.102 67.0247 64.3447 66.4788 64.7982C64.0954 65.414 61.7499 66.1419 59.4424 66.9819C57.8646 67.2873 56.4088 67.8536 55.075 68.6803C53.4816 67.0277 51.9451 65.3293 50.465 63.585C49.8179 62.8571 49.171 62.1292 48.5239 61.4013C48.5775 61.1016 48.7394 60.859 49.0092 60.6734C50.5662 60.2888 51.7391 59.3993 52.5274 58.0044C52.6082 58.0852 52.6892 58.1663 52.77 58.2471C53.0245 57.8572 53.3885 57.6956 53.8619 57.7618C53.8619 57.4384 53.8619 57.1147 53.8619 56.7913C54.1853 56.7913 54.509 56.7913 54.8324 56.7913C54.8324 56.4678 54.8324 56.1442 54.8324 55.8207C55.1558 55.8207 55.4795 55.8207 55.8029 55.8207C55.8029 55.4973 55.8029 55.1736 55.8029 54.8502C56.2882 54.8502 56.7735 54.8502 57.2587 54.8502C57.2163 53.3466 57.4589 53.185 57.9866 54.3649C58.3122 53.9998 58.7165 53.8379 59.1998 53.8797C59.1998 54.2031 59.1998 54.5268 59.1998 54.8502C59.685 54.8502 60.1703 54.8502 60.6556 54.8502Z" fill="#031732"/>
<path fill-rule="evenodd" clip-rule="evenodd" d="M24.9884 39.3217C24.9479 42.2345 24.9884 45.1461 25.1097 48.0565C25.3791 50.8101 25.9046 53.4791 26.6868 56.0634C26.7329 56.8774 26.9756 57.6053 27.4147 58.2471C26.575 58.8704 25.6853 59.4367 24.7458 59.9455C24.6024 59.7876 24.4408 59.6257 24.2605 59.4602C24.5888 59.2118 24.7506 58.8884 24.7458 58.4897C24.4223 58.4897 24.0987 58.4897 23.7752 58.4897C23.7752 58.2471 23.7752 58.0044 23.7752 57.7618C23.4518 57.7618 23.1281 57.7618 22.8047 57.7618C22.8047 56.7913 22.8047 55.8207 22.8047 54.8502C23.29 54.8502 23.7752 54.8502 24.2605 54.8502C23.9994 54.0655 23.8376 53.2566 23.7752 52.4239C23.4518 52.4239 23.1281 52.4239 22.8047 52.4239C22.8047 52.7473 22.8047 53.071 22.8047 53.3944C22.1576 53.3944 21.5108 53.3944 20.8637 53.3944C20.9272 53.0358 20.8464 52.7124 20.621 52.4239C20.5213 52.6088 20.481 52.8514 20.4997 53.1518C20.4189 53.071 20.3379 52.9899 20.2571 52.9091C20.2185 53.3563 20.0972 53.5179 19.8931 53.3944C19.8152 53.0188 19.5726 52.857 19.1652 52.9091C18.9937 53.3291 18.751 53.7334 18.4373 54.1223C18.5181 54.2841 18.5992 54.4457 18.68 54.6076C17.4775 54.8488 16.2643 54.9296 15.0405 54.8502C15.1152 55.4384 15.0341 56.0044 14.7978 56.5486C14.6556 56.4979 14.5343 56.4169 14.4339 56.306C13.9852 57.2773 13.6213 58.2478 13.342 59.2176C13.3813 58.7258 13.3408 58.2405 13.2207 57.7618C12.0549 57.4825 11.6504 57.9678 12.0075 59.2176C12.3366 59.4311 12.7005 59.5122 13.0994 59.4602C12.6677 59.7208 12.2633 60.0443 11.8862 60.4308C11.7195 60.0003 11.5174 59.5959 11.2796 59.2176C11.1988 59.4602 11.1178 59.7029 11.037 59.9455C9.76537 60.6217 9.15879 60.2173 9.21726 58.7323C8.89383 58.7323 8.57016 58.7323 8.24673 58.7323C8.24673 58.4089 8.24673 58.0852 8.24673 57.7618C6.34745 57.6526 4.48725 57.8145 2.66617 58.2471C2.70598 58.899 2.66554 59.5461 2.54485 60.1881C2.29834 59.913 2.13657 59.9938 2.05959 60.4308C1.97872 61.8866 1.89782 63.3424 1.81695 64.7982C1.61513 60.5955 1.49381 60.5955 1.453 64.7982C1.13741 61.9984 1.13741 59.1679 1.453 56.306C1.65638 56.223 1.73727 56.0614 1.69564 55.8207C1.93325 56.1277 2.17588 56.4513 2.42354 56.7913C2.60386 56.4496 2.80607 56.1262 3.03012 55.8207C3.11099 56.0634 3.19188 56.306 3.27275 56.5486C3.39324 55.9882 3.43369 55.4221 3.39407 54.8502C3.71757 54.8502 4.0411 54.8502 4.3646 54.8502C4.3646 54.5268 4.3646 54.2031 4.3646 53.8797C5.03854 53.7637 5.5238 54.0063 5.8204 54.6076C6.4734 54.0015 6.39253 53.4757 5.57777 53.0305C6.14706 53.0496 6.67277 53.2517 7.15488 53.637C7.30463 53.4068 7.26421 53.2047 7.03356 53.0305C9.74086 52.7417 12.4098 52.2162 15.0405 51.4533C15.0405 51.2107 15.0405 50.9681 15.0405 50.7254C15.3639 50.7254 15.6876 50.7254 16.011 50.7254C15.9714 50.1536 16.0117 49.5875 16.1323 49.027C16.5302 48.5226 16.8131 47.9565 16.9815 47.3286C16.7813 47.1136 16.5387 47.0328 16.2536 47.086C16.2536 46.4389 16.2536 45.792 16.2536 45.1449C16.5771 45.1449 16.9007 45.1449 17.2242 45.1449C17.2166 44.1782 17.3785 43.2482 17.7094 42.3546C17.5891 41.8703 17.3464 41.4658 16.9815 41.1414C17.2115 41.0243 17.4542 40.984 17.7094 41.0201C17.7094 41.2628 17.7094 41.5054 17.7094 41.748C18.4427 41.6743 19.1706 41.5529 19.8931 41.3841C19.5794 41.2652 19.2557 41.2247 18.9226 41.2628C18.7918 40.4875 19.0344 39.881 19.6505 39.443C20.6989 39.3219 21.7502 39.2814 22.8047 39.3217C22.8047 39.0791 22.8047 38.8364 22.8047 38.5938C23.1281 38.5938 23.4518 38.5938 23.7752 38.5938C23.7752 38.8364 23.7752 39.0791 23.7752 39.3217C24.2486 39.3879 24.6126 39.2263 24.8671 38.8364C24.9797 38.9806 25.0202 39.1424 24.9884 39.3217Z" fill="#031732"/>
<path fill-rule="evenodd" clip-rule="evenodd" d="M19.1653 52.9091C19.5727 52.857 19.8153 53.0188 19.8932 53.3944C19.4858 53.4466 19.2432 53.2847 19.1653 52.9091Z" fill="#031732"/>
<path fill-rule="evenodd" clip-rule="evenodd" d="M60.6557 54.8502C60.1705 54.8502 59.6852 54.8502 59.1999 54.8502C59.1999 54.5268 59.1999 54.2031 59.1999 53.8797C58.7166 53.8379 58.3124 53.9998 57.9868 54.3649C57.4591 53.185 57.2164 53.3466 57.2589 54.8502C56.7736 54.8502 56.2883 54.8502 55.8031 54.8502C55.8031 55.1736 55.8031 55.4973 55.8031 55.8207C55.4797 55.8207 55.156 55.8207 54.8326 55.8207C54.8326 56.1442 54.8326 56.4678 54.8326 56.7913C54.5091 56.7913 54.1854 56.7913 53.862 56.7913C53.862 57.1147 53.862 57.4384 53.862 57.7618C53.3886 57.6956 53.0247 57.8572 52.7702 58.2471C52.6894 58.1663 52.6083 58.0852 52.5275 58.0044C51.7392 59.3993 50.5663 60.2888 49.0094 60.6734C48.7395 60.859 48.5777 61.1017 48.5241 61.4013C48.2237 61.18 47.9 61.1395 47.5536 61.28C46.9077 62.0042 46.1798 62.6108 45.3699 63.0997C45.3905 62.737 45.2289 62.4944 44.8846 62.3718C44.5769 62.597 44.2535 62.6375 43.9141 62.4932C44.7427 62.2158 44.8237 61.8114 44.1567 61.28C44.4546 61.091 44.6973 60.8483 44.8846 60.5521C44.8676 60.3665 44.7868 60.2452 44.642 60.1881C46.8244 58.734 49.0081 57.2782 51.1931 55.8207C52.4356 55.7698 53.3656 55.1229 53.9833 53.8797C54.3458 54.1822 54.7098 54.1822 55.0752 53.8797C55.1434 53.3563 55.5073 52.9521 56.167 52.6665C56.6128 52.7065 57.098 52.8684 57.6228 53.1518C58.2398 52.7068 58.2804 52.1407 57.7441 51.4533C58.4245 51.0649 59.1524 50.8223 59.9278 50.7254C59.9798 51.1243 59.8987 51.4883 59.6852 51.8173C60.0232 52.1014 60.2256 52.4654 60.2918 52.9091C60.3578 53.5774 60.4791 54.2245 60.6557 54.8502Z" fill="#031732"/>
<path fill-rule="evenodd" clip-rule="evenodd" d="M103.844 67.4671C103.743 67.2919 103.581 67.1706 103.359 67.1032C103.44 67.0224 103.521 66.9413 103.602 66.8605C104.354 66.6327 105.082 66.3498 105.785 66.0113C106.512 65.8078 107.199 65.4841 107.848 65.0408C108.035 65.076 108.197 65.1568 108.333 65.2834C108.742 64.7494 109.227 64.5878 109.789 64.7982C110.136 63.7949 110.257 62.7435 110.153 61.6439C109.506 61.6439 108.859 61.6439 108.212 61.6439C108.212 60.6734 108.212 59.7029 108.212 58.7323C107.399 58.7724 106.59 58.7319 105.785 58.611C105.224 58.1284 104.578 57.8453 103.844 57.7618C106.135 57.1739 108.318 56.3247 110.395 55.2142C111.627 54.5882 112.76 53.8197 113.792 52.9091C114.31 53.145 114.594 53.5495 114.641 54.1223C115.288 56.4538 115.369 58.7993 114.884 61.1587C114.59 61.9494 114.146 62.6368 113.55 63.221C110.454 64.993 107.219 66.4083 103.844 67.4671Z" fill="#031732"/>
<path fill-rule="evenodd" clip-rule="evenodd" d="M36.3923 55.0928C38.3426 55.5002 40.2026 56.1876 41.9729 57.1552C42.6088 59.2074 41.8809 60.0972 39.7892 59.8242C38.3443 58.8794 36.848 58.0302 35.3005 57.2765C35.1493 56.2847 35.5133 55.5568 36.3923 55.0928Z" fill="#031732"/>
<path fill-rule="evenodd" clip-rule="evenodd" d="M104.087 53.1518C104.479 53.2823 104.884 53.3631 105.3 53.3944C105.199 54.0202 105.361 54.546 105.785 54.9715C104.501 55.3297 103.288 55.8149 102.146 56.4273C100.706 56.7639 99.2499 57.0065 97.7785 57.1552C97.8593 57.236 97.9404 57.3171 98.0212 57.3979C96.0076 57.9608 93.9855 58.5268 91.9554 59.0963C91.8445 59.1968 91.7634 59.3181 91.7127 59.4603C91.9165 59.7599 92.1592 60.0025 92.4406 60.1881C91.8891 60.299 91.5657 60.6225 91.4701 61.1587C90.9647 61.7029 90.6007 62.35 90.3782 63.0997C90.181 62.63 90.0597 62.1447 90.0143 61.6439C89.9852 61.3804 89.8233 61.2186 89.529 61.1587C88.302 61.4855 87.0889 61.8495 85.8895 62.2505C85.6864 62.4958 85.6056 62.779 85.6469 63.0997C85.9718 63.7602 85.7291 64.1647 84.919 64.3129C84.671 64.2268 84.5092 64.0649 84.4337 63.8276C84.4337 63.5042 84.4337 63.1805 84.4337 62.8571C83.544 63.019 82.6545 63.1805 81.7648 63.3424C81.75 62.8348 81.5073 62.4708 81.0369 62.2505C81.6214 61.9591 82.1066 61.5549 82.4927 61.0374C83.1398 60.7139 83.7866 60.3903 84.4337 60.0668C85.9863 60.0748 87.4421 59.7109 88.8011 58.975C89.0709 58.7894 89.2328 58.5467 89.2864 58.2471C92.4547 56.9895 95.6897 55.8571 98.9917 54.8502C100.705 54.3329 102.404 53.7669 104.087 53.1518Z" fill="#031732"/>
<path fill-rule="evenodd" clip-rule="evenodd" d="M13.3422 59.2176C13.3422 59.3795 13.2614 59.4602 13.0995 59.4602C12.7007 59.5122 12.3367 59.4311 12.0077 59.2176C11.6505 57.9678 12.055 57.4825 13.2209 57.7618C13.341 58.2405 13.3815 58.7258 13.3422 59.2176Z" fill="#ECF3F5"/>
<path fill-rule="evenodd" clip-rule="evenodd" d="M103.844 57.7618C104.578 57.8453 105.225 58.1284 105.785 58.611C106.59 58.7319 107.399 58.7724 108.212 58.7323C108.212 59.7029 108.212 60.6734 108.212 61.6439C108.859 61.6439 109.506 61.6439 110.153 61.6439C110.257 62.7436 110.136 63.7949 109.789 64.7982C109.227 64.5878 108.742 64.7494 108.333 65.2834C108.197 65.1568 108.035 65.076 107.848 65.0408C107.2 65.4841 106.512 65.8078 105.785 66.0113C105.991 65.6248 106.315 65.3417 106.756 65.1621C106.171 65.0447 105.604 65.1257 105.058 65.4048C103.523 65.5261 101.986 65.5663 100.448 65.5261C100.448 65.8495 100.448 66.1732 100.448 66.4966C99.7197 66.4966 98.9918 66.4966 98.2639 66.4966C98.2639 66.7392 98.2639 66.9819 98.2639 67.2245C97.561 67.2684 96.8736 67.1876 96.2015 66.9819C95.7791 67.456 95.2533 67.6986 94.6244 67.7098C94.6244 67.9524 94.6244 68.195 94.6244 68.4377C92.6833 68.4377 90.7422 68.4377 88.8012 68.4377C88.8012 68.7611 88.8012 69.0848 88.8012 69.4082C87.497 69.3286 86.2031 69.4094 84.919 69.6508C84.2064 70.1587 83.5593 70.7247 82.978 71.3493C82.7526 71.6378 82.6718 71.9612 82.7353 72.3198C81.5222 72.3198 80.309 72.3198 79.0959 72.3198C79.1354 72.8917 79.0951 73.4577 78.9745 74.0182C78.6533 74.3531 78.3299 74.4341 78.004 74.2609C77.8851 74.5746 77.8446 74.8983 77.8827 75.2314C77.1798 75.2753 76.4924 75.1945 75.8203 74.9888C75.2441 75.0659 74.9609 75.3893 74.9711 75.9593C74.093 76.1398 73.2035 76.2206 72.3021 76.2019C72.2213 75.5548 72.1403 74.908 72.0595 74.2609C70.75 74.33 69.456 74.249 68.1774 74.0182C67.9942 73.2534 67.7515 72.5255 67.4495 71.8345C67.7122 71.8251 67.9549 71.744 68.1774 71.5919C69.1678 72.1024 70.2191 72.345 71.3316 72.3198C71.2734 71.5727 71.3542 70.8448 71.5742 70.1361C70.899 69.4465 70.9798 68.84 71.8169 68.3164C71.7361 68.2356 71.655 68.1545 71.5742 68.0737C72.7588 68.3321 73.9719 68.4129 75.2137 68.3164C75.0519 68.2356 74.8903 68.1545 74.7285 68.0737C75.3756 67.9119 76.0224 67.7503 76.6695 67.5885C78.2362 66.5269 79.9346 65.9609 81.7648 65.89C81.4414 65.8092 81.1177 65.7282 80.7943 65.6474C81.2007 65.4084 81.6052 65.206 82.0074 65.0408C82.9292 64.9035 83.7379 64.499 84.4338 63.8276C84.5092 64.0649 84.6711 64.2268 84.919 64.3129C85.7292 64.1647 85.9718 63.7602 85.6469 63.0997C86.7543 63.4321 87.8462 63.3514 88.9225 62.8571C89.5133 62.6315 89.8773 62.227 90.0143 61.6439C90.0597 62.1447 90.181 62.63 90.3783 63.0997C90.6008 62.35 90.9647 61.7029 91.4701 61.1587C91.632 61.2395 91.7936 61.3205 91.9554 61.4013C92.8679 61.7614 93.8385 62.004 94.867 62.1292C95.2142 62.0135 95.5376 61.8519 95.8375 61.6439C96.0676 61.0509 96.4315 60.5657 96.9294 60.1881C98.506 60.6785 99.9213 60.3954 101.175 59.3389C101.442 59.1521 101.442 58.95 101.175 58.7323C101.942 58.1258 102.832 57.8023 103.844 57.7618Z" fill="#031732"/>
<path fill-rule="evenodd" clip-rule="evenodd" d="M31.2971 58.7323C33.276 59.1298 35.015 60.0195 36.5137 61.4013C36.704 63.1521 35.9358 63.9203 34.2087 63.7063C32.8922 62.9471 31.6385 62.0979 30.4479 61.1587C30.2861 60.5926 30.2861 60.0263 30.4479 59.4602C30.8162 59.2994 31.0994 59.0567 31.2971 58.7323Z" fill="#031732"/>
<path fill-rule="evenodd" clip-rule="evenodd" d="M95.8374 59.4602C96.1739 59.9428 96.0929 60.3876 95.5947 60.7947C94.4282 61.254 93.215 61.4564 91.9552 61.4013C91.7934 61.3205 91.6318 61.2395 91.47 61.1587C91.5656 60.6224 91.889 60.299 92.4405 60.1881C93.5287 59.7446 94.6611 59.502 95.8374 59.4602Z" fill="#ECF3F5"/>
<path fill-rule="evenodd" clip-rule="evenodd" d="M97.0506 58.7323C96.7337 58.967 96.5719 59.2906 96.5654 59.7029C97.2173 59.7427 97.8644 59.7021 98.5064 59.5815C99.4012 59.2947 100.291 59.0118 101.175 58.7323C101.442 58.95 101.442 59.1521 101.175 59.3389C99.9212 60.3953 98.5059 60.6785 96.9293 60.1881C96.4314 60.5657 96.0675 61.0509 95.8375 61.6439C95.5376 61.8519 95.2141 62.0135 94.8669 62.1292C93.8384 62.004 92.8679 61.7614 91.9553 61.4013C93.2151 61.4564 94.4282 61.254 95.5948 60.7947C96.0929 60.3876 96.174 59.9428 95.8375 59.4602C95.8375 59.2176 95.8375 58.975 95.8375 58.7323C96.2419 58.7323 96.6461 58.7323 97.0506 58.7323Z" fill="#031732"/>
<path fill-rule="evenodd" clip-rule="evenodd" d="M89.2865 58.2471C89.2328 58.5467 89.071 58.7894 88.8012 58.975C87.4422 59.7109 85.9864 60.0748 84.4338 60.0668C83.7867 60.3903 83.1398 60.7139 82.4927 61.0374C82.1067 61.5549 81.6214 61.9591 81.0369 62.2505C81.5074 62.4708 81.75 62.8348 81.7648 63.3424C81.1634 63.6566 80.5163 63.8992 79.8238 64.0703C78.5749 64.4325 77.3618 64.837 76.1843 65.2834C74.4774 65.669 72.8597 66.2756 71.3316 67.1032C70.8529 67.2233 70.3676 67.2638 69.8758 67.2245C68.5751 67.184 67.3619 66.8606 66.2363 66.254C66.4045 66.007 66.5661 65.7643 66.7216 65.5261C67.566 65.1095 68.4557 64.786 69.3906 64.5555C70.0546 64.4684 70.5399 64.1448 70.8464 63.585C70.9475 63.7364 71.1094 63.8172 71.3316 63.8276C71.8169 63.7063 72.3022 63.585 72.7874 63.4637C78.2277 61.5559 83.7275 59.8172 89.2865 58.2471Z" fill="#031732"/>
<path fill-rule="evenodd" clip-rule="evenodd" d="M90.0142 61.6439C89.8771 62.227 89.5132 62.6315 88.9224 62.8571C87.846 63.3513 86.7542 63.4321 85.6468 63.0997C85.6056 62.779 85.6864 62.4958 85.8894 62.2505C87.0888 61.8494 88.3019 61.4855 89.5289 61.1587C89.8233 61.2186 89.9851 61.3804 90.0142 61.6439Z" fill="#ECF3F5"/>
<path fill-rule="evenodd" clip-rule="evenodd" d="M31.0543 66.9819C30.8444 67.5101 30.4399 67.7527 29.8411 67.7098C28.9264 67.5242 28.1175 67.1197 27.4148 66.4966C27.1224 66.7579 26.9606 67.0814 26.9295 67.4671C25.4114 70.1519 24.7643 73.0635 24.9885 76.2019C24.1805 76.2912 23.3718 76.1699 22.5621 75.838C22.8824 74.9643 22.8824 74.115 22.5621 73.2903C22.7698 71.5594 23.1338 69.861 23.654 68.195C24.0941 66.8693 24.8623 65.7774 25.959 64.9195C25.4533 64.5553 25.1299 64.07 24.9885 63.4637C25.5072 62.146 26.3969 61.8225 27.6574 62.4932C28.3853 63.0592 29.1132 63.6255 29.8411 64.1916C30.9094 64.828 31.3137 65.7583 31.0543 66.9819Z" fill="#031732"/>
<path fill-rule="evenodd" clip-rule="evenodd" d="M50.465 63.585C51.945 65.3293 53.4816 67.0277 55.075 68.6803C55.075 68.8421 55.075 69.0037 55.075 69.1656C51.403 70.2644 47.7635 71.3966 44.1565 72.5624C43.5094 72.6432 42.8626 72.7243 42.2155 72.8051C41.5142 72.8589 40.8671 72.6971 40.2744 72.3198C39.5516 72.5275 39.2282 72.2041 39.3039 71.3493C39.6273 71.3493 39.951 71.3493 40.2744 71.3493C40.2344 70.4559 40.2746 69.5664 40.3957 68.6803C41.0554 68.4513 41.7428 68.3705 42.4581 68.4377C42.3598 67.5768 42.4811 66.7681 42.822 66.0113C43.5024 66.4587 44.2706 66.6206 45.1271 66.4966C45.1321 65.7602 45.4556 65.1941 46.0976 64.7982C46.7119 64.648 47.278 64.4053 47.796 64.0703C47.9416 63.5666 48.0224 63.0813 48.0386 62.6145C48.2005 62.5337 48.3621 62.4526 48.5239 62.3718C49.0165 62.8831 49.5422 63.3683 50.101 63.8276C50.194 63.6927 50.3153 63.6119 50.465 63.585Z" fill="#ECF3F5"/>
<path fill-rule="evenodd" clip-rule="evenodd" d="M84.4336 63.8276C83.7377 64.499 82.929 64.9035 82.0073 65.0408C81.1818 65.0025 80.3729 65.0835 79.5809 65.2834C79.2762 65.2929 79.0335 65.1716 78.853 64.9195C79.2395 64.6892 79.563 64.4063 79.8236 64.0703C80.516 63.8992 81.1631 63.6566 81.7646 63.3424C82.6544 63.1805 83.5439 63.0189 84.4336 62.8571C84.4336 63.1805 84.4336 63.5042 84.4336 63.8276Z" fill="#ECF3F5"/>
<path fill-rule="evenodd" clip-rule="evenodd" d="M69.3904 64.5555C68.4555 64.786 67.5658 65.1095 66.7214 65.5261C67.1166 65.1146 67.0358 64.8719 66.4788 64.7982C67.0247 64.3447 67.6715 64.1021 68.4198 64.0703C68.8646 64.0909 69.188 64.2527 69.3904 64.5555Z" fill="#031732"/>
<path fill-rule="evenodd" clip-rule="evenodd" d="M79.8237 64.0703C79.5631 64.4063 79.2397 64.6892 78.8532 64.9195C79.0337 65.1716 79.2763 65.2929 79.5811 65.2834C79.1528 65.5166 78.6676 65.5976 78.1253 65.5261C77.5313 65.29 76.8842 65.2092 76.1842 65.2834C77.3617 64.837 78.5749 64.4325 79.8237 64.0703Z" fill="#031732"/>
<path fill-rule="evenodd" clip-rule="evenodd" d="M14.07 70.1361C14.0554 69.5244 14.217 68.9584 14.5553 68.4377C14.4781 68.1594 14.3165 67.957 14.07 67.8311C14.2525 67.6683 14.3335 67.4662 14.3126 67.2245C16.8858 65.504 19.7166 64.6143 22.8048 64.5555C22.807 64.9942 22.6857 65.3987 22.4408 65.7687C19.8478 67.571 17.0575 69.0268 14.07 70.1361Z" fill="#031732"/>
<path fill-rule="evenodd" clip-rule="evenodd" d="M76.1843 65.2834C76.8843 65.2092 77.5314 65.29 78.1254 65.5261C77.6086 65.9208 77.1233 66.3656 76.6696 66.8605C74.8547 67.4011 72.9944 67.7246 71.089 67.8311C69.6509 69.1483 67.9525 69.957 65.9937 70.2574C64.4275 70.4811 64.1849 70.0361 65.2658 68.9229C66.8085 68.3015 68.3453 67.7355 69.8759 67.2245C70.3677 67.2638 70.853 67.2233 71.3317 67.1032C72.8598 66.2756 74.4774 65.669 76.1843 65.2834Z" fill="#ECF3F5"/>
<path fill-rule="evenodd" clip-rule="evenodd" d="M66.4787 64.7982C67.0358 64.8719 67.1166 65.1146 66.7214 65.5261C64.4785 66.2486 62.2137 66.8955 59.9276 67.4671C59.6042 67.4671 59.4424 67.3053 59.4424 66.9819C61.7498 66.1419 64.0954 65.414 66.4787 64.7982Z" fill="#031732"/>
<path fill-rule="evenodd" clip-rule="evenodd" d="M44.6419 60.1881C44.7868 60.2452 44.8676 60.3665 44.8846 60.5521C44.6973 60.8483 44.4546 61.091 44.1567 61.28C44.8237 61.8113 44.7426 62.2158 43.914 62.4931C44.2535 62.6375 44.5769 62.597 44.8846 62.3718C45.2289 62.4944 45.3905 62.737 45.3698 63.0997C42.112 65.0995 38.877 67.1619 35.6645 69.2869C34.5164 70.7495 33.8695 72.4074 33.7234 74.2609C33.1574 74.2609 32.5911 74.2609 32.025 74.2609C31.6176 74.313 31.375 74.1512 31.2971 73.7756C31.3221 70.6512 32.6163 68.2249 35.1792 66.4966C38.2015 64.2035 41.3557 62.1006 44.6419 60.1881Z" fill="#031732"/>
<path fill-rule="evenodd" clip-rule="evenodd" d="M59.4425 66.9819C59.4425 67.3053 59.6043 67.4671 59.9277 67.4671C58.3011 67.9563 56.6837 68.5223 55.0751 69.1656C55.0751 69.0037 55.0751 68.8421 55.0751 68.6803C56.4088 67.8537 57.8646 67.2873 59.4425 66.9819Z" fill="#031732"/>
<path fill-rule="evenodd" clip-rule="evenodd" d="M66.7215 65.5261C66.566 65.7643 66.4044 66.007 66.2362 66.254C67.3618 66.8606 68.575 67.184 69.8757 67.2245C68.3452 67.7355 66.8084 68.3015 65.2657 68.9229C64.3536 68.4641 63.6663 68.7067 63.2033 69.6508C62.7845 69.3898 62.3398 69.3492 61.8688 69.5295C61.9496 69.6103 62.0307 69.6914 62.1115 69.7721C61.3833 69.9512 60.7362 70.2341 60.1704 70.6214C59.2739 71.0901 58.3033 71.4136 57.2588 71.5919C57.0725 71.777 56.9511 72.0197 56.8949 72.3198C56.568 71.8428 56.2041 71.762 55.803 72.0772C53.4276 72.6265 51.0821 73.2736 48.7666 74.0182C48.4607 73.4446 48.0159 73.2828 47.4322 73.533C46.8867 73.4121 46.4015 73.1695 45.9764 72.8051C45.7459 72.9317 45.5435 73.0936 45.3698 73.2903C45.0723 72.8589 44.6678 72.6163 44.1566 72.5624C47.7636 71.3966 51.4031 70.2645 55.0751 69.1656C56.6838 68.5223 58.3012 67.9563 59.9278 67.4671C62.2139 66.8955 64.4786 66.2486 66.7215 65.5261Z" fill="#031732"/>
<path fill-rule="evenodd" clip-rule="evenodd" d="M58.4721 72.8051C58.1486 72.8051 57.825 72.8051 57.5015 72.8051C57.4702 72.3887 57.3894 71.9842 57.2589 71.5919C58.3034 71.4136 59.274 71.0901 60.1705 70.6214C61.06 70.5102 61.9092 70.2676 62.7182 69.8935C62.9142 70.3979 62.8737 70.8832 62.5968 71.3493C61.249 71.9333 59.874 72.4185 58.4721 72.8051Z" fill="#ECF3F5"/>
<path fill-rule="evenodd" clip-rule="evenodd" d="M82.0075 65.0408C81.6052 65.206 81.2007 65.4084 80.7943 65.6474C81.1177 65.7282 81.4414 65.8092 81.7648 65.89C79.9347 65.9609 78.2362 66.5269 76.6695 67.5884C76.0224 67.7503 75.3756 67.9119 74.7285 68.0737C74.8903 68.1545 75.0519 68.2355 75.2137 68.3163C73.972 68.4129 72.7588 68.3321 71.5743 68.0737C71.655 68.1545 71.7361 68.2355 71.8169 68.3163C70.9798 68.8399 70.899 69.4465 71.5743 70.1361C71.3542 70.8448 71.2734 71.5727 71.3316 72.3198C70.2191 72.345 69.1678 72.1024 68.1774 71.5919C67.9549 71.744 67.7123 71.8251 67.4495 71.8345C66.5056 72.1446 65.6159 72.5896 64.7805 73.169C64.567 73.498 64.486 73.862 64.5379 74.2608C63.5674 74.2608 62.5968 74.2608 61.6263 74.2608C61.7352 73.6598 61.5736 73.1746 61.141 72.805C60.6975 73.1193 60.2122 73.3619 59.6852 73.5329C60.0087 73.6948 60.3323 73.8564 60.6558 74.0182C59.083 73.8372 58.1125 74.4841 57.7442 75.9593C56.7819 76.1199 55.8114 76.2007 54.8326 76.2019C54.8326 76.5253 54.8326 76.849 54.8326 77.1724C54.5091 77.1724 54.1855 77.1724 53.862 77.1724C53.862 77.4959 53.862 77.8195 53.862 78.143C51.7591 78.143 49.6565 78.143 47.5536 78.143C47.5536 77.8195 47.5536 77.4959 47.5536 77.1724C47.0525 77.1683 46.5673 77.0875 46.0978 76.9298C46.1992 76.7546 46.3608 76.6333 46.583 76.5659C46.5022 76.4851 46.4212 76.404 46.3404 76.3232C48.5741 76.2162 50.7578 75.8523 52.8915 75.2314C52.7738 74.5976 52.9762 74.5976 53.4981 75.2314C54.4769 74.6083 55.5687 74.3251 56.7736 74.3822C56.6628 74.2817 56.5817 74.1604 56.531 74.0182C56.8789 73.6009 57.081 73.1156 57.1376 72.5624C57.2548 72.7924 57.2951 73.0351 57.2589 73.2903C57.7507 73.3296 58.236 73.2891 58.7147 73.169C58.5798 73.0761 58.499 72.9548 58.4721 72.805C59.874 72.4185 61.249 71.9333 62.5968 71.3493C62.8737 70.8832 62.9142 70.3979 62.7181 69.8935C61.9092 70.2676 61.06 70.5102 60.1705 70.6214C60.7363 70.2341 61.3834 69.9512 62.1116 69.7721C62.0308 69.6913 61.9497 69.6103 61.8689 69.5295C62.3399 69.3492 62.7846 69.3897 63.2034 69.6508C63.6664 68.7067 64.3537 68.4641 65.2658 68.9229C64.1849 70.0361 64.4275 70.4811 65.9937 70.2574C67.9525 69.957 69.6509 69.1483 71.089 67.8311C72.9944 67.7246 74.8547 67.4011 76.6695 66.8605C77.1233 66.3656 77.6085 65.9208 78.1253 65.5261C78.6676 65.5976 79.1529 65.5166 79.5811 65.2834C80.3731 65.0835 81.182 65.0025 82.0075 65.0408Z" fill="#031732"/>
<path fill-rule="evenodd" clip-rule="evenodd" d="M44.1566 72.5624C44.6678 72.6163 45.0723 72.8589 45.3698 73.2903C45.5435 73.0935 45.7459 72.9317 45.9764 72.8051C46.4015 73.1695 46.8867 73.4121 47.4322 73.533C48.0159 73.2828 48.4607 73.4446 48.7666 74.0182C47.9866 74.1165 47.2587 74.3591 46.5829 74.7461C46.0496 74.8371 45.5644 74.9989 45.1271 75.2314C44.1566 75.3932 43.1861 75.5548 42.2155 75.7167C41.2753 75.6817 40.3453 75.7628 39.4253 75.9593C39.1567 75.9387 38.914 75.8576 38.6974 75.7167C38.6442 75.3677 38.5229 75.0443 38.3334 74.7461C36.7514 75.0572 35.2149 74.9764 33.7234 74.5035C36.6651 74.3531 39.4956 73.787 42.2155 72.8051C42.8626 72.7243 43.5095 72.6432 44.1566 72.5624Z" fill="#031732"/>
<path fill-rule="evenodd" clip-rule="evenodd" d="M55.8031 72.0772C56.0363 72.5054 56.1173 72.9907 56.0457 73.533C53.4961 74.0721 50.989 74.7595 48.5241 75.5953C47.7962 75.6761 47.0683 75.7572 46.3404 75.838C45.6004 76.4453 44.7917 76.89 43.9141 77.1725C42.4466 77.5315 40.9506 77.7742 39.4254 77.9004C38.3146 78.1709 37.789 77.7667 37.8482 76.6872C39.3489 76.4327 40.8047 76.109 42.2156 75.7167C43.1862 75.5548 44.1567 75.3932 45.1272 75.2314C45.6045 75.1734 46.0495 75.2542 46.4617 75.474C46.5789 75.244 46.6192 75.0014 46.583 74.7461C47.2588 74.3591 47.9867 74.1165 48.7667 74.0182C51.0822 73.2736 53.4277 72.6265 55.8031 72.0772Z" fill="#ECF3F5"/>
<path fill-rule="evenodd" clip-rule="evenodd" d="M57.2589 71.5919C57.3894 71.9842 57.4702 72.3887 57.5015 72.8051C57.8249 72.8051 58.1486 72.8051 58.472 72.8051C58.499 72.9548 58.5798 73.0761 58.7147 73.169C58.236 73.2891 57.7507 73.3296 57.2589 73.2903C57.295 73.0351 57.2548 72.7924 57.1376 72.5624C57.081 73.1156 56.8789 73.6009 56.531 74.0182C56.5817 74.1604 56.6627 74.2817 56.7736 74.3822C55.5687 74.3252 54.4769 74.6083 53.4981 75.2314C52.9762 74.5976 52.7738 74.5976 52.8915 75.2314C50.7578 75.8523 48.5741 76.2162 46.3404 76.3232C46.4212 76.404 46.5022 76.4851 46.583 76.5659C46.3608 76.6333 46.1992 76.7546 46.0978 76.9298C45.3808 77.0897 44.6529 77.1705 43.9141 77.1725C44.7917 76.89 45.6004 76.4453 46.3404 75.838C47.0683 75.7572 47.7962 75.6761 48.5241 75.5953C50.989 74.7595 53.4961 74.0721 56.0457 73.533C56.1173 72.9907 56.0363 72.5054 55.8031 72.0772C56.2042 71.762 56.5681 71.8428 56.8949 72.3198C56.9512 72.0197 57.0725 71.777 57.2589 71.5919Z" fill="#031732"/>
<path fill-rule="evenodd" clip-rule="evenodd" d="M14.3128 67.2245C14.3337 67.4662 14.2526 67.6683 14.0702 67.8311C14.3167 67.957 14.4783 68.1594 14.5555 68.4377C14.2172 68.9584 14.0556 69.5244 14.0702 70.1361C13.8276 70.2979 13.5849 70.4595 13.3423 70.6214C10.5547 71.4063 8.20914 72.8621 6.30593 74.9888C5.97422 74.6605 5.73159 74.7415 5.57803 75.2314C5.66191 75.5216 5.78322 75.5216 5.94198 75.2314C6.09459 76.1723 5.85196 76.9813 5.21408 77.6577C4.76926 77.0511 4.24355 76.5253 3.63696 76.0806C3.94792 75.5272 4.10966 74.9206 4.12223 74.2609C5.22381 72.8761 6.51784 71.7035 8.00436 70.7427C10.0041 69.3791 12.1068 68.2062 14.3128 67.2245Z" fill="#031732"/>
<path fill-rule="evenodd" clip-rule="evenodd" d="M22.5623 73.2903C22.8826 74.115 22.8826 74.9642 22.5623 75.838C23.372 76.1699 24.1807 76.2912 24.9886 76.2019C25.2293 76.2437 25.3909 76.1626 25.4739 75.9593C27.3123 75.5585 29.1726 75.235 31.0545 74.9888C30.9855 74.5241 31.0663 74.1199 31.2971 73.7756C31.375 74.1512 31.6176 74.313 32.025 74.2609C32.2941 74.4525 32.6175 74.5739 32.9955 74.6248C32.3717 74.8434 31.8056 75.1668 31.2971 75.5953C31.5271 75.7125 31.7697 75.7528 32.025 75.7167C31.9871 76.5986 31.7042 76.6794 31.1758 75.9593C31.0559 76.3557 31.0156 76.7602 31.0545 77.1725C31.5191 77.1035 31.9233 77.1843 32.2676 77.4151C30.4833 78.0314 28.623 78.4356 26.6871 78.6282C25.3436 78.3109 23.9686 78.3109 22.5623 78.6282C21.9919 78.2087 21.3448 78.0469 20.6212 78.143C20.6904 77.7092 20.6096 77.3047 20.3786 76.9298C19.5881 76.7073 18.7794 76.6263 17.9523 76.6872C19.2831 76.4865 20.6581 76.3652 22.077 76.3232C22.2624 75.3219 22.4242 74.3111 22.5623 73.2903Z" fill="#031732"/>
<path fill-rule="evenodd" clip-rule="evenodd" d="M4.122 74.2608C4.10943 74.9206 3.94769 75.5272 3.63673 76.0806C4.24332 76.5253 4.76903 77.0511 5.21385 77.6577C5.85173 76.9813 6.09436 76.1723 5.94175 75.2314C5.78299 75.5216 5.66168 75.5216 5.5778 75.2314C5.73136 74.7415 5.97399 74.6605 6.3057 74.9887C6.26942 75.244 6.30987 75.4866 6.42701 75.7166C7.77855 76.2851 9.194 76.5278 10.6731 76.4445C13.0868 76.675 15.5131 76.7561 17.9521 76.6872C18.7792 76.6263 19.5879 76.7073 20.3784 76.9298C20.6094 77.3047 20.6902 77.7092 20.621 78.143C21.3446 78.0469 21.9917 78.2087 22.5621 78.6282C23.9684 78.3109 25.3434 78.3109 26.6869 78.6282C19.0701 79.3438 11.4677 79.263 3.87937 78.3856C3.17083 78.0513 2.48338 77.6468 1.81699 77.1724C1.71765 76.6399 1.83897 76.1546 2.18094 75.7166C2.82797 75.2314 3.47497 74.7461 4.122 74.2608Z" fill="#031732"/>
<path fill-rule="evenodd" clip-rule="evenodd" d="M105.785 66.0113C105.082 66.3498 104.354 66.6327 103.602 66.8605C103.521 66.9413 103.44 67.0224 103.359 67.1032C103.581 67.1706 103.743 67.2919 103.844 67.4671C97.6189 69.5018 91.3912 71.5642 85.1616 73.6543C79.1715 75.2605 73.2675 77.0802 67.4494 79.1135C59.6102 81.6279 51.6843 83.8521 43.6714 85.7859C41.6692 86.2275 39.6473 86.5107 37.6055 86.6351C37.6669 84.0889 37.303 81.5818 36.5137 79.1135C35.5723 77.384 34.157 76.818 32.2676 77.4151C31.9233 77.1843 31.5191 77.1035 31.0544 77.1724C31.0156 76.7602 31.0559 76.3557 31.1758 75.9593C31.7042 76.6794 31.9871 76.5986 32.025 75.7167C31.7697 75.7528 31.5271 75.7125 31.2971 75.5953C31.8056 75.1668 32.3717 74.8434 32.9955 74.6248C32.6175 74.5738 32.2941 74.4525 32.025 74.2609C32.591 74.2609 33.1573 74.2609 33.7234 74.2609C33.7234 74.3416 33.7234 74.4227 33.7234 74.5035C35.2149 74.9764 36.7515 75.0572 38.3334 74.7461C38.5229 75.0443 38.6442 75.3677 38.6974 75.7167C38.9141 75.8576 39.1567 75.9387 39.4253 75.9593C40.3454 75.7627 41.2754 75.6817 42.2156 75.7167C40.8047 76.109 39.3489 76.4327 37.8482 76.6872C37.789 77.7667 38.3145 78.1709 39.4253 77.9003C40.9505 77.7742 42.4466 77.5315 43.914 77.1724C44.6528 77.1705 45.3807 77.0897 46.0977 76.9298C46.5672 77.0875 47.0525 77.1683 47.5535 77.1724C47.5535 77.4959 47.5535 77.8196 47.5535 78.143C49.6564 78.143 51.7591 78.143 53.862 78.143C53.862 77.8196 53.862 77.4959 53.862 77.1724C54.1854 77.1724 54.5091 77.1724 54.8325 77.1724C54.8325 76.849 54.8325 76.5253 54.8325 76.2019C55.8113 76.2007 56.7818 76.1199 57.7441 75.9593C58.1124 74.4841 59.0829 73.8372 60.6557 74.0182C60.3323 73.8564 60.0086 73.6948 59.6851 73.533C60.2121 73.3619 60.6974 73.1193 61.1409 72.8051C61.5736 73.1746 61.7352 73.6599 61.6262 74.2609C62.5967 74.2609 63.5673 74.2609 64.5378 74.2609C64.4859 73.862 64.5669 73.498 64.7804 73.169C65.6158 72.5896 66.5056 72.1446 67.4494 71.8345C67.7515 72.5255 67.9941 73.2534 68.1773 74.0182C69.456 74.249 70.7499 74.33 72.0594 74.2609C72.1402 74.908 72.2213 75.5548 72.3021 76.2019C73.2035 76.2206 74.0929 76.1398 74.971 75.9593C74.9608 75.3893 75.244 75.0659 75.8202 74.9888C76.4923 75.1945 77.1797 75.2753 77.8826 75.2314C77.8445 74.8982 77.8851 74.5746 78.0039 74.2609C78.3298 74.4341 78.6532 74.3531 78.9745 74.0182C79.0951 73.4577 79.1353 72.8917 79.0958 72.3198C80.309 72.3198 81.5221 72.3198 82.7353 72.3198C82.6717 71.9612 82.7525 71.6377 82.9779 71.3493C83.5593 70.7247 84.2064 70.1587 84.919 69.6508C86.203 69.4094 87.497 69.3286 88.8011 69.4082C88.8011 69.0848 88.8011 68.7611 88.8011 68.4377C90.7422 68.4377 92.6833 68.4377 94.6243 68.4377C94.6243 68.195 94.6243 67.9524 94.6243 67.7098C95.2532 67.6986 95.779 67.456 96.2014 66.9819C96.8735 67.1876 97.5609 67.2684 98.2638 67.2245C98.2638 66.9819 98.2638 66.7392 98.2638 66.4966C98.9917 66.4966 99.7196 66.4966 100.448 66.4966C100.448 66.1732 100.448 65.8495 100.448 65.5261C101.986 65.5663 103.523 65.5261 105.058 65.4047C105.604 65.1257 106.17 65.0447 106.756 65.1621C106.315 65.3417 105.991 65.6248 105.785 66.0113Z" fill="#031732"/>
<path fill-rule="evenodd" clip-rule="evenodd" d="M46.5829 74.7461C46.619 75.0014 46.5787 75.244 46.4616 75.474C46.0493 75.2542 45.6043 75.1734 45.1271 75.2314C45.5643 74.9989 46.0496 74.8371 46.5829 74.7461Z" fill="#031732"/>
<path fill-rule="evenodd" clip-rule="evenodd" d="M111.609 74.2608C111.609 74.4227 111.609 74.5843 111.609 74.7461C109.834 78.1335 108.054 81.5304 106.271 84.9367C104.741 86.8576 103.326 88.8795 102.025 91.0025C101.519 91.702 100.913 92.2683 100.205 92.701C100.214 92.4382 100.295 92.1956 100.447 91.9731C100.225 91.7722 100.064 91.5295 99.9622 91.2452C100.286 90.8407 100.609 90.4365 100.933 90.032C100.836 89.6714 100.756 89.3075 100.69 88.9402C100.864 88.1353 101.107 87.3669 101.418 86.6351C100.977 85.767 100.896 84.8773 101.175 83.9662C101.834 84.2746 102.319 84.0724 102.631 83.3596C102.43 82.4648 102.834 82.02 103.844 82.0251C103.844 81.7017 103.844 81.378 103.844 81.0546C104.168 81.0546 104.491 81.0546 104.815 81.0546C104.815 80.7311 104.815 80.4075 104.815 80.084C105.298 80.0423 105.702 80.2041 106.028 80.5693C106.354 80.2041 106.758 80.0423 107.241 80.084C107.41 79.0101 107.814 78.0396 108.454 77.1724C108.648 77.5553 108.769 77.9595 108.818 78.3856C109.105 77.4051 109.428 76.5964 109.789 75.9593C110.292 75.2704 110.898 74.7044 111.609 74.2608Z" fill="#031732"/>
<path fill-rule="evenodd" clip-rule="evenodd" d="M2.90894 82.9956C2.95407 84.0198 3.19671 84.9903 3.63684 85.9072C3.56505 86.369 3.40331 86.7734 3.15158 87.1204C1.68207 86.5791 0.75196 85.5278 0.361296 83.9662C-0.273796 82.1845 -0.0716099 80.5266 0.967879 78.9922C1.70968 78.8578 2.23537 79.1409 2.54499 79.8414C2.58753 80.9379 2.70884 81.9894 2.90894 82.9956Z" fill="#031732"/>
<path fill-rule="evenodd" clip-rule="evenodd" d="M16.7391 80.5693C17.3563 80.4732 17.8821 80.6351 18.3162 81.0546C18.8665 83.71 19.3115 86.3789 19.6507 89.0615C18.9354 89.1287 18.248 89.0479 17.5883 88.8189C17.1598 86.4738 16.715 84.1285 16.2538 81.7825C16.2385 81.2938 16.4001 80.8894 16.7391 80.5693Z" fill="#031732"/>
<path fill-rule="evenodd" clip-rule="evenodd" d="M24.746 80.084C25.3021 80.0219 25.8279 80.1027 26.3231 80.3267C26.887 83.1458 27.3318 85.9766 27.6576 88.8188C26.9423 88.886 26.255 88.8052 25.5952 88.5762C25.2597 86.1295 24.8147 83.7031 24.2608 81.2972C24.2455 80.8085 24.4071 80.4041 24.746 80.084Z" fill="#031732"/>
<path fill-rule="evenodd" clip-rule="evenodd" d="M28.628 79.8414C29.1841 79.7793 29.7099 79.8601 30.2051 80.084C31.0184 82.7811 31.5442 85.5309 31.7822 88.3336C30.9871 88.4025 30.219 88.3217 29.4772 88.0909C29.1924 85.6532 28.8284 83.2269 28.3854 80.8119C28.4152 80.4662 28.4963 80.1427 28.628 79.8414Z" fill="#031732"/>
<path fill-rule="evenodd" clip-rule="evenodd" d="M32.9955 79.1135C33.6809 79.0119 34.2065 79.2545 34.5726 79.8414C34.8783 81.8955 35.3231 83.9174 35.9071 85.9072C35.7865 86.4697 35.7057 87.036 35.6644 87.6057C35.0125 87.6455 34.3654 87.6049 33.7234 87.4844C33.2434 85.1575 32.7582 82.812 32.2676 80.448C32.295 79.8659 32.5376 79.4212 32.9955 79.1135Z" fill="#031732"/>
<path fill-rule="evenodd" clip-rule="evenodd" d="M20.6212 80.5693C21.1773 80.5072 21.7031 80.588 22.1983 80.8119C22.8789 83.5314 23.3236 86.2814 23.5328 89.0615C22.76 89.1779 22.0724 89.0163 21.4704 88.5762C21.1164 86.1884 20.7524 83.8026 20.3785 81.4185C20.4144 81.1138 20.4955 80.8306 20.6212 80.5693Z" fill="#031732"/>
<path fill-rule="evenodd" clip-rule="evenodd" d="M11.1585 88.8188C10.5114 88.8188 9.86452 88.8188 9.21742 88.8188C9.27493 88.5056 9.19413 88.263 8.97479 88.0909C8.79888 85.5821 8.67756 83.075 8.61084 80.5693C9.32054 80.201 9.8866 80.3628 10.3093 81.0546C10.7523 83.3055 11.1163 85.57 11.4011 87.8483C11.3985 88.2232 11.3177 88.5466 11.1585 88.8188Z" fill="#031732"/>
<path fill-rule="evenodd" clip-rule="evenodd" d="M4.60741 83.9662C4.84735 85.2946 4.92822 86.6696 4.85004 88.0909C4.23579 87.825 3.66966 87.5016 3.15161 87.1204C3.40334 86.7735 3.56508 86.369 3.63688 85.9073C3.96038 85.9073 4.28391 85.9073 4.60741 85.9073C4.60741 85.2601 4.60741 84.6133 4.60741 83.9662Z" fill="#031732"/>
<path fill-rule="evenodd" clip-rule="evenodd" d="M7.27639 86.8778C7.27639 87.4438 7.27639 88.0102 7.27639 88.5762C6.41819 88.6221 5.60943 88.4605 4.85006 88.0909C4.92823 86.6696 4.84736 85.2946 4.60742 83.9662C4.52541 82.8292 4.48497 81.6968 4.48611 80.5693C5.02439 80.0552 5.63097 79.9744 6.30586 80.3267C6.72843 82.4936 7.05193 84.6773 7.27639 86.8778Z" fill="#031732"/>
<path fill-rule="evenodd" clip-rule="evenodd" d="M12.6142 80.5693C13.2997 80.4677 13.8252 80.7103 14.1913 81.2972C14.9132 83.8356 15.3579 86.4238 15.5258 89.0615C14.6749 89.1843 13.9065 89.0227 13.2208 88.5762C13.0432 86.3782 12.76 84.1945 12.3716 82.0251C12.3893 81.518 12.4701 81.0327 12.6142 80.5693Z" fill="#031732"/>
<path fill-rule="evenodd" clip-rule="evenodd" d="M111.851 68.6803C112.715 68.6958 113.12 69.1406 113.064 70.0148C112.734 71.0892 112.45 72.181 112.215 73.2903C112.068 73.6703 111.865 73.994 111.609 74.2609C110.898 74.7044 110.292 75.2704 109.789 75.9593C109.428 76.5964 109.105 77.4051 108.818 78.3856C108.769 77.9595 108.648 77.5553 108.454 77.1724C107.814 78.0396 107.41 79.0102 107.241 80.084C106.758 80.0423 106.354 80.2041 106.028 80.5693C105.702 80.2041 105.298 80.0423 104.815 80.084C104.815 80.4075 104.815 80.7311 104.815 81.0546C104.491 81.0546 104.168 81.0546 103.844 81.0546C103.844 81.378 103.844 81.7017 103.844 82.0251C102.834 82.02 102.43 82.4648 102.631 83.3596C102.319 84.0724 101.834 84.2746 101.175 83.9662C100.896 84.8773 100.977 85.767 101.418 86.6351C101.107 87.3669 100.864 88.1353 100.69 88.9402C100.756 89.3075 100.836 89.6714 100.933 90.032C100.609 90.4365 100.286 90.8407 99.9621 91.2452C100.064 91.5295 100.225 91.7722 100.447 91.9731C100.295 92.1956 100.214 92.4382 100.205 92.701C99.7382 93.4539 99.2124 94.1818 98.6276 94.8847C97.2374 96.2342 95.9029 97.6092 94.6242 99.0094C94.7581 98.5652 94.7581 98.1609 94.6242 97.7963C94.8559 97.2021 95.2199 96.7168 95.716 96.3405C95.7968 96.4213 95.8779 96.5023 95.9587 96.5831C96.0781 96.3286 96.0378 96.0859 95.8374 95.8552C96.1375 95.6657 96.3801 95.4231 96.5653 95.1273C96.2957 94.8577 96.1339 94.5341 96.08 94.1568C96.5041 93.0666 96.666 91.9342 96.5653 90.7599C96.2418 90.7599 95.9182 90.7599 95.5947 90.7599C95.5947 91.0833 95.5947 91.407 95.5947 91.7304C95.2713 91.7304 94.9476 91.7304 94.6242 91.7304C94.6645 92.9463 94.624 94.1594 94.5029 95.3699C94.012 95.737 94.0526 96.0605 94.6242 96.3405C94.0108 96.6598 94.0108 96.9429 94.6242 97.1897C93.8254 97.7072 93.0573 97.6667 92.3192 97.0684C91.8601 97.7696 91.658 97.6885 91.7126 96.8257C91.3892 96.8257 91.0655 96.8257 90.7421 96.8257C90.7421 97.0684 90.7421 97.311 90.7421 97.5536C90.9847 97.5536 91.2273 97.5536 91.47 97.5536C91.47 97.7963 91.47 98.0389 91.47 98.2815C90.5844 98.5666 89.6946 98.5666 88.801 98.2815C88.801 97.7155 88.801 97.1492 88.801 96.5831C88.1539 96.5831 87.507 96.5831 86.8599 96.5831C86.8599 96.2597 86.8599 95.936 86.8599 95.6126C86.5365 95.6126 86.2128 95.6126 85.8894 95.6126C85.8894 94.9655 85.8894 94.3186 85.8894 93.6715C86.132 93.6715 86.3747 93.6715 86.6173 93.6715C86.6178 95.1074 87.0625 95.35 87.9518 94.3994C88.6758 92.9594 88.959 91.4228 88.801 89.7894C88.4776 89.7894 88.1539 89.7894 87.8305 89.7894C87.7817 89.0814 87.6199 88.5153 87.3452 88.0909C90.5356 86.8193 93.6088 85.2827 96.5653 83.4809C98.6281 82.2459 100.569 80.8304 102.388 79.2348C105.593 75.7479 108.747 72.2298 111.851 68.6803Z" fill="#031732"/>
<path fill-rule="evenodd" clip-rule="evenodd" d="M79.8238 90.032C80.7686 90.4268 81.1731 91.1547 81.037 92.2157C80.5536 92.2574 80.1494 92.0956 79.8238 91.7304C79.3689 93.409 79.0454 95.1074 78.8533 96.8257C78.904 96.9679 78.985 97.0892 79.0959 97.1897C78.8736 97.2571 78.7121 97.3784 78.6106 97.5536C78.122 97.5274 77.7177 97.689 77.3975 98.0389C76.7557 97.6162 76.0278 97.4544 75.2138 97.5536C75.2138 96.9065 75.2138 96.2597 75.2138 95.6126C74.5667 95.6126 73.9198 95.6126 73.2727 95.6126C73.2727 96.2597 73.2727 96.9065 73.2727 97.5536C71.9787 97.5536 70.6845 97.5536 69.3906 97.5536C69.3906 97.2302 69.3906 96.9065 69.3906 96.5831C68.7435 96.5831 68.0966 96.5831 67.4495 96.5831C67.4495 96.2597 67.4495 95.936 67.4495 95.6126C66.8024 95.6126 66.1555 95.6126 65.5084 95.6126C65.5084 96.2597 65.5084 96.9065 65.5084 97.5536C65.104 97.5536 64.6997 97.5536 64.2953 97.5536C64.3615 98.027 64.1999 98.391 63.81 98.6455C64.3989 98.8643 64.9649 99.0667 65.5084 99.2521C64.914 99.203 64.3479 99.2838 63.81 99.4947C63.3924 98.6033 62.6645 98.2798 61.6263 98.5242C61.6263 98.2007 61.6263 97.8771 61.6263 97.5536C60.9792 97.5536 60.3324 97.5536 59.6853 97.5536C59.6853 96.9065 59.6853 96.2597 59.6853 95.6126C59.0381 95.6126 58.3913 95.6126 57.7442 95.6126C57.7442 95.2891 57.7442 94.9655 57.7442 94.642C58.0676 94.642 58.3913 94.642 58.7147 94.642C58.7147 94.3186 58.7147 93.9949 58.7147 93.6715C55.5605 93.6715 52.4063 93.6715 49.252 93.6715C49.0688 94.4023 48.7454 95.0492 48.2815 95.6126C47.3774 95.5342 46.4877 95.6152 45.6125 95.8552C45.8799 96.0192 46.1225 96.1808 46.3404 96.3405C45.7348 96.6025 45.1685 96.9262 44.642 97.311C44.3994 97.311 44.1567 97.311 43.9141 97.311C43.8321 96.6256 44.0747 96.0998 44.642 95.7339C44.2572 95.048 43.853 95.0077 43.4288 95.6126C43.0447 95.0084 42.8021 94.3613 42.7009 93.6715C42.2157 93.6715 41.7304 93.6715 41.2451 93.6715C41.3211 93.005 41.2403 92.3579 41.0025 91.7304C40.8407 91.8923 40.6791 92.0539 40.5172 92.2157C39.4725 92.0187 38.4211 91.8568 37.363 91.7304C37.2822 92.3775 37.2012 93.0244 37.1204 93.6715C36.8777 93.6715 36.6351 93.6715 36.3925 93.6715C36.3801 93.1693 36.5417 92.7245 36.8777 92.337C36.7487 91.8469 36.4252 91.6448 35.9072 91.7304C35.9708 92.089 35.89 92.4125 35.6646 92.701C34.8387 91.704 35.0813 91.1782 36.3925 91.1239C36.2484 91.0113 36.0865 90.9708 35.9072 91.0025C41.4764 89.958 47.0164 88.6638 52.5276 87.1204C52.8107 87.1609 53.0936 87.2012 53.3768 87.2417C55.1056 88.2503 56.9658 88.9782 58.9574 89.4254C65.862 91.3012 72.8173 91.5033 79.8238 90.032Z" fill="#031732"/>
<path fill-rule="evenodd" clip-rule="evenodd" d="M87.3452 88.0909C87.6199 88.5153 87.7817 89.0814 87.8305 89.7894C88.1539 89.7894 88.4776 89.7894 88.801 89.7894C88.9589 91.4228 88.6758 92.9594 87.9518 94.3994C87.0625 95.35 86.6178 95.1074 86.6173 93.6715C86.3747 93.6715 86.132 93.6715 85.8894 93.6715C85.8894 94.3186 85.8894 94.9655 85.8894 95.6126C86.2128 95.6126 86.5365 95.6126 86.8599 95.6126C86.8599 95.936 86.8599 96.2597 86.8599 96.5831C87.507 96.5831 88.1539 96.5831 88.801 96.5831C88.801 97.1492 88.801 97.7155 88.801 98.2815C89.6946 98.5666 90.5844 98.5666 91.47 98.2815C91.47 98.0389 91.47 97.7963 91.47 97.5536C91.2273 97.5536 90.9847 97.5536 90.7421 97.5536C90.7421 97.311 90.7421 97.0684 90.7421 96.8257C91.0655 96.8257 91.3892 96.8257 91.7126 96.8257C91.658 97.6885 91.8601 97.7696 92.3192 97.0684C93.0573 97.6667 93.8254 97.7072 94.6242 97.1897C94.0108 96.9429 94.0108 96.6598 94.6242 96.3405C94.0526 96.0605 94.012 95.737 94.5029 95.3699C94.6239 94.1594 94.6645 92.9463 94.6242 91.7304C94.9476 91.7304 95.2713 91.7304 95.5947 91.7304C95.5947 91.407 95.5947 91.0833 95.5947 90.7599C95.9182 90.7599 96.2418 90.7599 96.5653 90.7599C96.6659 91.9342 96.5041 93.0666 96.08 94.1568C96.1339 94.5341 96.2957 94.8577 96.5653 95.1273C96.3801 95.4231 96.1375 95.6657 95.8374 95.8552C96.0378 96.0859 96.078 96.3286 95.9587 96.5831C95.8779 96.5023 95.7968 96.4213 95.716 96.3405C95.2199 96.7168 94.8559 97.202 94.6242 97.7963C94.7581 98.1609 94.7581 98.5652 94.6242 99.0094C93.6474 99.906 92.6768 100.796 91.7126 101.678C84.0381 107.123 75.546 110.682 66.2361 112.354C48.8245 114.771 33.3771 110.404 19.8932 99.2521C17.3977 97.2418 15.1332 94.9773 13.0995 92.4583C20.7191 92.5651 28.3216 92.0798 35.907 91.0025C36.0863 90.9707 36.2481 91.0113 36.3923 91.1238C35.0811 91.1782 34.8384 91.704 35.6644 92.701C35.8898 92.4125 35.9706 92.089 35.907 91.7304C36.425 91.6448 36.7484 91.8469 36.8775 92.337C36.5415 92.7245 36.3799 93.1692 36.3923 93.6715C36.6349 93.6715 36.8775 93.6715 37.1202 93.6715C37.201 93.0244 37.282 92.3775 37.3628 91.7304C38.4209 91.8568 39.4722 92.0187 40.517 92.2157C40.6789 92.0539 40.8405 91.8923 41.0023 91.7304C41.2401 92.3579 41.3209 93.005 41.2449 93.6715C41.7302 93.6715 42.2155 93.6715 42.7007 93.6715C42.8019 94.3613 43.0445 95.0084 43.4286 95.6126C43.8527 95.0077 44.257 95.048 44.6418 95.7339C44.0745 96.0998 43.8319 96.6256 43.9139 97.311C44.1565 97.311 44.3991 97.311 44.6418 97.311C44.1509 100.177 45.3641 101.43 48.2813 101.072C49.9812 99.3988 49.9004 97.862 48.0386 96.4618C47.4782 96.3412 46.9121 96.3009 46.3402 96.3405C46.1223 96.1808 45.8797 96.0192 45.6123 95.8552C46.4875 95.6152 47.3772 95.5342 48.2813 95.6126C48.7452 95.0492 49.0686 94.4023 49.2518 93.6715C52.406 93.6715 55.5603 93.6715 58.7145 93.6715C58.7145 93.9949 58.7145 94.3186 58.7145 94.642C58.3911 94.642 58.0674 94.642 57.744 94.642C57.744 94.9655 57.744 95.2891 57.744 95.6126C58.3911 95.6126 59.0379 95.6126 59.685 95.6126C59.685 96.2597 59.685 96.9065 59.685 97.5536C60.3321 97.5536 60.979 97.5536 61.6261 97.5536C61.6261 97.8771 61.6261 98.2007 61.6261 98.5242C62.6643 98.2798 63.3922 98.6033 63.8098 99.4947C62.4637 101.017 62.6255 102.432 64.2951 103.741C66.5877 104.036 67.5985 103.025 67.328 100.708C66.9689 99.903 66.3623 99.4178 65.5082 99.2521C64.9647 99.0667 64.3987 98.8643 63.8098 98.6455C64.1997 98.391 64.3613 98.027 64.2951 97.5536C64.6995 97.5536 65.1038 97.5536 65.5082 97.5536C65.5082 96.9065 65.5082 96.2597 65.5082 95.6126C66.1553 95.6126 66.8022 95.6126 67.4493 95.6126C67.4493 95.936 67.4493 96.2597 67.4493 96.5831C68.0964 96.5831 68.7433 96.5831 69.3904 96.5831C69.3904 96.9065 69.3904 97.2302 69.3904 97.5536C70.6843 97.5536 71.9785 97.5536 73.2725 97.5536C73.2725 96.9065 73.2725 96.2597 73.2725 95.6126C73.9196 95.6126 74.5664 95.6126 75.2135 95.6126C75.2135 96.2597 75.2135 96.9065 75.2135 97.5536C76.0276 97.4544 76.7555 97.6162 77.3972 98.0389C77.216 99.3896 77.7823 99.8344 79.0957 99.3734C79.5001 98.6023 79.3383 97.9957 78.6104 97.5536C78.7118 97.3784 78.8734 97.2571 79.0957 97.1897C78.9848 97.0892 78.9038 96.9679 78.853 96.8257C79.0452 95.1074 79.3686 93.409 79.8236 91.7304C80.1492 92.0956 80.5534 92.2574 81.0367 92.2157C81.1729 91.1547 80.7684 90.4268 79.8236 90.032C82.3249 89.3461 84.832 88.699 87.3452 88.0909Z" fill="#031732"/>
<path fill-rule="evenodd" clip-rule="evenodd" d="M46.3404 96.3405C46.9122 96.3009 47.4783 96.3412 48.0388 96.4618C49.9005 97.862 49.9813 99.3989 48.2814 101.072C45.3642 101.43 44.1511 100.177 44.6419 97.311C45.1684 96.9262 45.7348 96.6025 46.3404 96.3405Z" fill="#ECF3F5"/>
<path fill-rule="evenodd" clip-rule="evenodd" d="M78.6106 97.5537C79.3385 97.9957 79.5004 98.6023 79.0959 99.3734C77.7825 99.8344 77.2162 99.3897 77.3975 98.0389C77.7177 97.689 78.122 97.5274 78.6106 97.5537Z" fill="#ECF3F5"/>
<path fill-rule="evenodd" clip-rule="evenodd" d="M65.5084 99.2521C66.3625 99.4178 66.969 99.9031 67.3281 100.708C67.5987 103.026 66.5879 104.036 64.2952 103.741C62.6257 102.433 62.4638 101.017 63.81 99.4947C64.3479 99.2839 64.9139 99.2031 65.5084 99.2521Z" fill="#ECF3F5"/>
</svg>
