<svg width="359" height="69" viewBox="0 0 359 69" fill="none" xmlns="http://www.w3.org/2000/svg">
<path d="M340.697 49.9808V18.9506H358.697V21.496H343.53V33.1778H357.742V35.7232H343.53V47.4353H359V49.9808H340.697Z" fill="white"/>
<path d="M329.775 28.6475H326.927C326.715 27.5869 326.331 26.6071 325.775 25.7081C325.23 24.799 324.543 24.0061 323.715 23.3293C322.886 22.6526 321.947 22.1273 320.896 21.7536C319.846 21.3799 318.709 21.193 317.487 21.193C315.528 21.193 313.74 21.7031 312.124 22.7233C310.518 23.7435 309.23 25.2435 308.26 27.2233C307.3 29.193 306.821 31.6071 306.821 34.4657C306.821 37.3444 307.3 39.7687 308.26 41.7384C309.23 43.708 310.518 45.203 312.124 46.2232C313.74 47.2333 315.528 47.7383 317.487 47.7383C318.709 47.7383 319.846 47.5515 320.896 47.1777C321.947 46.804 322.886 46.2838 323.715 45.6171C324.543 44.9404 325.23 44.1474 325.775 43.2383C326.331 42.3293 326.715 41.3444 326.927 40.2838H329.775C329.523 41.7081 329.048 43.0363 328.351 44.2686C327.664 45.4909 326.785 46.5616 325.715 47.4808C324.654 48.3999 323.432 49.1171 322.048 49.6323C320.664 50.1474 319.144 50.405 317.487 50.405C314.881 50.405 312.568 49.7535 310.548 48.4504C308.528 47.1373 306.942 45.2888 305.79 42.905C304.649 40.5212 304.078 37.7081 304.078 34.4657C304.078 31.2232 304.649 28.4101 305.79 26.0263C306.942 23.6425 308.528 21.799 310.548 20.496C312.568 19.1829 314.881 18.5263 317.487 18.5263C319.144 18.5263 320.664 18.7839 322.048 19.2991C323.432 19.8041 324.654 20.5213 325.715 21.4506C326.785 22.3698 327.664 23.4405 328.351 24.6627C329.048 25.8849 329.523 27.2132 329.775 28.6475Z" fill="white"/>
<path d="M274.709 49.9808H271.74L283.028 18.9506H286.058L297.346 49.9808H294.376L284.649 22.6324H284.437L274.709 49.9808ZM276.846 38.0869H292.24V40.6323H276.846V38.0869Z" fill="white"/>
<path d="M244.439 49.9808V18.9506H247.273V47.4353H262.06V49.9808H244.439Z" fill="white"/>
<path d="M195.951 49.9808H192.982L204.27 18.9506H207.3L218.588 49.9808H215.618L205.891 22.6324H205.679L195.951 49.9808ZM198.088 38.0869H213.482V40.6323H198.088V38.0869Z" fill="white"/>
<path d="M183.389 18.9506V49.9808H180.632L162.299 23.996H162.056V49.9808H159.223V18.9506H161.965L180.359 44.9656H180.602V18.9506H183.389Z" fill="white"/>
<path d="M143.888 18.9506H146.721V39.496C146.721 41.6071 146.227 43.4959 145.237 45.1626C144.247 46.8192 142.868 48.1272 141.1 49.0868C139.343 50.0363 137.297 50.5111 134.964 50.5111C132.641 50.5111 130.595 50.0313 128.828 49.0717C127.06 48.1121 125.681 46.804 124.691 45.1474C123.701 43.4909 123.206 41.6071 123.206 39.496V18.9506H126.04V39.299C126.04 40.9454 126.408 42.4151 127.146 43.7081C127.883 44.9909 128.919 46.001 130.252 46.7383C131.595 47.4757 133.166 47.8444 134.964 47.8444C136.762 47.8444 138.333 47.4757 139.676 46.7383C141.019 46.001 142.055 44.9909 142.782 43.7081C143.519 42.4151 143.888 40.9454 143.888 39.299V18.9506Z" fill="white"/>
<path d="M94.9398 49.9808V18.9506H97.7731V47.4353H112.561V49.9808H94.9398Z" fill="white"/>
<path fill-rule="evenodd" clip-rule="evenodd" d="M31.2032 0.00922857C32.5843 -0.0153951 33.9647 0.00925815 35.3441 0.0831736C35.4427 0.132465 35.5412 0.181772 35.6399 0.231064C35.3715 0.342987 35.1251 0.466238 34.9004 0.600789C30.4809 1.99615 26.5865 4.26379 23.2171 7.40373C22.8968 7.29148 22.675 7.43937 22.5516 7.8474C22.3024 7.49438 22.0806 7.12466 21.8861 6.73822C22.1662 6.57538 22.2649 6.37818 22.1819 6.14666C22.6788 5.68859 23.2704 5.51606 23.9566 5.62905C23.9566 5.33327 23.9566 5.03749 23.9566 4.74171C24.4131 4.70525 24.8321 4.55736 25.2136 4.29804C25.2629 4.34733 25.3123 4.39664 25.3615 4.44593C25.413 4.20342 25.339 4.00622 25.1397 3.85437C25.5332 3.39375 25.9769 2.97472 26.4707 2.5973C26.4215 2.54801 26.3721 2.49871 26.3228 2.44941C26.8937 2.43391 27.4358 2.31066 27.9496 2.07969C28.0623 1.91282 28.1609 1.7403 28.2454 1.56207C28.6082 1.4546 28.9532 1.30671 29.2806 1.1184C29.3997 0.826809 29.5969 0.604974 29.8722 0.452899C30.4441 0.815495 31.0849 1.01269 31.7947 1.04446C31.8934 0.995167 31.9919 0.94586 32.0905 0.896569C32.1738 0.56985 32.3709 0.348015 32.6821 0.231064C32.1608 0.204636 31.6677 0.130691 31.2032 0.00922857Z" fill="white"/>
<path fill-rule="evenodd" clip-rule="evenodd" d="M26.9145 1.04446C26.9145 1.19235 26.9145 1.34024 26.9145 1.48813C26.6713 1.45656 26.4495 1.50585 26.249 1.63602C26.2352 2.00686 26.112 2.32728 25.8792 2.59731C25.3572 2.99917 24.7656 3.22101 24.1046 3.26281C24.1278 3.46593 24.1031 3.66312 24.0306 3.85437C23.9814 3.75578 23.932 3.65719 23.8827 3.55859C23.5671 3.85207 23.1974 4.04925 22.7735 4.15015C22.6382 4.27259 22.5397 4.42048 22.4778 4.59382C21.7235 4.73331 21.0088 4.9798 20.3334 5.33327C20.2721 5.26563 20.1982 5.21634 20.1115 5.18538C19.8792 5.46859 19.5834 5.61648 19.2242 5.62905C19.2462 5.78463 19.2217 5.93252 19.1502 6.07272C19.0441 5.93214 18.9209 5.9075 18.7805 5.99878C18.1572 6.69836 17.3683 7.04347 16.4143 7.03401C16.6351 7.20497 16.6104 7.32831 16.3403 7.40373C15.8227 7.56464 15.3298 7.76192 14.8614 7.99529C14.8002 7.92771 14.7263 7.87831 14.6396 7.8474C14.4865 8.25647 14.2401 8.35496 13.9001 8.14318C14.3747 7.55976 14.917 7.04214 15.5269 6.59034C16.6704 5.82282 17.8043 5.05873 18.9284 4.29804C20.5786 3.4484 22.2547 2.63501 23.9567 1.85786C24.8986 1.42055 25.8846 1.14942 26.9145 1.04446Z" fill="white"/>
<path fill-rule="evenodd" clip-rule="evenodd" d="M31.2032 0.00921631C31.6677 0.130678 32.1608 0.204623 32.6821 0.231051C32.371 0.348003 32.1738 0.569838 32.0906 0.896556C31.9919 0.945848 31.8934 0.995154 31.7948 1.04445C31.0849 1.01268 30.4441 0.815483 29.8722 0.452886C29.597 0.604961 29.3997 0.826796 29.2806 1.11839C28.9532 1.3067 28.6082 1.45459 28.2454 1.56206C28.161 1.74028 28.0623 1.91281 27.9496 2.07968C27.4359 2.31065 26.8937 2.4339 26.3228 2.4494C26.3721 2.49869 26.4215 2.548 26.4707 2.59729C25.9769 2.97471 25.5333 3.39374 25.1397 3.85436C24.4791 4.13427 23.7889 4.33145 23.0693 4.44592C23.109 4.73114 23.0351 4.97762 22.8474 5.18537C22.4455 5.10956 22.0265 5.10956 21.5904 5.18537C21.5813 5.49478 21.4335 5.71662 21.1467 5.85087C21.2453 5.90016 21.3438 5.94947 21.4425 5.99876C20.9309 6.08621 20.3888 6.20946 19.8157 6.36849C19.6209 6.88359 19.2757 7.25331 18.7805 7.47766C17.6112 7.83674 16.4281 8.13252 15.2311 8.365C15.0298 8.59926 14.9312 8.87049 14.9353 9.1784C14.7444 9.14335 14.5965 9.19259 14.4916 9.32628C13.8983 9.23563 13.6025 9.48216 13.6043 10.0657C12.9202 10.174 12.3039 10.4698 11.7557 10.9531C11.6803 10.3824 11.9268 9.98794 12.4951 9.76995C13.0228 9.98484 13.2693 9.7877 13.2346 9.1784C13.638 8.96144 13.7612 8.66566 13.6043 8.29105C13.703 8.24181 13.8014 8.19241 13.9001 8.14316C14.2401 8.35494 14.4865 8.25645 14.6395 7.84739C14.7262 7.87829 14.8001 7.92769 14.8614 7.99528C15.3297 7.7619 15.8227 7.56462 16.3403 7.40372C16.6103 7.32829 16.635 7.20495 16.4142 7.03399C17.3683 7.04346 18.1571 6.69834 18.7805 5.99876C18.9208 5.90748 19.044 5.93212 19.1502 6.07271C19.2216 5.93251 19.2462 5.78462 19.2241 5.62904C19.5834 5.61646 19.8791 5.46857 20.1115 5.18537C20.1981 5.21632 20.2721 5.26561 20.3333 5.33326C21.0087 4.97978 21.7235 4.7333 22.4777 4.59381C22.5397 4.42046 22.6382 4.27257 22.7735 4.15014C23.1973 4.04923 23.5671 3.85205 23.8827 3.55858C23.9319 3.65717 23.9813 3.75576 24.0306 3.85436C24.103 3.6631 24.1277 3.46591 24.1045 3.2628C24.7656 3.22099 25.3571 2.99915 25.8792 2.59729C26.112 2.32726 26.2351 2.00684 26.2489 1.63601C26.4494 1.50583 26.6713 1.45654 26.9144 1.48812C26.9144 1.34023 26.9144 1.19234 26.9144 1.04445C28.2765 0.494576 29.706 0.149505 31.2032 0.00921631Z" fill="white"/>
<path fill-rule="evenodd" clip-rule="evenodd" d="M36.9709 5.77692C37.4986 5.81526 37.6957 6.11104 37.5625 6.66426C37.9498 6.62458 38.3195 6.67387 38.6717 6.81215C38.5074 7.47795 38.4334 8.16815 38.4498 8.88261C38.0704 8.90568 37.7006 8.85628 37.3407 8.73472C36.8831 8.89237 36.4149 8.99086 35.9357 9.0305C35.9126 8.65101 35.962 8.28129 36.0836 7.92132C35.1452 6.87396 35.3918 6.4549 36.823 6.66426C36.8256 6.35889 36.8748 6.06311 36.9709 5.77692Z" fill="white"/>
<path fill-rule="evenodd" clip-rule="evenodd" d="M52.3514 6.66427C52.4237 6.88537 52.5222 7.08265 52.6472 7.25583C52.7268 7.49497 52.776 7.7415 52.7951 7.99528C54.0768 7.99528 55.3585 7.99528 56.6402 7.99528C56.6642 8.29506 56.6395 8.59084 56.5663 8.88262C55.6353 9.55656 54.7234 10.2466 53.8303 10.9531C54.0078 11.6174 54.2051 12.2584 54.4219 12.8757C54.6498 13.595 54.7484 14.3344 54.7177 15.094C54.4664 15.1177 54.2199 15.0931 53.9782 15.0201C53.1117 14.3262 52.2244 13.6607 51.3162 13.0235C50.5486 13.668 49.7599 14.2842 48.9499 14.8722C48.6771 15.039 48.3813 15.1129 48.0626 15.094C47.8943 14.6793 47.8696 14.2356 47.9887 13.763C48.2105 12.9003 48.4323 12.0376 48.6542 11.1749C48.5336 10.8821 48.3365 10.6603 48.0626 10.5094C47.3718 9.90292 46.6571 9.31136 45.9182 8.73473C45.8457 8.54351 45.821 8.34623 45.8443 8.14317C47.1775 8.14302 48.5085 8.09378 49.8373 7.99528C50.0322 7.04051 50.3033 6.10389 50.6507 5.18537C50.9793 4.48616 51.3737 4.43686 51.8338 5.03748C52.0222 5.57783 52.1947 6.1201 52.3514 6.66427Z" fill="white"/>
<path fill-rule="evenodd" clip-rule="evenodd" d="M13.6042 8.29108C13.7611 8.66568 13.6379 8.96146 13.2344 9.17842C13.2692 9.78772 13.0227 9.98486 12.495 9.76998C11.9267 9.98797 11.6801 10.3824 11.7555 10.9531C12.3038 10.4698 12.92 10.174 13.6042 10.0658C13.6024 9.48218 13.8982 9.23565 14.4915 9.32631C14.4813 9.70845 14.3089 10.0042 13.9739 10.2136C13.9007 10.5054 13.876 10.8012 13.9 11.101C13.3576 11.2489 13.0126 11.5939 12.8647 12.1362C13.4671 11.9629 14.0094 12.0368 14.4915 12.3581C14.1231 12.4506 14.1231 12.5738 14.4915 12.7278C14.3479 12.944 14.3972 13.1411 14.6394 13.3193C14.3404 14.0672 14.1432 14.0672 14.0478 13.3193C13.6534 13.3193 13.2591 13.3193 12.8647 13.3193C12.8155 12.7278 12.7661 12.7278 12.7168 13.3193C12.2884 13.2639 11.8941 13.3378 11.5337 13.5412C11.6324 13.5904 11.7308 13.6398 11.8295 13.6891C11.4926 13.8349 11.1476 13.9582 10.7943 14.0588C10.6067 14.3256 10.5081 14.6214 10.4985 14.9461C10.2472 14.9225 10.0007 14.947 9.75903 15.0201C9.82795 15.2122 9.82795 15.434 9.75903 15.6856C9.56189 15.6856 9.36461 15.6856 9.16747 15.6856C9.1271 15.9741 9.22559 16.1959 9.46325 16.3511C8.97226 16.6368 8.45464 16.7107 7.91041 16.5729C7.76991 16.6501 7.64657 16.7488 7.54068 16.8687C7.30938 16.7672 7.06285 16.7919 6.80123 16.9426C6.63249 17.0522 6.63249 17.1756 6.80123 17.3124C6.32369 17.6179 6.07716 18.0616 6.06178 18.6434C5.71143 19.0138 5.31716 19.3096 4.87866 19.5307C7.07379 15.2435 9.98235 11.497 13.6042 8.29108Z" fill="white"/>
<path fill-rule="evenodd" clip-rule="evenodd" d="M27.8017 12.5799C28.1303 12.5322 28.4016 12.6309 28.6151 12.8756C28.8114 13.5129 28.984 14.1537 29.1327 14.7982C29.9708 14.7982 30.8088 14.7982 31.6469 14.7982C31.4382 15.6008 30.9453 16.1924 30.168 16.5729C30.1187 16.7208 30.0693 16.8687 30.0201 17.0166C30.1834 17.6294 30.3312 18.2457 30.4638 18.8652C30.492 19.157 30.3934 19.3788 30.168 19.5307C29.4872 19.1045 28.8217 18.6608 28.1715 18.1997C27.5064 18.6802 26.8163 19.1238 26.101 19.5307C25.9868 19.5093 25.8882 19.46 25.8052 19.3828C25.9228 18.4885 26.0707 17.6012 26.2489 16.7208C25.6134 16.244 24.9972 15.7511 24.4003 15.2419C24.4708 15.0972 24.5693 14.9741 24.696 14.8722C25.5327 14.7984 26.3708 14.7737 27.2102 14.7982C27.3842 14.0524 27.5815 13.313 27.8017 12.5799Z" fill="white"/>
<path fill-rule="evenodd" clip-rule="evenodd" d="M25.1398 3.85437C25.3392 4.00622 25.4131 4.20342 25.3616 4.44593C25.3124 4.39664 25.263 4.34733 25.2138 4.29804C24.8322 4.55737 24.4132 4.70526 23.9567 4.74171C23.9567 5.03749 23.9567 5.33327 23.9567 5.62905C23.2705 5.51606 22.6789 5.68859 22.182 6.14666C22.265 6.37819 22.1663 6.57538 21.8862 6.73822C22.0807 7.12466 22.3025 7.49439 22.5517 7.8474C22.6751 7.43937 22.8969 7.29148 23.2172 7.40373C22.472 8.14865 21.7818 8.9375 21.1468 9.76997C20.2504 10.7255 19.4617 11.7607 18.7805 12.8757C18.8529 12.1637 19.1486 11.5476 19.6679 11.027C19.4193 10.5144 19.2714 10.539 19.2242 11.101C18.9636 11.0798 18.7171 11.1292 18.4848 11.2489C18.3861 11.1502 18.2876 11.0517 18.189 10.9531C17.7144 11.0588 17.2707 11.2314 16.858 11.4707C16.9256 11.5319 16.975 11.6059 17.0059 11.6925C16.6792 12.0442 16.3341 12.3647 15.9706 12.6538C16.0693 12.7031 16.1678 12.7525 16.2664 12.8017C15.8368 12.9551 15.4177 13.1277 15.0093 13.3193C15.0698 13.5744 15.0451 13.821 14.9354 14.0588C14.5785 14.3367 14.2088 14.5832 13.8262 14.7982C13.7471 14.5363 13.6238 14.4871 13.4565 14.6503C13.3272 14.9826 13.2778 15.3277 13.3086 15.6856C13.1607 15.6856 13.0128 15.6856 12.8649 15.6856C12.8042 16.1371 12.7057 16.5807 12.5692 17.0166C12.8039 17.3044 12.7546 17.5262 12.4213 17.6821C12.4889 17.7433 12.5383 17.8173 12.5692 17.9039C12.5288 18.5095 12.3809 19.0518 12.1255 19.5307C12.5449 18.1018 12.052 17.5842 10.6466 17.9779C10.4453 18.2121 10.3467 18.4834 10.3508 18.7913C10.2372 18.9041 10.1633 19.052 10.129 19.2349C9.90315 18.9804 9.75526 18.6846 9.68531 18.3476C9.30242 18.6006 8.93269 18.8719 8.57613 19.161C8.13512 19.2346 7.69145 19.2593 7.24512 19.2349C7.16644 20.0183 7.0431 20.0183 6.8754 19.2349C6.80234 19.4766 6.77779 19.7231 6.80145 19.9744C6.65356 19.9744 6.50567 19.9744 6.35778 19.9744C6.35778 20.1223 6.35778 20.2702 6.35778 20.418C6.50567 20.418 6.65356 20.418 6.80145 20.418C6.80145 20.5659 6.80145 20.7138 6.80145 20.8617C6.40703 20.8617 6.01275 20.8617 5.61833 20.8617C5.65442 21.5726 5.33394 22.0163 4.65705 22.1927C4.60776 22.5872 4.55845 22.9814 4.50916 23.3758C4.42304 22.9073 4.27515 22.8581 4.06549 23.228C3.94445 23.6135 3.87051 24.0079 3.84365 24.4111C4.17852 24.8647 4.12923 25.2097 3.69576 25.4463C3.6091 25.4154 3.53515 25.366 3.47393 25.2984C3.40146 25.7391 3.17963 26.0842 2.80842 26.3336C2.55444 26.1609 2.45584 25.9144 2.51264 25.5942C3.0142 23.4578 3.80295 21.4367 4.87888 19.5307C5.31738 19.3096 5.71165 19.0138 6.062 18.6434C6.07738 18.0616 6.32392 17.6179 6.80145 17.3124C6.63271 17.1756 6.63271 17.0522 6.80145 16.9426C7.06307 16.7919 7.3096 16.7672 7.5409 16.8687C7.64679 16.7487 7.77013 16.6501 7.91063 16.5729C8.45486 16.7107 8.97248 16.6368 9.46347 16.3511C9.22581 16.1959 9.12732 15.9741 9.16769 15.6856C9.36483 15.6856 9.56211 15.6856 9.75925 15.6856C9.82817 15.434 9.82817 15.2122 9.75925 15.0201C10.0009 14.947 10.2474 14.9225 10.4987 14.9461C10.5083 14.6214 10.607 14.3256 10.7945 14.0588C11.1478 13.9582 11.4928 13.8349 11.8297 13.6891C11.7311 13.6398 11.6326 13.5904 11.5339 13.5412C11.8943 13.3378 12.2886 13.2639 12.7171 13.3193C12.7663 12.7278 12.8157 12.7278 12.8649 13.3193C13.2594 13.3193 13.6536 13.3193 14.0481 13.3193C14.1434 14.0672 14.3406 14.0672 14.6396 13.3193C14.3974 13.1411 14.3481 12.944 14.4917 12.7278C14.1233 12.5738 14.1233 12.4506 14.4917 12.358C14.0096 12.0368 13.4673 11.9629 12.8649 12.1362C13.0128 11.5939 13.3579 11.2489 13.9002 11.101C13.8762 10.8012 13.9009 10.5054 13.9741 10.2136C14.3091 10.0042 14.4815 9.70845 14.4917 9.3263C14.5966 9.19261 14.7445 9.14336 14.9354 9.17841C14.9313 8.8705 15.0299 8.59927 15.2312 8.36501C16.4282 8.13253 17.6113 7.83675 18.7805 7.47767C19.2758 7.25333 19.621 6.8836 19.8158 6.3685C20.3888 6.20947 20.931 6.08622 21.4426 5.99877C21.3439 5.94948 21.2454 5.90018 21.1468 5.85088C21.4335 5.71663 21.5814 5.4948 21.5904 5.18538C22.0266 5.10957 22.4455 5.10957 22.8475 5.18538C23.0352 4.97764 23.1091 4.73115 23.0693 4.44593C23.789 4.33146 24.4792 4.13428 25.1398 3.85437Z" fill="white"/>
<path fill-rule="evenodd" clip-rule="evenodd" d="M12.1253 19.5307C11.2036 20.0834 10.6121 19.8368 10.3506 18.7913C10.3464 18.4834 10.4451 18.2121 10.6464 17.9779C12.0518 17.5842 12.5447 18.1018 12.1253 19.5307Z" fill="#ECF3F5"/>
<path fill-rule="evenodd" clip-rule="evenodd" d="M43.4782 18.3476C44.0906 18.5801 44.6329 18.9251 45.105 19.3828C45.0922 19.5301 45.1416 19.6533 45.2528 19.7525C45.1542 19.8512 45.0557 19.9497 44.9571 20.0483C44.3374 20.2197 43.7458 20.2937 43.1824 20.2701C42.4434 19.8636 41.6547 19.691 40.8161 19.7525C40.2985 20.2701 39.7809 20.7878 39.2633 21.3054C39.1141 21.5309 39.0401 21.7774 39.0415 22.0448C38.9008 21.835 38.8516 21.5886 38.8936 21.3054C38.4699 21.2396 38.1001 21.3382 37.7844 21.6012C37.6852 21.4899 37.562 21.4405 37.4147 21.4533C38.5271 20.2175 39.7102 19.0591 40.964 17.9779C41.3585 17.8792 41.7527 17.8792 42.1472 17.9779C42.5808 18.1472 43.0244 18.2704 43.4782 18.3476Z" fill="white"/>
<path fill-rule="evenodd" clip-rule="evenodd" d="M43.1822 20.2702C44.4688 20.842 45.3809 21.7786 45.9182 23.0801C46.0221 23.4393 45.9976 23.7843 45.8442 24.1153C45.4853 24.1119 45.1403 24.038 44.809 23.8935C43.9163 23.3742 42.9797 22.9551 41.9991 22.6364C41.0585 22.2313 40.0725 22.0342 39.0413 22.0448C39.0399 21.7775 39.1139 21.5309 39.2631 21.3054C39.7807 20.7878 40.2983 20.2702 40.816 19.7525C41.6545 19.691 42.4432 19.8636 43.1822 20.2702Z" fill="#ECF3F5"/>
<path fill-rule="evenodd" clip-rule="evenodd" d="M18.7804 12.8756C18.0552 14.2269 17.4144 15.6072 16.8579 17.0166C16.9144 16.1857 16.5199 15.7913 15.6747 15.8334C15.7571 16.4448 15.6092 16.9871 15.2311 17.4602C15.0937 17.2844 15.0444 17.0873 15.0832 16.8687C14.6888 16.8687 14.2945 16.8687 13.9001 16.8687C13.9388 17.0873 13.8896 17.2844 13.7522 17.4602C13.5232 17.7442 13.2767 18.0153 13.0127 18.2736C12.8002 18.9356 12.6031 19.6011 12.4212 20.2701C12.1408 20.413 11.845 20.4623 11.5338 20.418C11.5338 20.5659 11.5338 20.7138 11.5338 20.8617C11.1394 20.9603 10.7451 21.0588 10.3507 21.1575C10.3507 21.3054 10.3507 21.4533 10.3507 21.6012C9.5765 21.5941 8.78765 21.6927 7.98446 21.8969C7.98446 22.1927 7.98446 22.4885 7.98446 22.7843C7.62553 22.7877 7.2805 22.8616 6.94923 23.0061C7.04787 23.1048 7.14637 23.2032 7.24501 23.3019C7.06976 23.502 6.87248 23.6746 6.65345 23.8195C6.724 23.9641 6.82249 24.0873 6.94923 24.1892C6.7759 24.2512 6.62801 24.3497 6.50556 24.485C6.75047 24.7508 6.89836 25.0712 6.94923 25.4463C6.6567 25.9831 6.26228 26.4268 5.76611 26.7773C5.88812 26.9083 6.03601 26.9576 6.20978 26.9252C6.20978 27.1223 6.20978 27.3196 6.20978 27.5168C6.44626 27.4771 6.64339 27.5265 6.80134 27.6646C5.87171 28.5984 5.82231 29.5844 6.65345 30.6224C6.55732 30.6674 6.45868 30.7167 6.35767 30.7703C6.20978 30.5238 6.01264 30.3267 5.76611 30.1788C5.80234 29.9546 5.80234 29.708 5.76611 29.4393C5.53378 29.3197 5.28724 29.2703 5.02666 29.2914C5.07221 28.9329 5.02282 28.5879 4.87877 28.2562C4.74779 28.3782 4.69849 28.5261 4.73088 28.6999C4.23792 28.6999 3.74494 28.6999 3.25198 28.6999C3.28437 28.5261 3.23508 28.3782 3.10409 28.2562C2.53211 29.203 2.03915 30.189 1.62519 31.214C1.93464 31.487 2.13183 31.832 2.21675 32.2492C2.01155 32.2946 1.76507 32.2946 1.4773 32.2492C1.49024 32.7074 1.4163 32.7568 1.25547 32.3971C1.11707 32.9316 1.04313 33.4738 1.03363 34.0239C1.05901 34.1706 1.0097 34.2691 0.885742 34.3197C1.07052 31.3265 1.61278 28.418 2.51253 25.5942C2.45573 25.9144 2.55433 26.1609 2.80831 26.3336C3.17952 26.0841 3.40135 25.7391 3.47382 25.2984C3.53504 25.366 3.60899 25.4154 3.69565 25.4463C4.12912 25.2097 4.17841 24.8646 3.84354 24.4111C3.8704 24.0079 3.94434 23.6135 4.06538 23.2279C4.27504 22.8581 4.42293 22.9073 4.50905 23.3758C4.55834 22.9814 4.60764 22.5871 4.65694 22.1927C5.33383 22.0163 5.65431 21.5726 5.61822 20.8617C6.01264 20.8617 6.40692 20.8617 6.80134 20.8617C6.80134 20.7138 6.80134 20.5659 6.80134 20.418C6.65345 20.418 6.50556 20.418 6.35767 20.418C6.35767 20.2701 6.35767 20.1223 6.35767 19.9744C6.50556 19.9744 6.65345 19.9744 6.80134 19.9744C6.77768 19.7231 6.80223 19.4766 6.87529 19.2349C7.04299 20.0183 7.16633 20.0183 7.24501 19.2349C7.69134 19.2593 8.13501 19.2346 8.57602 19.161C8.93258 18.8718 9.30231 18.6006 9.6852 18.3476C9.75515 18.6846 9.90304 18.9804 10.1289 19.2349C10.1632 19.052 10.2371 18.9041 10.3507 18.7912C10.6122 19.8368 11.2037 20.0834 12.1254 19.5307C12.3808 19.0518 12.5287 18.5095 12.5691 17.9039C12.5381 17.8172 12.4887 17.7433 12.4212 17.6821C12.7545 17.5262 12.8038 17.3044 12.5691 17.0166C12.7056 16.5807 12.804 16.1371 12.8648 15.6856C13.0127 15.6856 13.1606 15.6856 13.3085 15.6856C13.2777 15.3277 13.3271 14.9826 13.4564 14.6503C13.6237 14.4871 13.747 14.5363 13.8261 14.7982C14.2087 14.5832 14.5784 14.3367 14.9353 14.0588C15.045 13.821 15.0697 13.5744 15.0092 13.3193C15.4176 13.1277 15.8367 12.9551 16.2663 12.8017C16.1677 12.7525 16.0692 12.7031 15.9705 12.6538C16.334 12.3647 16.6791 12.0442 17.0057 11.6925C16.9748 11.6059 16.9254 11.5319 16.8579 11.4707C17.2706 11.2314 17.7143 11.0588 18.1889 10.9531C18.2875 11.0517 18.386 11.1502 18.4846 11.2489C18.717 11.1292 18.9635 11.0798 19.2241 11.101C19.2713 10.539 19.4192 10.5144 19.6678 11.027C19.1485 11.5476 18.8527 12.1637 18.7804 12.8756Z" fill="white"/>
<path fill-rule="evenodd" clip-rule="evenodd" d="M63.739 17.9039C64.5771 19.5799 65.4151 21.2561 66.2532 22.9322C66.0053 23.0332 65.9066 23.2305 65.9574 23.5237C65.363 23.7459 64.8208 23.6472 64.3306 23.2279C64.1898 23.4564 64.1405 23.703 64.1827 23.9674C63.9641 23.9287 63.767 23.9779 63.5911 24.1153C64.3599 24.3427 65.0993 24.2935 65.8095 23.9674C65.7756 24.3294 65.7756 24.6992 65.8095 25.0766C65.5916 25.1816 65.493 25.354 65.5137 25.5942C65.3698 25.3518 65.1727 25.1545 64.9221 25.0026C64.9057 24.9114 64.8565 24.8374 64.7743 24.7808C64.1334 24.6822 63.4925 24.6822 62.8517 24.7808C61.593 25.1755 60.3114 25.4466 59.0065 25.5942C58.0148 25.5497 57.0535 25.3524 56.1227 25.0026C54.3532 25.877 52.5046 26.4685 50.5768 26.7773C49.6807 26.8137 48.7934 26.7644 47.9148 26.6294C48.1247 26.4888 48.371 26.4395 48.6542 26.4815C50.0006 26.5249 51.3316 26.4017 52.6473 26.1118C52.2793 25.8626 52.3286 25.6653 52.7952 25.5202C53.4348 25.3045 54.0756 25.2305 54.7177 25.2984C54.9791 24.945 55.3241 24.6984 55.753 24.559C55.161 24.0039 55.3088 23.7081 56.1966 23.6716C56.1466 23.2787 56.2453 22.9336 56.4924 22.6364C56.4741 22.5466 56.4248 22.4974 56.3445 22.4885C57.4809 21.3549 58.4422 20.0732 59.2284 18.6434C60.3029 15.7817 61.8064 15.5352 63.739 17.9039Z" fill="white"/>
<path fill-rule="evenodd" clip-rule="evenodd" d="M45.1049 19.3828C45.2142 19.3634 45.3129 19.3881 45.4007 19.4567C46.5886 20.4192 47.3773 21.627 47.767 23.08C47.767 23.7702 47.767 24.4603 47.767 25.1505C47.1273 25.0794 46.5605 24.8328 46.0662 24.4111C45.8244 24.6106 45.6026 24.5859 45.4007 24.3371C45.5837 24.3028 45.7316 24.2289 45.8444 24.1153C45.9978 23.7843 46.0223 23.4393 45.9183 23.08C45.3811 21.7786 44.469 20.842 43.1824 20.2701C43.7458 20.2936 44.3374 20.2197 44.9571 20.0483C45.0557 19.9497 45.1542 19.8512 45.2528 19.7525C45.1416 19.6533 45.0922 19.5301 45.1049 19.3828Z" fill="white"/>
<path fill-rule="evenodd" clip-rule="evenodd" d="M39.0414 22.0448C40.0726 22.0342 41.0586 22.2313 41.9992 22.6364C42.3963 23.1292 42.84 23.5975 43.3302 24.0414C43.3055 24.1153 43.281 24.1893 43.2563 24.2632C43.0591 24.1646 42.8619 24.0661 42.6647 23.9674C42.4072 24.1535 42.1362 24.3014 41.8513 24.4111C40.2427 23.9266 38.6159 23.5076 36.971 23.154C36.8121 23.0447 36.7135 22.8968 36.6752 22.7104C36.755 22.1793 37.0014 21.7602 37.4146 21.4533C37.5619 21.4406 37.6851 21.49 37.7843 21.6012C38.1001 21.3382 38.4698 21.2396 38.8935 21.3054C38.8515 21.5886 38.9008 21.835 39.0414 22.0448Z" fill="white"/>
<path fill-rule="evenodd" clip-rule="evenodd" d="M34.7525 23.6716C36.1376 24.1409 37.5179 24.6585 38.8934 25.2245C39.1265 26.42 38.6334 26.8637 37.4145 26.5555C36.5272 26.1611 35.6399 25.7668 34.7525 25.3724C34.4788 25.1233 34.2322 24.8522 34.0131 24.559C34.1605 24.1663 34.407 23.8705 34.7525 23.6716Z" fill="white"/>
<path fill-rule="evenodd" clip-rule="evenodd" d="M41.9991 22.6364C42.9797 22.9551 43.9163 23.3742 44.809 23.8934C45.1403 24.0379 45.4853 24.1119 45.8442 24.1153C45.7314 24.2289 45.5835 24.3028 45.4006 24.3371C45.6024 24.5859 45.8243 24.6106 46.0661 24.4111C46.5603 24.8328 47.1272 25.0794 47.7668 25.1505C47.7668 24.4603 47.7668 23.7703 47.7668 23.0801C47.8354 23.7382 47.9833 24.379 48.2105 25.0026C48.1486 25.1094 48.0502 25.1833 47.9147 25.2245C48.1796 25.5359 48.2782 25.9056 48.2105 26.3336C48.4014 26.2986 48.5493 26.3478 48.6541 26.4815C48.3709 26.4395 48.1245 26.4888 47.9147 26.6294C46.6944 26.5155 45.4868 26.3183 44.2914 26.0379C44.1188 26.0626 43.9464 26.0871 43.7738 26.1118C43.692 26.3895 43.5441 26.6114 43.3301 26.7773C43.1368 26.533 43.1368 26.2866 43.3301 26.0379C43.2105 25.7079 43.0132 25.4614 42.7385 25.2984C42.7369 25.0741 42.6384 24.9015 42.4428 24.7808C42.2112 24.6909 42.0139 24.5675 41.8512 24.4111C42.136 24.3013 42.4071 24.1534 42.6646 23.9674C42.8617 24.066 43.059 24.1645 43.2562 24.2632C43.2808 24.1892 43.3054 24.1153 43.3301 24.0413C42.8398 23.5975 42.3962 23.1292 41.9991 22.6364Z" fill="white"/>
<path fill-rule="evenodd" clip-rule="evenodd" d="M56.3445 22.4885C56.4248 22.4974 56.4741 22.5466 56.4924 22.6364C56.2453 22.9336 56.1466 23.2787 56.1966 23.6716C55.3088 23.7081 55.161 24.0039 55.753 24.559C55.3241 24.6984 54.9791 24.9449 54.7177 25.2984C54.0756 25.2305 53.4348 25.3045 52.7952 25.5202C52.3286 25.6653 52.2793 25.8626 52.6473 26.1118C51.3316 26.4017 50.0006 26.5249 48.6542 26.4815C48.5494 26.3478 48.4015 26.2986 48.2106 26.3336C48.2783 25.9056 48.1797 25.5359 47.9148 25.2245C48.0503 25.1833 48.1488 25.1094 48.2106 25.0026C51.2626 25.1899 53.9738 24.3518 56.3445 22.4885Z" fill="white"/>
<path fill-rule="evenodd" clip-rule="evenodd" d="M47.9147 26.6294C48.7933 26.7645 49.6806 26.8137 50.5767 26.7773C50.7798 26.7541 50.977 26.7788 51.1683 26.8513C50.8824 26.8884 50.6113 26.9623 50.3549 27.0731C50.4198 27.4072 50.4937 27.7522 50.5767 28.1083C51.1683 28.1083 51.7598 28.1083 52.3514 28.1083C52.3514 27.9604 52.3514 27.8126 52.3514 27.6647C52.9588 27.6673 53.5503 27.766 54.1261 27.9604C53.9502 28.0978 53.7531 28.1471 53.5345 28.1083C53.5345 28.3055 53.5345 28.5028 53.5345 28.6999C53.1401 28.6999 52.7458 28.6999 52.3514 28.6999C52.3514 28.897 52.3514 29.0943 52.3514 29.2915C52.1542 29.2915 51.957 29.2915 51.7598 29.2915C51.7598 29.538 51.7598 29.7844 51.7598 30.0309C51.5013 30.2215 51.4521 30.4434 51.6119 30.6964C51.957 30.795 52.3021 30.795 52.6472 30.6964C52.7294 30.6398 52.7786 30.5658 52.7951 30.4746C52.996 30.3996 53.1439 30.2517 53.2387 30.0309C53.3743 30.1236 53.5222 30.173 53.6824 30.1788C53.7788 30.7792 53.5323 31.075 52.9429 31.0661C52.9429 31.2633 52.9429 31.4606 52.9429 31.6577C53.3374 31.6577 53.7316 31.6577 54.1261 31.6577C54.1261 31.8548 54.1261 32.0521 54.1261 32.2493C55.7036 32.2493 57.281 32.2493 58.8585 32.2493C58.8585 32.4464 58.8585 32.6437 58.8585 32.8408C59.3334 32.7686 59.7524 32.8673 60.1156 33.1366C60.1649 33.0379 60.2142 32.9395 60.2635 32.8408C60.336 33.032 60.3607 33.2293 60.3374 33.4324C58.3248 34.0461 56.353 34.7363 54.4218 35.5028C51.0335 36.4598 47.6813 37.5196 44.3653 38.6825C44.0695 38.7564 43.7738 38.8304 43.478 38.9043C43.3425 38.8979 43.2439 38.8487 43.1822 38.7564C42.5429 37.9201 41.8527 37.1314 41.1117 36.3902C39.6253 34.9533 38.245 33.4251 36.9708 31.8056C38.8545 29.8071 40.9744 28.1311 43.3301 26.7773C43.5441 26.6114 43.692 26.3896 43.7738 26.1118C43.9464 26.0871 44.1188 26.0626 44.2914 26.0379C45.4868 26.3183 46.6944 26.5156 47.9147 26.6294Z" fill="#ECF3F5"/>
<path fill-rule="evenodd" clip-rule="evenodd" d="M31.6469 26.3336C33.0271 26.5883 34.3581 27.0073 35.6399 27.5907C36.1121 28.3722 35.915 28.9145 35.0483 29.2175C34.7525 29.3161 34.4568 29.3161 34.161 29.2175C33.2728 28.6991 32.336 28.2802 31.3511 27.9604C31.1742 27.8038 31.0756 27.6065 31.0553 27.3689C31.1397 26.9529 31.3369 26.6078 31.6469 26.3336Z" fill="white"/>
<path fill-rule="evenodd" clip-rule="evenodd" d="M60.4854 27.8125C60.4206 27.8222 60.3712 27.7976 60.3375 27.7386C60.4643 27.44 60.6616 27.2182 60.9291 27.0731C61.17 26.9067 61.3918 26.7094 61.5946 26.4815C61.4826 27.1135 61.1129 27.5571 60.4854 27.8125Z" fill="white"/>
<path fill-rule="evenodd" clip-rule="evenodd" d="M66.2532 22.9322C67.3322 25.1419 68.1209 27.4588 68.6194 29.883C68.1487 29.8195 67.8037 29.573 67.5842 29.1435C67.4083 29.0061 67.2112 28.9569 66.9926 28.9956C66.8688 28.4527 66.7949 27.9106 66.7708 27.3689C67.0321 27.5636 67.2294 27.8102 67.3623 28.1083C67.461 27.8125 67.461 27.5167 67.3623 27.221C67.0726 27.0364 66.8508 26.7899 66.6968 26.4815C66.7278 26.3949 66.7771 26.3209 66.8447 26.2597C66.7282 25.8048 66.6543 25.3366 66.6229 24.8547C66.4704 24.6773 66.3471 24.48 66.2532 24.2632C66.388 23.8247 66.388 23.381 66.2532 22.9322Z" fill="white"/>
<path fill-rule="evenodd" clip-rule="evenodd" d="M42.147 27.9604C42.708 27.9516 43.0283 28.1981 43.1083 28.6999C42.4387 28.9442 42.1182 28.6978 42.147 27.9604Z" fill="white"/>
<path fill-rule="evenodd" clip-rule="evenodd" d="M6.65336 30.6225C5.82222 29.5844 5.87161 28.5984 6.80125 27.6647C8.62163 27.3902 9.38578 28.179 9.09354 30.0309C8.45777 30.9425 7.64437 31.1396 6.65336 30.6225Z" fill="#ECF3F5"/>
<path fill-rule="evenodd" clip-rule="evenodd" d="M59.4503 28.1083C59.5829 28.2707 59.7061 28.2707 59.82 28.1083C59.7744 28.572 59.5034 28.8185 59.0066 28.8478C59.0066 28.6999 59.0066 28.552 59.0066 28.4041C59.1545 28.3055 59.3024 28.207 59.4503 28.1083Z" fill="white"/>
<path fill-rule="evenodd" clip-rule="evenodd" d="M28.6891 28.8478C29.9018 29.1122 31.0849 29.4819 32.2384 29.957C32.7068 30.6933 32.5589 31.2849 31.7947 31.7316C31.5482 31.8303 31.3018 31.8303 31.0553 31.7316C30.2505 31.1321 29.3631 30.6884 28.3933 30.4006C27.7699 29.7614 27.8686 29.2438 28.6891 28.8478Z" fill="white"/>
<path fill-rule="evenodd" clip-rule="evenodd" d="M43.9217 28.8478C44.5881 28.7039 44.9085 28.9504 44.883 29.5872C44.5562 29.7719 44.2358 29.7472 43.9217 29.5133C43.7401 29.2929 43.7401 29.0711 43.9217 28.8478Z" fill="white"/>
<path fill-rule="evenodd" clip-rule="evenodd" d="M66.2531 22.9322C66.3879 23.381 66.3879 23.8247 66.2531 24.2632C66.347 24.48 66.4703 24.6773 66.6228 24.8547C66.6541 25.3366 66.7281 25.8048 66.8446 26.2597C66.777 26.3209 66.7276 26.3949 66.6967 26.4815C66.8507 26.7899 67.0725 27.0364 67.3622 27.221C67.4609 27.5167 67.4609 27.8125 67.3622 28.1083C67.2293 27.8102 67.032 27.5636 66.7707 27.3689C66.7948 27.9106 66.8687 28.4527 66.9925 28.9956C67.2111 28.9569 67.4082 29.0061 67.5841 29.1435C67.8035 29.573 68.1486 29.8195 68.6193 29.883C68.8436 29.8846 69.0162 29.9831 69.1369 30.1788C69.3198 30.7053 69.3938 31.2476 69.3587 31.8056C68.0814 32.1731 66.8983 32.7401 65.8094 33.5063C63.5931 34.2861 61.3748 35.0503 59.1543 35.7986C58.9078 35.7986 58.6614 35.7986 58.4149 35.7986C58.4149 35.9465 58.4149 36.0944 58.4149 36.2423C57.6979 36.2677 57.0077 36.4156 56.3444 36.6859C56.1729 36.5728 56.025 36.4249 55.9008 36.2423C55.9317 36.1556 55.9811 36.0816 56.0486 36.0204C57.286 35.6733 58.5186 35.3283 59.7459 34.9852C59.6966 34.9359 59.6473 34.8865 59.598 34.8373C60.4948 34.7466 61.3822 34.5988 62.26 34.3936C62.956 34.0204 63.6954 33.7246 64.4784 33.5063C64.2196 33.2469 64.1209 32.9264 64.1826 32.545C63.9288 32.5259 63.6823 32.4767 63.4431 32.3971C63.4431 32.3479 63.4431 32.2985 63.4431 32.2492C63.6589 32.2591 63.8561 32.2099 64.0347 32.1013C64.9405 31.6361 65.8526 31.1924 66.7707 30.7703C66.831 28.9279 66.412 27.2025 65.5136 25.5942C65.4929 25.354 65.5915 25.1816 65.8094 25.0766C65.7755 24.6991 65.7755 24.3294 65.8094 23.9674C65.0992 24.2935 64.3598 24.3427 63.591 24.1153C63.7669 23.9779 63.964 23.9286 64.1826 23.9674C64.1404 23.703 64.1897 23.4564 64.3305 23.2279C64.8207 23.6472 65.3629 23.7459 65.9573 23.5237C65.9065 23.2305 66.0052 23.0332 66.2531 22.9322Z" fill="white"/>
<path fill-rule="evenodd" clip-rule="evenodd" d="M42.7387 25.2984C43.0133 25.4614 43.2106 25.7079 43.3302 26.0379C43.1369 26.2866 43.1369 26.533 43.3302 26.7773C40.9745 28.1311 38.8546 29.8071 36.971 31.8056C38.2452 33.4251 39.6254 34.9532 41.1119 36.3901C40.2186 36.8835 39.8243 36.5877 39.9288 35.5028C39.5589 35.6989 39.1645 35.7729 38.7456 35.7246C38.4609 35.3601 38.4609 34.9657 38.7456 34.5415C38.5072 34.435 38.2854 34.4596 38.0801 34.6155C37.9075 34.4429 37.7351 34.2704 37.5625 34.0979C37.7184 33.8926 37.7429 33.6707 37.6365 33.4323C37.4444 33.5013 37.2225 33.5013 36.971 33.4323C36.8633 33.0509 36.7893 32.6565 36.7491 32.2492C36.7087 31.9787 36.5854 31.7569 36.3794 31.5837C36.5095 31.3832 36.5589 31.1613 36.5273 30.9182C36.0546 30.9772 35.611 31.1251 35.1963 31.3619C35.5231 31.7809 35.4984 32.1259 35.1223 32.3971C34.8024 32.2244 34.5067 32.1257 34.235 32.1013C33.8329 32.2754 33.611 32.5218 33.5695 32.8408C33.3468 33.0252 33.1249 33.0252 32.904 32.8408C32.5275 33.5986 31.9606 33.9929 31.2032 34.0239C34.8771 30.8928 38.7223 27.9842 42.7387 25.2984Z" fill="white"/>
<path fill-rule="evenodd" clip-rule="evenodd" d="M45.9922 29.4393C46.4092 29.4021 46.8035 29.476 47.1753 29.6612C47.4146 30.0753 47.2914 30.2971 46.8056 30.3267C46.1943 30.3313 45.9232 30.0355 45.9922 29.4393Z" fill="white"/>
<path fill-rule="evenodd" clip-rule="evenodd" d="M57.9713 28.9957C58.1229 29.0544 58.1476 29.1529 58.0452 29.2914C57.4477 29.9287 56.7822 30.0766 56.0487 29.7351C56.637 29.4067 57.2778 29.1601 57.9713 28.9957Z" fill="white"/>
<path fill-rule="evenodd" clip-rule="evenodd" d="M48.8021 29.883C49.2485 29.8586 49.6921 29.8833 50.1331 29.9569C50.289 30.1622 50.3136 30.3841 50.2071 30.6224C49.4148 30.9727 48.9465 30.7261 48.8021 29.883Z" fill="white"/>
<path fill-rule="evenodd" clip-rule="evenodd" d="M53.8304 30.1788C54.1758 29.8991 54.5701 29.8252 55.0135 29.9569C55.2105 30.4784 55.0133 30.7495 54.4219 30.7703C53.9765 30.8178 53.7794 30.6207 53.8304 30.1788Z" fill="white"/>
<path fill-rule="evenodd" clip-rule="evenodd" d="M16.8579 17.0166C16.7894 17.419 16.691 17.8134 16.5621 18.1997C15.9465 20.0974 15.5028 22.02 15.2311 23.9674C15.2505 23.8581 15.2258 23.7595 15.1572 23.6716C15.002 23.9093 14.7802 24.0078 14.4917 23.9674C14.4917 23.8195 14.4917 23.6716 14.4917 23.5237C14.2945 23.5237 14.0973 23.5237 13.9001 23.5237C13.9001 23.6716 13.9001 23.8195 13.9001 23.9674C13.2574 23.9429 12.6166 23.9676 11.9776 24.0414C11.6021 24.3083 11.4542 24.678 11.5339 25.1505C11.7369 25.1273 11.9342 25.152 12.1254 25.2245C11.685 25.3274 11.2414 25.4014 10.7944 25.4463C10.7944 25.2984 10.7944 25.1505 10.7944 25.0026C10.6389 24.9806 10.491 25.0052 10.3508 25.0766C10.5732 25.2743 10.7211 25.5209 10.7944 25.816C10.5927 26.3607 10.4941 26.9276 10.4987 27.5168C10.3015 27.5168 10.1042 27.5168 9.90709 27.5168C9.90709 27.9112 9.90709 28.3055 9.90709 28.6999C10.0809 28.6675 10.2288 28.7168 10.3508 28.8478C10.2481 29.2305 10.0757 29.5756 9.83315 29.883C9.75964 30.2246 9.73509 30.5697 9.7592 30.9182C9.56206 30.9182 9.36478 30.9182 9.16764 30.9182C9.16764 31.0661 9.16764 31.214 9.16764 31.3619C7.56422 31.8269 5.93743 32.1472 4.28727 32.3232C4.42786 32.4294 4.45249 32.5526 4.36122 32.6929C4.06736 32.4581 3.74693 32.3349 3.39993 32.3232C3.89655 32.5946 3.94584 32.9151 3.54782 33.2845C3.36704 32.918 3.07126 32.7701 2.66048 32.8408C2.66048 33.038 2.66048 33.2352 2.66048 33.4324C2.4633 33.4324 2.2661 33.4324 2.06892 33.4324C2.09307 33.7809 2.06842 34.126 1.99498 34.4676C1.94568 34.3197 1.89638 34.1718 1.84709 34.0239C1.71052 34.2101 1.58727 34.4073 1.47736 34.6155C1.32641 34.4083 1.17852 34.211 1.03369 34.0239C1.04319 33.4738 1.11713 32.9316 1.25553 32.3971C1.41636 32.7568 1.4903 32.7074 1.47736 32.2493C1.76513 32.2947 2.01161 32.2947 2.21681 32.2493C2.13189 31.8321 1.9347 31.487 1.62525 31.214C2.03921 30.189 2.53217 29.203 3.10415 28.2562C3.23514 28.3782 3.28443 28.5261 3.25204 28.6999C3.745 28.6999 4.23798 28.6999 4.73094 28.6999C4.69855 28.5261 4.74784 28.3782 4.87883 28.2562C5.02288 28.5879 5.07227 28.933 5.02672 29.2915C5.2873 29.2703 5.53384 29.3197 5.76617 29.4393C5.8024 29.7081 5.8024 29.9546 5.76617 30.1788C6.0127 30.3267 6.20984 30.5238 6.35773 30.7704C6.45874 30.7167 6.55738 30.6674 6.65351 30.6225C7.64452 31.1396 8.45792 30.9425 9.0937 30.0309C9.38593 28.179 8.62178 27.3902 6.8014 27.6647C6.64345 27.5265 6.44632 27.4771 6.20984 27.5168C6.20984 27.3196 6.20984 27.1224 6.20984 26.9252C6.03607 26.9576 5.88818 26.9084 5.76617 26.7773C6.26234 26.4268 6.65676 25.9832 6.94929 25.4463C6.89842 25.0713 6.75053 24.7508 6.50562 24.485C6.62807 24.3497 6.77596 24.2512 6.94929 24.1892C6.82255 24.0874 6.72405 23.9642 6.65351 23.8195C6.87254 23.6746 7.06982 23.502 7.24507 23.3019C7.14643 23.2033 7.04793 23.1048 6.94929 23.0061C7.28056 22.8616 7.62559 22.7877 7.98452 22.7843C7.98452 22.4885 7.98452 22.1927 7.98452 21.897C8.78771 21.6927 9.57656 21.5941 10.3508 21.6012C10.3508 21.4533 10.3508 21.3054 10.3508 21.1575C10.7452 21.0589 11.1395 20.9604 11.5339 20.8617C11.5339 20.7138 11.5339 20.5659 11.5339 20.4181C11.845 20.4623 12.1408 20.413 12.4212 20.2702C12.6031 19.6011 12.8003 18.9356 13.0128 18.2737C13.2768 18.0153 13.5233 17.7442 13.7522 17.4603C13.8896 17.2844 13.9389 17.0873 13.9001 16.8687C14.2945 16.8687 14.6888 16.8687 15.0832 16.8687C15.0445 17.0873 15.0937 17.2844 15.2311 17.4603C15.6093 16.9872 15.7572 16.4448 15.6748 15.8335C16.52 15.7913 16.9144 16.1857 16.8579 17.0166Z" fill="white"/>
<path fill-rule="evenodd" clip-rule="evenodd" d="M7.83654 22.9322C8.12714 22.9984 8.17639 23.1463 7.98443 23.3758C7.8534 23.2538 7.80415 23.1059 7.83654 22.9322Z" fill="#ECF3F5"/>
<path fill-rule="evenodd" clip-rule="evenodd" d="M51.7599 30.0309C52.0597 30.0069 52.3555 30.0316 52.6473 30.1048C52.7585 30.2041 52.8079 30.3273 52.7952 30.4746C52.7787 30.5658 52.7295 30.6397 52.6473 30.6964C52.3022 30.795 51.9571 30.795 51.612 30.6964C51.4522 30.4433 51.5014 30.2215 51.7599 30.0309Z" fill="white"/>
<path fill-rule="evenodd" clip-rule="evenodd" d="M25.2877 31.214C26.5956 31.3706 27.828 31.7651 28.985 32.3971C29.1561 32.8828 29.1808 33.3759 29.0589 33.876C28.6896 34.1686 28.2705 34.2425 27.8018 34.0979C26.9558 33.5763 26.0684 33.1326 25.1398 32.7669C24.7274 32.2086 24.7767 31.691 25.2877 31.214Z" fill="white"/>
<path fill-rule="evenodd" clip-rule="evenodd" d="M15.0832 36.5381C12.149 37.8075 9.24049 39.1632 6.35767 40.605C5.17455 41.2952 3.99143 41.9853 2.80831 42.6755C2.43288 43.026 2.08781 43.3957 1.77308 43.7847C1.42922 43.6138 1.25668 43.3181 1.25547 42.8973C1.07365 41.7692 0.950414 40.6353 0.885742 39.4958C0.910617 36.9342 0.984562 36.9342 1.10758 39.4958C1.15687 38.6085 1.20618 37.7212 1.25547 36.8338C1.30239 36.5675 1.40099 36.5182 1.55125 36.6859C1.62481 36.2946 1.64946 35.9002 1.62519 35.5028C2.73518 35.2391 3.86901 35.1405 5.02666 35.207C5.02666 35.4042 5.02666 35.6015 5.02666 35.7986C5.2238 35.7986 5.42108 35.7986 5.61822 35.7986C5.58258 36.7037 5.9523 36.9502 6.7274 36.5381C6.77664 36.3902 6.82604 36.2423 6.87529 36.0944C7.02022 36.3249 7.14341 36.5715 7.24501 36.8338C7.47483 36.5982 7.72136 36.4011 7.98446 36.2423C8.0831 36.2423 8.13235 36.193 8.13235 36.0944C8.30257 35.5033 8.52441 34.9117 8.79786 34.3197C8.85908 34.3873 8.93303 34.4367 9.01969 34.4676C9.16374 34.1359 9.21313 33.7908 9.16758 33.4324C9.91354 33.4807 10.653 33.4315 11.3859 33.2845C11.3367 33.1858 11.2873 33.0873 11.238 32.9887C11.4293 32.7516 11.5772 32.5052 11.6817 32.2492C11.7292 32.4782 11.8771 32.5768 12.1254 32.545C12.2498 32.6203 12.3237 32.5218 12.3472 32.2492C12.3965 32.2985 12.4459 32.3479 12.4951 32.3971C12.4837 32.214 12.5083 32.0662 12.5691 31.9535C12.7064 32.1293 12.7557 32.3264 12.7169 32.545C13.1114 32.545 13.5056 32.545 13.9001 32.545C13.9001 32.3479 13.9001 32.1506 13.9001 31.9535C14.0972 31.9535 14.2945 31.9535 14.4916 31.9535C14.5296 32.461 14.6283 32.9541 14.7874 33.4324C14.4916 33.4324 14.1958 33.4324 13.9001 33.4324C13.9001 34.0239 13.9001 34.6155 13.9001 35.207C14.0972 35.207 14.2945 35.207 14.4916 35.207C14.4916 35.3549 14.4916 35.5028 14.4916 35.6507C14.6888 35.6507 14.886 35.6507 15.0832 35.6507C15.0861 35.8937 14.9875 36.0908 14.7874 36.2423C14.8973 36.3431 14.9958 36.4418 15.0832 36.5381Z" fill="white"/>
<path fill-rule="evenodd" clip-rule="evenodd" d="M36.9709 33.4323C37.2225 33.5013 37.4443 33.5013 37.6364 33.4323C37.7429 33.6707 37.7184 33.8926 37.5625 34.0978C37.7351 34.2704 37.9075 34.4429 38.0801 34.6155C38.2854 34.4596 38.5072 34.435 38.7456 34.5415C38.4609 34.9657 38.4609 35.3601 38.7456 35.7246C39.1644 35.7729 39.5588 35.6989 39.9287 35.5028C39.8243 36.5877 40.2186 36.8835 41.1118 36.3901C41.8528 37.1314 42.543 37.9201 43.1823 38.7564C42.9955 39.0976 42.6997 39.2949 42.295 39.3479C42.1716 39.1634 41.9745 39.0647 41.7034 39.0522C41.2473 39.0715 40.853 39.2194 40.5203 39.4958C39.0676 39.8712 37.6379 40.3148 36.2315 40.8268C35.2697 41.013 34.3824 41.3582 33.5694 41.8621C32.5983 40.8548 31.6617 39.8196 30.7595 38.7564C30.3651 38.3127 29.9708 37.869 29.5764 37.4254C29.6091 37.2427 29.7077 37.0948 29.8722 36.9817C30.8212 36.7473 31.5361 36.2051 32.0166 35.3549C32.0658 35.4042 32.1152 35.4536 32.1645 35.5028C32.3196 35.2651 32.5415 35.1666 32.83 35.207C32.83 35.0099 32.83 34.8126 32.83 34.6155C33.0271 34.6155 33.2244 34.6155 33.4216 34.6155C33.4216 34.4183 33.4216 34.221 33.4216 34.0239C33.6187 34.0239 33.816 34.0239 34.0131 34.0239C34.0131 33.8268 34.0131 33.6295 34.0131 33.4323C34.3089 33.4323 34.6047 33.4323 34.9005 33.4323C34.8746 32.5159 35.0225 32.4174 35.3441 33.1366C35.5426 32.914 35.789 32.8153 36.0836 32.8408C36.0836 33.0379 36.0836 33.2352 36.0836 33.4323C36.3794 33.4323 36.6751 33.4323 36.9709 33.4323Z" fill="white"/>
<path fill-rule="evenodd" clip-rule="evenodd" d="M15.2311 23.9674C15.2064 25.7428 15.2311 27.5175 15.305 29.2915C15.4692 30.9699 15.7895 32.5966 16.2663 34.1718C16.2944 34.668 16.4423 35.1117 16.71 35.5028C16.1981 35.8828 15.6558 36.2279 15.0832 36.5381C14.9958 36.4418 14.8973 36.3431 14.7874 36.2423C14.9875 36.0908 15.0861 35.8937 15.0832 35.6507C14.886 35.6507 14.6887 35.6507 14.4916 35.6507C14.4916 35.5028 14.4916 35.3549 14.4916 35.2071C14.2945 35.2071 14.0972 35.2071 13.9 35.2071C13.9 34.6155 13.9 34.0239 13.9 33.4324C14.1958 33.4324 14.4916 33.4324 14.7874 33.4324C14.6283 32.9541 14.5296 32.461 14.4916 31.9535C14.2945 31.9535 14.0972 31.9535 13.9 31.9535C13.9 32.1506 13.9 32.3479 13.9 32.545C13.5056 32.545 13.1113 32.545 12.7169 32.545C12.7557 32.3264 12.7064 32.1293 12.569 31.9535C12.5083 32.0662 12.4837 32.2141 12.4951 32.3971C12.4458 32.3479 12.3964 32.2985 12.3472 32.2493C12.3237 32.5218 12.2497 32.6203 12.1254 32.545C12.0779 32.3161 11.93 32.2175 11.6817 32.2493C11.5771 32.5052 11.4292 32.7516 11.238 32.9887C11.2873 33.0873 11.3367 33.1858 11.3859 33.2845C10.653 33.4315 9.91352 33.4807 9.16756 33.4324C9.21311 33.7909 9.16372 34.1359 9.01967 34.4676C8.93301 34.4367 8.85907 34.3873 8.79784 34.3197C8.52439 34.9117 8.30256 35.5033 8.13233 36.0944C8.15629 35.7946 8.1316 35.4988 8.05839 35.2071C7.34778 35.0368 7.10125 35.3326 7.31894 36.0944C7.51948 36.2245 7.74131 36.2739 7.98445 36.2423C7.72135 36.4011 7.47482 36.5983 7.24499 36.8338C7.14339 36.5715 7.0202 36.325 6.87527 36.0944C6.82602 36.2423 6.77663 36.3902 6.72738 36.5381C5.95229 36.9502 5.58256 36.7037 5.61821 35.7986C5.42107 35.7986 5.22378 35.7986 5.02665 35.7986C5.02665 35.6015 5.02665 35.4042 5.02665 35.2071C3.86899 35.1405 2.73516 35.2391 1.62518 35.5028C1.64944 35.9002 1.62479 36.2946 1.55123 36.686C1.40097 36.5182 1.30238 36.5675 1.25545 36.8338C1.20616 37.7212 1.15685 38.6085 1.10756 39.4959C0.984546 36.9343 0.910601 36.9343 0.885725 39.4959C0.693365 37.7894 0.693365 36.0641 0.885725 34.3197C1.00969 34.2691 1.05899 34.1706 1.03362 34.0239C1.17844 34.211 1.32633 34.4083 1.47729 34.6155C1.5872 34.4073 1.71045 34.2101 1.84701 34.0239C1.8963 34.1718 1.94561 34.3197 1.9949 34.4676C2.06834 34.126 2.093 33.7809 2.06885 33.4324C2.26603 33.4324 2.46322 33.4324 2.66041 33.4324C2.66041 33.2352 2.66041 33.0379 2.66041 32.8408C3.07118 32.7701 3.36696 32.918 3.54775 33.2845C3.94576 32.9151 3.89647 32.5946 3.39986 32.3232C3.74685 32.3349 4.06728 32.4581 4.36114 32.6929C4.45242 32.5526 4.42778 32.4294 4.28719 32.3232C5.93735 32.1472 7.56414 31.8269 9.16756 31.3619C9.16756 31.214 9.16756 31.0661 9.16756 30.9182C9.3647 30.9182 9.56199 30.9182 9.75912 30.9182C9.73502 30.5697 9.75957 30.2246 9.83307 29.883C10.0756 29.5755 10.248 29.2305 10.3507 28.8478C10.2287 28.7168 10.0808 28.6675 9.90701 28.6999C9.90701 28.3055 9.90701 27.9112 9.90701 27.5168C10.1042 27.5168 10.3014 27.5168 10.4986 27.5168C10.494 26.9276 10.5926 26.3607 10.7944 25.816C10.721 25.5208 10.5731 25.2743 10.3507 25.0766C10.4909 25.0052 10.6388 24.9806 10.7944 25.0026C10.7944 25.1505 10.7944 25.2984 10.7944 25.4463C11.2413 25.4014 11.6849 25.3274 12.1254 25.2245C11.9341 25.152 11.7369 25.1273 11.5338 25.1505C11.4541 24.678 11.602 24.3083 11.9775 24.0414C12.6165 23.9676 13.2573 23.9429 13.9 23.9674C13.9 23.8195 13.9 23.6716 13.9 23.5237C14.0972 23.5237 14.2945 23.5237 14.4916 23.5237C14.4916 23.6716 14.4916 23.8195 14.4916 23.9674C14.7801 24.0078 15.002 23.9093 15.1571 23.6716C15.2257 23.7595 15.2504 23.8581 15.2311 23.9674Z" fill="white"/>
<path fill-rule="evenodd" clip-rule="evenodd" d="M11.6816 32.2493C11.9299 32.2175 12.0778 32.3161 12.1253 32.545C11.877 32.5768 11.7291 32.4782 11.6816 32.2493Z" fill="white"/>
<path fill-rule="evenodd" clip-rule="evenodd" d="M36.971 33.4324C36.6752 33.4324 36.3795 33.4324 36.0837 33.4324C36.0837 33.2352 36.0837 33.038 36.0837 32.8408C35.7891 32.8154 35.5427 32.914 35.3442 33.1366C35.0226 32.4174 34.8747 32.5159 34.9006 33.4324C34.6048 33.4324 34.309 33.4324 34.0132 33.4324C34.0132 33.6295 34.0132 33.8268 34.0132 34.0239C33.8161 34.0239 33.6188 34.0239 33.4217 34.0239C33.4217 34.2211 33.4217 34.4184 33.4217 34.6155C33.2245 34.6155 33.0272 34.6155 32.8301 34.6155C32.8301 34.8126 32.8301 35.0099 32.8301 35.2071C32.5416 35.1667 32.3197 35.2652 32.1646 35.5028C32.1153 35.4536 32.0659 35.4042 32.0167 35.3549C31.5362 36.2052 30.8213 36.7473 29.8723 36.9817C29.7078 37.0949 29.6092 37.2428 29.5765 37.4254C29.3934 37.2905 29.1961 37.2658 28.985 37.3515C28.5913 37.7929 28.1476 38.1626 27.6539 38.4606C27.6665 38.2395 27.568 38.0916 27.3582 38.017C27.1706 38.1542 26.9735 38.1789 26.7666 38.0909C27.2716 37.9219 27.321 37.6753 26.9145 37.3515C27.0961 37.2363 27.244 37.0884 27.3582 36.9078C27.3478 36.7947 27.2986 36.7207 27.2103 36.686C28.5405 35.7996 29.8716 34.9123 31.2033 34.0239C31.9606 33.9929 32.5275 33.5986 32.904 32.8408C33.125 33.0252 33.3468 33.0252 33.5695 32.8408C33.6111 32.5218 33.8329 32.2754 34.235 32.1014C34.5067 32.1258 34.8025 32.2244 35.1224 32.3971C35.4985 32.1259 35.5232 31.7809 35.1963 31.3619C35.611 31.1251 36.0547 30.9773 36.5273 30.9182C36.559 31.1614 36.5096 31.3832 36.3794 31.5837C36.5855 31.7569 36.7088 31.9788 36.7492 32.2493C36.7894 32.6565 36.8633 33.051 36.971 33.4324Z" fill="white"/>
<path fill-rule="evenodd" clip-rule="evenodd" d="M63.2953 41.1226C63.2335 41.0159 63.135 40.9419 62.9995 40.9008C63.0488 40.8516 63.0982 40.8022 63.1474 40.7529C63.6059 40.614 64.0495 40.4416 64.4784 40.2353C64.9213 40.1112 65.3403 39.9139 65.7355 39.6437C65.8496 39.6652 65.9483 39.7144 66.0313 39.7916C66.2803 39.4661 66.5761 39.3676 66.9186 39.4958C67.1302 38.8843 67.2042 38.2435 67.1404 37.5733C66.746 37.5733 66.3517 37.5733 65.9573 37.5733C65.9573 36.9817 65.9573 36.3902 65.9573 35.7986C65.4619 35.823 64.969 35.7983 64.4784 35.7247C64.1365 35.4305 63.7422 35.2579 63.2953 35.207C64.6914 34.8487 66.0224 34.3311 67.2883 33.6542C68.0392 33.2726 68.7294 32.8043 69.3588 32.2492C69.6747 32.393 69.8473 32.6395 69.8764 32.9887C70.2702 34.4098 70.3196 35.8394 70.0243 37.2775C69.8452 37.7595 69.5741 38.1784 69.2109 38.5346C67.3238 39.6146 65.352 40.4772 63.2953 41.1226Z" fill="white"/>
<path fill-rule="evenodd" clip-rule="evenodd" d="M22.1819 33.5803C23.3706 33.8286 24.5043 34.2475 25.5833 34.8373C25.971 36.0882 25.5273 36.6305 24.2523 36.4641C23.3717 35.8882 22.4596 35.3706 21.5164 34.9113C21.4242 34.3067 21.6461 33.863 22.1819 33.5803Z" fill="white"/>
<path fill-rule="evenodd" clip-rule="evenodd" d="M63.4432 32.3971C63.6824 32.4767 63.9289 32.5259 64.1827 32.545C64.121 32.9264 64.2196 33.2469 64.4785 33.5063C63.6955 33.7246 62.9561 34.0204 62.2601 34.3936C61.3822 34.5988 60.4949 34.7467 59.5981 34.8373C59.6473 34.8866 59.6967 34.936 59.746 34.9852C58.5186 35.3283 57.2861 35.6733 56.0487 36.0204C55.9811 36.0817 55.9317 36.1556 55.9008 36.2423C56.0251 36.4249 56.173 36.5728 56.3445 36.6859C56.0084 36.7535 55.8112 36.9507 55.7529 37.2775C55.4449 37.6092 55.2231 38.0036 55.0874 38.4606C54.9672 38.1743 54.8933 37.8785 54.8656 37.5733C54.8479 37.4127 54.7492 37.314 54.5698 37.2775C53.8219 37.4767 53.0825 37.6985 52.3515 37.943C52.2277 38.0925 52.1784 38.2651 52.2036 38.4606C52.4016 38.8632 52.2537 39.1097 51.7599 39.2001C51.6088 39.1476 51.5101 39.0489 51.4641 38.9043C51.4641 38.7071 51.4641 38.5099 51.4641 38.3127C50.9218 38.4114 50.3797 38.5099 49.8373 38.6085C49.8283 38.2991 49.6804 38.0773 49.3937 37.943C49.7499 37.7654 50.0457 37.519 50.281 37.2035C50.6754 37.0064 51.0697 36.8091 51.4641 36.612C52.4105 36.6169 53.2978 36.395 54.1262 35.9465C54.2906 35.8333 54.3893 35.6855 54.4219 35.5028C56.3531 34.7363 58.3249 34.0461 60.3375 33.4324C61.3821 33.1171 62.4173 32.772 63.4432 32.3971Z" fill="white"/>
<path fill-rule="evenodd" clip-rule="evenodd" d="M8.13239 36.0944C8.13239 36.193 8.08315 36.2423 7.9845 36.2423C7.74137 36.2739 7.51954 36.2245 7.319 36.0944C7.1013 35.3326 7.34784 35.0368 8.05845 35.207C8.13165 35.4988 8.15635 35.7946 8.13239 36.0944Z" fill="#ECF3F5"/>
<path fill-rule="evenodd" clip-rule="evenodd" d="M63.2953 35.207C63.7422 35.2579 64.1365 35.4305 64.4784 35.7246C64.969 35.7983 65.4619 35.823 65.9573 35.7986C65.9573 36.3902 65.9573 36.9817 65.9573 37.5733C66.3518 37.5733 66.746 37.5733 67.1405 37.5733C67.2042 38.2435 67.1302 38.8843 66.9186 39.4958C66.5761 39.3676 66.2803 39.4661 66.0313 39.7916C65.9483 39.7144 65.8497 39.6652 65.7355 39.6437C65.3403 39.9139 64.9214 40.1112 64.4784 40.2353C64.6038 39.9997 64.801 39.8271 65.07 39.7177C64.7131 39.6461 64.3681 39.6955 64.0348 39.8656C63.0994 39.9395 62.1628 39.9641 61.2249 39.9395C61.2249 40.1366 61.2249 40.3339 61.2249 40.5311C60.7812 40.5311 60.3375 40.5311 59.8938 40.5311C59.8938 40.679 59.8938 40.8268 59.8938 40.9747C59.4654 41.0015 59.0464 40.9523 58.6368 40.8268C58.3793 41.1158 58.0588 41.2637 57.6755 41.2705C57.6755 41.4184 57.6755 41.5663 57.6755 41.7142C56.4924 41.7142 55.3093 41.7142 54.1261 41.7142C54.1261 41.9113 54.1261 42.1086 54.1261 42.3057C53.3312 42.2572 52.5425 42.3065 51.7599 42.4536C51.3255 42.7632 50.9311 43.1082 50.5768 43.4889C50.4394 43.6647 50.3901 43.8618 50.4289 44.0804C49.6894 44.0804 48.95 44.0804 48.2105 44.0804C48.2346 44.429 48.2101 44.774 48.1366 45.1157C47.9408 45.3197 47.7436 45.3691 47.545 45.2635C47.4726 45.4548 47.4479 45.6521 47.4711 45.8551C47.0426 45.8819 46.6237 45.8326 46.214 45.7072C45.8628 45.7542 45.6902 45.9514 45.6964 46.2988C45.1612 46.4088 44.619 46.4581 44.0696 46.4467C44.0204 46.0522 43.971 45.658 43.9217 45.2635C43.1236 45.3057 42.3349 45.2563 41.5555 45.1157C41.4438 44.6495 41.2959 44.2058 41.1118 43.7846C41.272 43.7789 41.4199 43.7295 41.5555 43.6368C42.1592 43.9479 42.8 44.0958 43.4781 44.0804C43.4426 43.6251 43.4918 43.1814 43.6259 42.7494C43.2144 42.3291 43.2636 41.9594 43.7738 41.6402C43.7246 41.591 43.6752 41.5416 43.6259 41.4924C44.3479 41.6499 45.0874 41.6991 45.8443 41.6402C45.7457 41.591 45.6472 41.5416 45.5485 41.4924C45.9429 41.3937 46.3372 41.2952 46.7316 41.1966C47.6866 40.5496 48.7218 40.2045 49.8373 40.1613C49.6402 40.1121 49.4429 40.0627 49.2458 40.0135C49.4935 39.8678 49.74 39.7444 49.9852 39.6437C50.547 39.56 51.04 39.3135 51.4641 38.9043C51.5101 39.0489 51.6088 39.1476 51.7599 39.2001C52.2537 39.1097 52.4016 38.8632 52.2036 38.4606C52.8785 38.6632 53.544 38.614 54.2001 38.3127C54.5602 38.1752 54.782 37.9287 54.8656 37.5733C54.8932 37.8785 54.9672 38.1743 55.0874 38.4606C55.223 38.0036 55.4449 37.6092 55.7529 37.2775C55.8516 37.3267 55.9501 37.3761 56.0487 37.4254C56.6049 37.6448 57.1965 37.7927 57.8234 37.8691C58.035 37.7985 58.2322 37.7 58.4149 37.5733C58.5551 37.2118 58.777 36.916 59.0804 36.6859C60.0414 36.9848 60.9041 36.8122 61.6685 36.1683C61.8309 36.0544 61.8309 35.9312 61.6685 35.7986C62.1359 35.4289 62.6782 35.2317 63.2953 35.207Z" fill="white"/>
<path fill-rule="evenodd" clip-rule="evenodd" d="M19.0762 35.7986C20.2824 36.0408 21.3423 36.5831 22.2559 37.4254C22.3718 38.4925 21.9036 38.9608 20.8509 38.8303C20.0484 38.3676 19.2843 37.85 18.5586 37.2775C18.46 36.9325 18.46 36.5873 18.5586 36.2423C18.7831 36.1442 18.9557 35.9963 19.0762 35.7986Z" fill="white"/>
<path fill-rule="evenodd" clip-rule="evenodd" d="M58.4149 36.2422C58.6201 36.5364 58.5707 36.8075 58.2671 37.0556C57.556 37.3356 56.8166 37.4589 56.0487 37.4254C55.9501 37.3761 55.8516 37.3267 55.7529 37.2775C55.8112 36.9506 56.0083 36.7535 56.3445 36.6859C57.0078 36.4156 57.698 36.2677 58.4149 36.2422Z" fill="#ECF3F5"/>
<path fill-rule="evenodd" clip-rule="evenodd" d="M59.1544 35.7986C58.9613 35.9416 58.8626 36.1389 58.8586 36.3901C59.256 36.4144 59.6504 36.3897 60.0417 36.3162C60.5872 36.1414 61.1295 35.969 61.6685 35.7986C61.8309 35.9312 61.8309 36.0544 61.6685 36.1683C60.9041 36.8122 60.0414 36.9848 59.0805 36.6859C58.777 36.916 58.5551 37.2118 58.4149 37.5733C58.2322 37.7 58.035 37.7985 57.8234 37.869C57.1965 37.7927 56.6049 37.6448 56.0487 37.4254C56.8166 37.4589 57.556 37.3356 58.2671 37.0556C58.5707 36.8075 58.6201 36.5364 58.4149 36.2423C58.4149 36.0944 58.4149 35.9465 58.4149 35.7986C58.6615 35.7986 58.9079 35.7986 59.1544 35.7986Z" fill="white"/>
<path fill-rule="evenodd" clip-rule="evenodd" d="M54.422 35.5028C54.3893 35.6855 54.2907 35.8333 54.1262 35.9465C53.2979 36.395 52.4105 36.6169 51.4642 36.612C51.0698 36.8091 50.6755 37.0064 50.2811 37.2035C50.0458 37.519 49.75 37.7654 49.3937 37.943C49.6805 38.0773 49.8284 38.2991 49.8374 38.6085C49.4708 38.8 49.0764 38.9479 48.6543 39.0522C47.8931 39.273 47.1536 39.5195 46.4359 39.7916C45.3955 40.0266 44.4095 40.3963 43.4781 40.9008C43.1863 40.974 42.8906 40.9987 42.5908 40.9747C41.7979 40.95 41.0585 40.7529 40.3724 40.3832C40.4749 40.2326 40.5734 40.0847 40.6682 39.9395C41.1829 39.6856 41.7252 39.4884 42.295 39.3479C42.6998 39.2949 42.9956 39.0976 43.1823 38.7564C43.244 38.8487 43.3427 38.8979 43.4781 38.9043C43.7739 38.8303 44.0697 38.7564 44.3655 38.6824C47.6815 37.5196 51.0337 36.4598 54.422 35.5028Z" fill="white"/>
<path fill-rule="evenodd" clip-rule="evenodd" d="M54.8655 37.5733C54.782 37.9287 54.5601 38.1752 54.2 38.3127C53.544 38.614 52.8785 38.6632 52.2035 38.4606C52.1784 38.2651 52.2276 38.0925 52.3514 37.943C53.0824 37.6985 53.8219 37.4767 54.5698 37.2775C54.7491 37.314 54.8478 37.4127 54.8655 37.5733Z" fill="#ECF3F5"/>
<path fill-rule="evenodd" clip-rule="evenodd" d="M18.9282 40.8269C18.8003 41.1488 18.5538 41.2967 18.1888 41.2706C17.6312 41.1574 17.1382 40.9109 16.7099 40.5311C16.5317 40.6904 16.433 40.8875 16.4141 41.1227C15.4887 42.7591 15.0943 44.5337 15.231 46.4467C14.7385 46.5011 14.2456 46.4272 13.7521 46.2249C13.9473 45.6923 13.9473 45.1747 13.7521 44.672C13.8787 43.617 14.1005 42.5817 14.4176 41.5663C14.6859 40.7583 15.1541 40.0928 15.8225 39.5698C15.5143 39.3478 15.3172 39.0521 15.231 38.6825C15.5472 37.8793 16.0895 37.6821 16.8578 38.0909C17.3014 38.4359 17.7451 38.7811 18.1888 39.1261C18.8399 39.5141 19.0863 40.0811 18.9282 40.8269Z" fill="white"/>
<path fill-rule="evenodd" clip-rule="evenodd" d="M30.7595 38.7564C31.6616 39.8196 32.5982 40.8548 33.5694 41.8621C33.5694 41.9607 33.5694 42.0592 33.5694 42.1579C31.3312 42.8277 29.1128 43.5177 26.9143 44.2283C26.5199 44.2776 26.1256 44.327 25.7312 44.3762C25.3038 44.4091 24.9094 44.3104 24.5481 44.0805C24.1075 44.2071 23.9104 44.0099 23.9565 43.4889C24.1537 43.4889 24.3509 43.4889 24.5481 43.4889C24.5237 42.9444 24.5482 42.4022 24.622 41.8621C25.0241 41.7225 25.4431 41.6733 25.8791 41.7142C25.8192 41.1895 25.8931 40.6966 26.1009 40.2353C26.5156 40.508 26.9838 40.6067 27.5059 40.5311C27.509 40.0823 27.7061 39.7372 28.0974 39.4959C28.4719 39.4043 28.8169 39.2564 29.1327 39.0522C29.2214 38.7452 29.2706 38.4494 29.2806 38.1649C29.3792 38.1156 29.4777 38.0662 29.5763 38.017C29.8766 38.3286 30.197 38.6244 30.5376 38.9043C30.5943 38.8221 30.6682 38.7728 30.7595 38.7564Z" fill="#ECF3F5"/>
<path fill-rule="evenodd" clip-rule="evenodd" d="M51.4641 38.9043C51.0399 39.3135 50.547 39.56 49.9852 39.6438C49.4821 39.6204 48.989 39.6698 48.5063 39.7916C48.3205 39.7974 48.1727 39.7235 48.0626 39.5698C48.2982 39.4295 48.4953 39.257 48.6542 39.0522C49.0763 38.9479 49.4707 38.8 49.8373 38.6085C50.3796 38.5099 50.9218 38.4114 51.4641 38.3127C51.4641 38.5099 51.4641 38.7072 51.4641 38.9043Z" fill="#ECF3F5"/>
<path fill-rule="evenodd" clip-rule="evenodd" d="M42.2949 39.348C41.7251 39.4885 41.1828 39.6856 40.6682 39.9395C40.9091 39.6887 40.8598 39.5408 40.5203 39.4959C40.853 39.2194 41.2473 39.0716 41.7034 39.0522C41.9745 39.0648 42.1716 39.1634 42.2949 39.348Z" fill="white"/>
<path fill-rule="evenodd" clip-rule="evenodd" d="M48.6543 39.0522C48.4954 39.257 48.2983 39.4295 48.0627 39.5698C48.1727 39.7235 48.3206 39.7974 48.5064 39.7916C48.2453 39.9338 47.9496 39.9832 47.619 39.9395C47.257 39.7956 46.8626 39.7464 46.4359 39.7916C47.1536 39.5195 47.8931 39.273 48.6543 39.0522Z" fill="white"/>
<path fill-rule="evenodd" clip-rule="evenodd" d="M8.57599 42.7494C8.56712 42.3766 8.66561 42.0316 8.87177 41.7142C8.82474 41.5446 8.72625 41.4212 8.57599 41.3445C8.6872 41.2452 8.7366 41.122 8.72388 40.9748C10.2923 39.9261 12.0177 39.3838 13.9 39.348C13.9014 39.6153 13.8274 39.8619 13.6782 40.0874C12.0977 41.1859 10.397 42.0733 8.57599 42.7494Z" fill="white"/>
<path fill-rule="evenodd" clip-rule="evenodd" d="M46.4359 39.7916C46.8626 39.7464 47.257 39.7956 47.619 39.9395C47.304 40.1801 47.0083 40.4512 46.7317 40.7529C45.6255 41.0824 44.4916 41.2796 43.3302 41.3445C42.4537 42.1474 41.4185 42.6403 40.2245 42.8234C39.2699 42.9597 39.122 42.6885 39.7809 42.01C40.7212 41.6312 41.6579 41.2862 42.5908 40.9748C42.8906 40.9987 43.1863 40.974 43.4781 40.9008C44.4095 40.3964 45.3955 40.0266 46.4359 39.7916Z" fill="#ECF3F5"/>
<path fill-rule="evenodd" clip-rule="evenodd" d="M40.5203 39.4958C40.8598 39.5408 40.9091 39.6887 40.6681 39.9395C39.301 40.3799 37.9206 40.7742 36.5272 41.1226C36.3301 41.1226 36.2314 41.024 36.2314 40.8269C37.6379 40.3149 39.0675 39.8712 40.5203 39.4958Z" fill="white"/>
<path fill-rule="evenodd" clip-rule="evenodd" d="M27.2102 36.6859C27.2985 36.7207 27.3478 36.7946 27.3581 36.9078C27.244 37.0884 27.0961 37.2362 26.9145 37.3514C27.321 37.6753 27.2716 37.9219 26.7666 38.0909C26.9735 38.1789 27.1706 38.1542 27.3581 38.017C27.568 38.0916 27.6665 38.2395 27.6539 38.4606C25.6682 39.6795 23.6964 40.9366 21.7383 42.2318C21.0385 43.1233 20.6442 44.1338 20.5552 45.2636C20.2102 45.2636 19.865 45.2636 19.52 45.2636C19.2717 45.2954 19.1238 45.1967 19.0763 44.9678C19.0915 43.0634 19.8804 41.5845 21.4425 40.5311C23.2847 39.1334 25.2072 37.8516 27.2102 36.6859Z" fill="white"/>
<path fill-rule="evenodd" clip-rule="evenodd" d="M36.2315 40.8269C36.2315 41.024 36.3301 41.1227 36.5273 41.1227C35.5358 41.4208 34.55 41.7658 33.5695 42.1579C33.5695 42.0592 33.5695 41.9607 33.5695 41.8621C34.3824 41.3582 35.2697 41.0131 36.2315 40.8269Z" fill="white"/>
<path fill-rule="evenodd" clip-rule="evenodd" d="M40.6682 39.9395C40.5734 40.0847 40.4749 40.2326 40.3724 40.3832C41.0585 40.7529 41.7979 40.95 42.5908 40.9747C41.6579 41.2862 40.7211 41.6312 39.7809 42.01C39.2249 41.7303 38.806 41.8782 38.5238 42.4536C38.2685 42.2945 37.9975 42.2698 37.7104 42.3797C37.7596 42.4289 37.809 42.4783 37.8583 42.5276C37.4145 42.6367 37.02 42.8092 36.6752 43.0452C36.1287 43.3309 35.5372 43.5281 34.9005 43.6368C34.7869 43.7496 34.713 43.8975 34.6787 44.0804C34.4794 43.7897 34.2576 43.7404 34.0131 43.9325C32.5653 44.2674 31.1357 44.6618 29.7243 45.1157C29.5378 44.7661 29.2668 44.6674 28.9109 44.8199C28.5785 44.7462 28.2827 44.5983 28.0236 44.3762C27.8831 44.4534 27.7598 44.5521 27.6539 44.672C27.4726 44.409 27.226 44.2612 26.9144 44.2283C29.113 43.5177 31.3313 42.8277 33.5695 42.1579C34.55 41.7658 35.5358 41.4208 36.5273 41.1226C37.9207 40.7742 39.3011 40.3799 40.6682 39.9395Z" fill="white"/>
<path fill-rule="evenodd" clip-rule="evenodd" d="M35.64 44.3762C35.4428 44.3762 35.2455 44.3762 35.0484 44.3762C35.0293 44.1224 34.9801 43.8759 34.9005 43.6368C35.5372 43.5281 36.1287 43.3309 36.6752 43.0452C37.2174 42.9775 37.735 42.8296 38.228 42.6015C38.3475 42.909 38.3228 43.2048 38.1541 43.4889C37.3326 43.8448 36.4945 44.1406 35.64 44.3762Z" fill="#ECF3F5"/>
<path fill-rule="evenodd" clip-rule="evenodd" d="M49.9853 39.6437C49.74 39.7444 49.4935 39.8678 49.2458 40.0134C49.4429 40.0627 49.6402 40.1121 49.8374 40.1613C48.7218 40.2045 47.6866 40.5495 46.7317 41.1966C46.3372 41.2952 45.943 41.3937 45.5486 41.4923C45.6472 41.5416 45.7457 41.591 45.8443 41.6402C45.0874 41.6991 44.348 41.6498 43.626 41.4923C43.6752 41.5416 43.7246 41.591 43.7739 41.6402C43.2637 41.9594 43.2144 42.3291 43.626 42.7494C43.4918 43.1814 43.4426 43.6251 43.4781 44.0804C42.8 44.0958 42.1592 43.9479 41.5555 43.6368C41.4199 43.7295 41.272 43.7789 41.1119 43.7846C40.5366 43.9736 39.9942 44.2449 39.4851 44.598C39.3549 44.7986 39.3055 45.0204 39.3372 45.2635C38.7456 45.2635 38.1541 45.2635 37.5625 45.2635C37.6289 44.8972 37.5304 44.6014 37.2667 44.3762C36.9964 44.5677 36.7006 44.7156 36.3794 44.8199C36.5765 44.9185 36.7738 45.017 36.9709 45.1157C36.0123 45.0053 35.4207 45.3996 35.1963 46.2988C34.6097 46.3967 34.0182 46.4459 33.4216 46.4467C33.4216 46.6438 33.4216 46.8411 33.4216 47.0382C33.2244 47.0382 33.0272 47.0382 32.83 47.0382C32.83 47.2354 32.83 47.4326 32.83 47.6298C31.5483 47.6298 30.2666 47.6298 28.9849 47.6298C28.9849 47.4326 28.9849 47.2354 28.9849 47.0382C28.6795 47.0357 28.3837 46.9865 28.0975 46.8903C28.1594 46.7836 28.2578 46.7096 28.3933 46.6685C28.3441 46.6192 28.2947 46.5699 28.2454 46.5206C29.6069 46.4554 30.9379 46.2336 32.2385 45.8551C32.1667 45.4688 32.2901 45.4688 32.6082 45.8551C33.2048 45.4753 33.8703 45.3027 34.6047 45.3375C34.5371 45.2763 34.4877 45.2023 34.4568 45.1157C34.6689 44.8613 34.7921 44.5655 34.8265 44.2283C34.898 44.3685 34.9225 44.5164 34.9005 44.672C35.2002 44.6959 35.496 44.6712 35.7878 44.598C35.7056 44.5414 35.6563 44.4674 35.6399 44.3762C36.4944 44.1406 37.3325 43.8448 38.1541 43.4889C38.3228 43.2048 38.3475 42.909 38.228 42.6015C37.7349 42.8296 37.2173 42.9775 36.6752 43.0452C37.02 42.8092 37.4145 42.6367 37.8583 42.5276C37.809 42.4783 37.7596 42.4289 37.7104 42.3797C37.9974 42.2698 38.2685 42.2945 38.5238 42.4536C38.806 41.8782 39.2249 41.7303 39.7808 42.01C39.122 42.6885 39.2699 42.9597 40.2245 42.8234C41.4184 42.6403 42.4537 42.1474 43.3302 41.3445C44.4916 41.2795 45.6255 41.0824 46.7317 40.7529C47.0082 40.4512 47.304 40.1801 47.619 39.9395C47.9495 39.9831 48.2453 39.9337 48.5064 39.7916C48.9891 39.6697 49.4821 39.6204 49.9853 39.6437Z" fill="white"/>
<path fill-rule="evenodd" clip-rule="evenodd" d="M26.9144 44.2283C27.226 44.2612 27.4726 44.4091 27.6539 44.672C27.7598 44.5521 27.8831 44.4534 28.0236 44.3762C28.2827 44.5984 28.5785 44.7462 28.911 44.8199C29.2668 44.6674 29.5379 44.7661 29.7244 45.1157C29.2489 45.1756 28.8052 45.3235 28.3933 45.5593C28.0683 45.6148 27.7725 45.7134 27.506 45.8551C26.9144 45.9538 26.3229 46.0523 25.7313 46.1509C25.1583 46.1296 24.5914 46.179 24.0306 46.2988C23.8669 46.2862 23.719 46.2368 23.5869 46.1509C23.5545 45.9382 23.4806 45.7411 23.3651 45.5593C22.4008 45.7489 21.4643 45.6997 20.5552 45.4115C22.3482 45.3198 24.0735 44.9747 25.7313 44.3762C26.1257 44.327 26.52 44.2776 26.9144 44.2283Z" fill="white"/>
<path fill-rule="evenodd" clip-rule="evenodd" d="M34.0131 43.9326C34.1552 44.1936 34.2046 44.4894 34.161 44.8199C32.607 45.1485 31.0788 45.5675 29.5764 46.077C29.1328 46.1262 28.6891 46.1756 28.2454 46.2249C27.7944 46.595 27.3014 46.8661 26.7665 47.0382C25.8721 47.2571 24.9602 47.405 24.0306 47.4819C23.3535 47.6468 23.0332 47.4004 23.0693 46.7425C23.984 46.5873 24.8713 46.39 25.7313 46.1509C26.3228 46.0523 26.9144 45.9538 27.506 45.8551C27.7969 45.8198 28.0681 45.869 28.3194 46.003C28.3908 45.8628 28.4153 45.7149 28.3933 45.5593C28.8052 45.3235 29.2489 45.1756 29.7243 45.1157C31.1356 44.6618 32.5653 44.2674 34.0131 43.9326Z" fill="#ECF3F5"/>
<path fill-rule="evenodd" clip-rule="evenodd" d="M34.9006 43.6368C34.9801 43.8759 35.0294 44.1225 35.0484 44.3762C35.2456 44.3762 35.4429 44.3762 35.64 44.3762C35.6564 44.4675 35.7057 44.5414 35.7879 44.5981C35.4961 44.6713 35.2003 44.696 34.9006 44.672C34.9226 44.5164 34.898 44.3685 34.8266 44.2283C34.7921 44.5655 34.669 44.8613 34.4569 45.1157C34.4878 45.2023 34.5372 45.2763 34.6048 45.3375C33.8703 45.3028 33.2048 45.4753 32.6083 45.8551C32.2901 45.4688 32.1668 45.4688 32.2385 45.8551C30.938 46.2336 29.607 46.4554 28.2455 46.5206C28.2947 46.5699 28.3441 46.6193 28.3934 46.6685C28.2579 46.7096 28.1594 46.7836 28.0976 46.8904C27.6606 46.9878 27.2169 47.0371 26.7666 47.0382C27.3015 46.8661 27.7944 46.595 28.2455 46.2249C28.6892 46.1756 29.1328 46.1262 29.5765 46.077C31.0789 45.5675 32.6071 45.1485 34.1611 44.8199C34.2047 44.4894 34.1553 44.1936 34.0132 43.9326C34.2577 43.7405 34.4795 43.7897 34.6787 44.0804C34.713 43.8975 34.787 43.7496 34.9006 43.6368Z" fill="white"/>
<path fill-rule="evenodd" clip-rule="evenodd" d="M8.72396 40.9747C8.73667 41.122 8.68728 41.2452 8.57607 41.3445C8.72632 41.4212 8.82482 41.5446 8.87185 41.7142C8.66569 42.0316 8.56719 42.3766 8.57607 42.7494C8.42818 42.8481 8.28029 42.9465 8.1324 43.0452C6.43329 43.5236 5.00364 44.411 3.84359 45.7072C3.64141 45.5071 3.49352 45.5565 3.39992 45.8551C3.45104 46.032 3.52499 46.032 3.62175 45.8551C3.71477 46.4286 3.56688 46.9217 3.17808 47.334C2.90696 46.9643 2.58652 46.6438 2.2168 46.3727C2.40633 46.0354 2.50492 45.6657 2.51258 45.2635C3.18401 44.4195 3.97275 43.7048 4.87882 43.1191C6.09773 42.288 7.37934 41.5731 8.72396 40.9747Z" fill="white"/>
<path fill-rule="evenodd" clip-rule="evenodd" d="M13.7522 44.672C13.9474 45.1747 13.9474 45.6923 13.7522 46.2248C14.2457 46.4272 14.7386 46.5011 15.2311 46.4467C15.3778 46.4721 15.4763 46.4227 15.5268 46.2988C16.6474 46.0545 17.7813 45.8573 18.9283 45.7072C18.8863 45.424 18.9356 45.1776 19.0762 44.9678C19.1237 45.1967 19.2716 45.2954 19.5199 45.2636C19.6839 45.3804 19.881 45.4543 20.1114 45.4854C19.7312 45.6186 19.3862 45.8158 19.0762 46.077C19.2164 46.1484 19.3643 46.1729 19.5199 46.1509C19.4968 46.6885 19.3244 46.7377 19.0023 46.2988C18.9292 46.5404 18.9047 46.787 18.9283 47.0382C19.2115 46.9962 19.4579 47.0455 19.6678 47.1861C18.5802 47.5618 17.4463 47.8082 16.2663 47.9256C15.4474 47.7321 14.6093 47.7321 13.7522 47.9256C13.4045 47.6699 13.0101 47.5712 12.5691 47.6298C12.6112 47.3654 12.562 47.1188 12.4212 46.8903C11.9393 46.7547 11.4464 46.7053 10.9423 46.7425C11.7534 46.6202 12.5915 46.5462 13.4564 46.5206C13.5694 45.9103 13.668 45.2942 13.7522 44.672Z" fill="white"/>
<path fill-rule="evenodd" clip-rule="evenodd" d="M2.51256 45.2635C2.5049 45.6657 2.40631 46.0354 2.21678 46.3727C2.5865 46.6438 2.90693 46.9643 3.17806 47.334C3.56686 46.9217 3.71475 46.4286 3.62173 45.8551C3.52497 46.032 3.45102 46.032 3.3999 45.8551C3.4935 45.5565 3.64139 45.5071 3.84357 45.7072C3.82146 45.8628 3.84611 46.0107 3.91751 46.1509C4.7413 46.4974 5.60405 46.6453 6.50559 46.5946C7.97679 46.7351 9.45569 46.7845 10.9423 46.7424C11.4464 46.7053 11.9394 46.7547 12.4212 46.8903C12.562 47.1188 12.6112 47.3654 12.5691 47.6298C13.0101 47.5712 13.4045 47.6699 13.7522 47.9256C14.6094 47.7321 15.4475 47.7321 16.2663 47.9256C11.6238 48.3617 6.98992 48.3124 2.36467 47.7777C1.9328 47.5739 1.51378 47.3274 1.1076 47.0382C1.04705 46.7136 1.121 46.4178 1.32944 46.1509C1.72381 45.8551 2.11818 45.5593 2.51256 45.2635Z" fill="white"/>
<path fill-rule="evenodd" clip-rule="evenodd" d="M64.4785 40.2353C64.0496 40.4416 63.6059 40.614 63.1475 40.7529C63.0982 40.8022 63.0488 40.8516 62.9996 40.9008C63.1351 40.9419 63.2336 41.0159 63.2954 41.1226C59.5008 42.3628 55.7049 43.6199 51.9079 44.8938C48.2567 45.8729 44.6581 46.982 41.1119 48.2214C36.3337 49.7539 31.5027 51.1097 26.6187 52.2883C25.3983 52.5575 24.1659 52.7301 22.9214 52.8059C22.9588 51.254 22.737 49.7258 22.2559 48.2214C21.6821 47.1672 20.8195 46.8222 19.6678 47.1861C19.458 47.0455 19.2116 46.9962 18.9284 47.0382C18.9047 46.787 18.9293 46.5404 19.0023 46.2988C19.3244 46.7377 19.4969 46.6885 19.5199 46.1509C19.3644 46.1729 19.2165 46.1484 19.0763 46.077C19.3863 45.8158 19.7313 45.6186 20.1115 45.4854C19.8811 45.4543 19.684 45.3804 19.5199 45.2636C19.865 45.2636 20.2101 45.2636 20.5552 45.2636C20.5552 45.3128 20.5552 45.3622 20.5552 45.4114C21.4643 45.6997 22.4008 45.7489 23.3651 45.5593C23.4806 45.7411 23.5545 45.9382 23.5869 46.1509C23.719 46.2368 23.8669 46.2862 24.0306 46.2988C24.5914 46.179 25.1582 46.1296 25.7313 46.1509C24.8713 46.39 23.984 46.5873 23.0693 46.7425C23.0332 47.4004 23.3535 47.6468 24.0306 47.4819C24.9602 47.405 25.8721 47.2571 26.7666 47.0382C27.2169 47.0371 27.6605 46.9878 28.0976 46.8903C28.3837 46.9865 28.6795 47.0357 28.9849 47.0382C28.9849 47.2354 28.9849 47.4327 28.9849 47.6298C30.2667 47.6298 31.5483 47.6298 32.83 47.6298C32.83 47.4327 32.83 47.2354 32.83 47.0382C33.0272 47.0382 33.2245 47.0382 33.4216 47.0382C33.4216 46.8411 33.4216 46.6438 33.4216 46.4467C34.0182 46.4459 34.6098 46.3967 35.1963 46.2988C35.4208 45.3996 36.0123 45.0053 36.971 45.1157C36.7738 45.017 36.5765 44.9185 36.3794 44.8199C36.7006 44.7156 36.9964 44.5677 37.2667 44.3762C37.5304 44.6015 37.6289 44.8972 37.5625 45.2636C38.1541 45.2636 38.7456 45.2636 39.3372 45.2636C39.3056 45.0204 39.3549 44.7986 39.4851 44.5981C39.9943 44.2449 40.5366 43.9737 41.1119 43.7847C41.296 44.2059 41.4439 44.6495 41.5556 45.1157C42.3349 45.2563 43.1236 45.3057 43.9218 45.2636C43.971 45.658 44.0204 46.0523 44.0697 46.4467C44.6191 46.4581 45.1613 46.4088 45.6965 46.2988C45.6903 45.9514 45.8628 45.7543 46.2141 45.7072C46.6237 45.8326 47.0427 45.8819 47.4712 45.8551C47.4479 45.6521 47.4726 45.4548 47.5451 45.2636C47.7437 45.3692 47.9408 45.3198 48.1367 45.1157C48.2102 44.774 48.2347 44.429 48.2106 44.0804C48.95 44.0804 49.6895 44.0804 50.429 44.0804C50.3902 43.8619 50.4395 43.6647 50.5768 43.4889C50.9312 43.1082 51.3256 42.7632 51.76 42.4536C52.5426 42.3065 53.3313 42.2573 54.1262 42.3058C54.1262 42.1086 54.1262 41.9113 54.1262 41.7142C55.3093 41.7142 56.4924 41.7142 57.6756 41.7142C57.6756 41.5663 57.6756 41.4184 57.6756 41.2705C58.0589 41.2637 58.3794 41.1158 58.6368 40.8269C59.0465 40.9523 59.4655 41.0015 59.8939 40.9747C59.8939 40.8269 59.8939 40.679 59.8939 40.5311C60.3376 40.5311 60.7813 40.5311 61.2249 40.5311C61.2249 40.3339 61.2249 40.1367 61.2249 39.9395C62.1628 39.9641 63.0994 39.9395 64.0348 39.8656C64.3682 39.6955 64.7132 39.6461 65.0701 39.7177C64.801 39.8271 64.6039 39.9997 64.4785 40.2353Z" fill="white"/>
<path fill-rule="evenodd" clip-rule="evenodd" d="M28.3932 45.5593C28.4152 45.7149 28.3907 45.8628 28.3193 46.003C28.068 45.869 27.7968 45.8198 27.5059 45.8551C27.7724 45.7134 28.0681 45.6148 28.3932 45.5593Z" fill="white"/>
<path fill-rule="evenodd" clip-rule="evenodd" d="M68.0278 45.2635C68.0278 45.3622 68.0278 45.4607 68.0278 45.5593C66.946 47.624 65.8615 49.6945 64.7742 51.7707C63.8419 52.9416 62.9793 54.1739 62.1861 55.468C61.8782 55.8943 61.5085 56.2395 61.077 56.5032C61.0827 56.343 61.1321 56.1951 61.2249 56.0595C61.0895 55.9371 60.991 55.7892 60.9291 55.6158C61.1262 55.3693 61.3235 55.1229 61.5206 54.8764C61.4619 54.6566 61.4127 54.4348 61.3727 54.2109C61.4789 53.7203 61.6268 53.252 61.8164 52.8059C61.5476 52.2768 61.4982 51.7345 61.6685 51.1791C62.0698 51.3671 62.3655 51.2439 62.5559 50.8094C62.4333 50.264 62.6797 49.9929 63.2953 49.996C63.2953 49.7989 63.2953 49.6016 63.2953 49.4045C63.4925 49.4045 63.6897 49.4045 63.8869 49.4045C63.8869 49.2073 63.8869 49.01 63.8869 48.8129C64.1815 48.7875 64.4279 48.8861 64.6263 49.1087C64.8248 48.8861 65.0712 48.7875 65.3658 48.8129C65.4687 48.1583 65.7152 47.5668 66.1052 47.0382C66.2232 47.2716 66.2972 47.518 66.3271 47.7777C66.5019 47.1801 66.699 46.6871 66.9186 46.2988C67.2252 45.8789 67.5949 45.5339 68.0278 45.2635Z" fill="white"/>
<path fill-rule="evenodd" clip-rule="evenodd" d="M1.77306 50.5876C1.80057 51.2118 1.94846 51.8034 2.21673 52.3623C2.17297 52.6437 2.07439 52.8902 1.92095 53.1017C1.02526 52.7718 0.458335 52.131 0.220218 51.1792C-0.166884 50.0932 -0.0436477 49.0827 0.589943 48.1474C1.04209 48.0655 1.3625 48.2381 1.55123 48.665C1.57715 49.3333 1.6511 49.9743 1.77306 50.5876Z" fill="white"/>
<path fill-rule="evenodd" clip-rule="evenodd" d="M10.2029 49.1087C10.5791 49.0501 10.8996 49.1488 11.1642 49.4045C11.4996 51.023 11.7708 52.6498 11.9776 54.2849C11.5416 54.3258 11.1226 54.2766 10.7205 54.137C10.4593 52.7076 10.1882 51.2781 9.9071 49.8482C9.89778 49.5503 9.99628 49.3038 10.2029 49.1087Z" fill="white"/>
<path fill-rule="evenodd" clip-rule="evenodd" d="M15.0832 48.8129C15.4222 48.775 15.7427 48.8243 16.0445 48.9608C16.3882 50.6791 16.6593 52.4046 16.8579 54.1369C16.4219 54.1779 16.003 54.1287 15.6009 53.9891C15.3963 52.4977 15.1251 51.0188 14.7875 49.5524C14.7782 49.2545 14.8766 49.008 15.0832 48.8129Z" fill="white"/>
<path fill-rule="evenodd" clip-rule="evenodd" d="M17.4494 48.665C17.7884 48.6272 18.1088 48.6764 18.4107 48.8129C18.9064 50.4569 19.2269 52.1329 19.372 53.8412C18.8873 53.8832 18.4191 53.8339 17.967 53.6933C17.7934 52.2074 17.5716 50.7285 17.3015 49.2566C17.3197 49.0458 17.3691 48.8487 17.4494 48.665Z" fill="white"/>
<path fill-rule="evenodd" clip-rule="evenodd" d="M20.1114 48.2214C20.5292 48.1594 20.8495 48.3073 21.0727 48.665C21.259 49.9171 21.5301 51.1494 21.8861 52.3623C21.8126 52.7051 21.7633 53.0503 21.7382 53.3975C21.3408 53.4218 20.9464 53.3971 20.5551 53.3236C20.2625 51.9053 19.9668 50.4757 19.6677 49.0348C19.6844 48.68 19.8323 48.4089 20.1114 48.2214Z" fill="white"/>
<path fill-rule="evenodd" clip-rule="evenodd" d="M12.569 49.1087C12.908 49.0708 13.2285 49.1201 13.5303 49.2566C13.9451 50.9141 14.2162 52.5903 14.3437 54.2848C13.8727 54.3558 13.4536 54.2573 13.0866 53.9891C12.8709 52.5337 12.649 51.0795 12.4211 49.6263C12.443 49.4405 12.4924 49.268 12.569 49.1087Z" fill="white"/>
<path fill-rule="evenodd" clip-rule="evenodd" d="M6.80138 54.1369C6.40696 54.1369 6.01268 54.1369 5.61826 54.1369C5.65331 53.946 5.60406 53.7981 5.47037 53.6933C5.36315 52.1641 5.2892 50.6359 5.24854 49.1087C5.68111 48.8842 6.02614 48.9828 6.28376 49.4045C6.55381 50.7764 6.77565 52.1567 6.94927 53.5454C6.94764 53.7739 6.8984 53.971 6.80138 54.1369Z" fill="white"/>
<path fill-rule="evenodd" clip-rule="evenodd" d="M2.80824 51.1792C2.95449 51.9889 3.00378 52.827 2.95613 53.6933C2.58173 53.5312 2.23666 53.3341 1.9209 53.1017C2.07433 52.8903 2.17292 52.6437 2.21668 52.3623C2.41386 52.3623 2.61106 52.3623 2.80824 52.3623C2.80824 51.9679 2.80824 51.5736 2.80824 51.1792Z" fill="white"/>
<path fill-rule="evenodd" clip-rule="evenodd" d="M4.43512 52.9538C4.43512 53.2989 4.43512 53.644 4.43512 53.9891C3.91204 54.017 3.41908 53.9185 2.95622 53.6933C3.00387 52.8269 2.95458 51.9888 2.80833 51.1792C2.75835 50.4861 2.73369 49.7959 2.73439 49.1087C3.06248 48.7953 3.43221 48.7461 3.84356 48.9608C4.10113 50.2816 4.29831 51.6126 4.43512 52.9538Z" fill="white"/>
<path fill-rule="evenodd" clip-rule="evenodd" d="M7.68866 49.1087C8.10645 49.0467 8.42678 49.1946 8.64995 49.5524C9.08992 51.0996 9.361 52.6771 9.46334 54.2848C8.94469 54.3597 8.47632 54.2612 8.05839 53.9891C7.95013 52.6493 7.77754 51.3183 7.54077 49.996C7.55157 49.6869 7.60081 49.3912 7.68866 49.1087Z" fill="white"/>
<path fill-rule="evenodd" clip-rule="evenodd" d="M68.1757 41.8621C68.7025 41.8716 68.949 42.1426 68.9151 42.6755C68.7135 43.3303 68.541 43.9958 68.3975 44.672C68.3076 44.9036 68.1842 45.1009 68.0278 45.2636C67.5949 45.5339 67.2252 45.8789 66.9186 46.2988C66.699 46.6871 66.5018 47.1801 66.327 47.7777C66.2972 47.518 66.2232 47.2716 66.1052 47.0382C65.7152 47.5668 65.4687 48.1584 65.3658 48.8129C65.0712 48.7875 64.8248 48.8861 64.6263 49.1087C64.4278 48.8861 64.1815 48.7875 63.8869 48.8129C63.8869 49.0101 63.8869 49.2073 63.8869 49.4045C63.6897 49.4045 63.4924 49.4045 63.2953 49.4045C63.2953 49.6016 63.2953 49.7989 63.2953 49.996C62.6796 49.9929 62.4332 50.264 62.5558 50.8094C62.3655 51.2439 62.0697 51.3671 61.6685 51.1792C61.4981 51.7345 61.5475 52.2768 61.8164 52.806C61.6268 53.252 61.4789 53.7204 61.3727 54.2109C61.4127 54.4348 61.4619 54.6566 61.5206 54.8764C61.3235 55.1229 61.1262 55.3693 60.9291 55.6159C60.991 55.7892 61.0895 55.9371 61.2248 56.0595C61.1321 56.1951 61.0827 56.343 61.0769 56.5032C60.7926 56.9621 60.4721 57.4058 60.1157 57.8342C59.2683 58.6568 58.4549 59.4949 57.6755 60.3483C57.7571 60.0776 57.7571 59.8312 57.6755 59.6089C57.8167 59.2467 58.0385 58.9509 58.341 58.7215C58.3902 58.7708 58.4396 58.8202 58.4889 58.8694C58.5616 58.7143 58.5371 58.5664 58.4149 58.4258C58.5979 58.3103 58.7458 58.1624 58.8586 57.9821C58.6943 57.8178 58.5957 57.6205 58.5628 57.3905C58.8213 56.7261 58.92 56.0359 58.8586 55.3201C58.6615 55.3201 58.4642 55.3201 58.267 55.3201C58.267 55.5172 58.267 55.7145 58.267 55.9116C58.0699 55.9116 57.8726 55.9116 57.6755 55.9116C57.7 56.6527 57.6753 57.3922 57.6015 58.13C57.3024 58.3537 57.3271 58.5509 57.6755 58.7215C57.3016 58.9162 57.3016 59.0888 57.6755 59.2392C57.1886 59.5546 56.7204 59.5299 56.2705 59.1652C55.9907 59.5926 55.8675 59.5432 55.9008 59.0173C55.7037 59.0173 55.5064 59.0173 55.3092 59.0173C55.3092 59.1652 55.3092 59.3131 55.3092 59.461C55.4571 59.461 55.605 59.461 55.7529 59.461C55.7529 59.6089 55.7529 59.7568 55.7529 59.9047C55.2131 60.0784 54.6708 60.0784 54.1261 59.9047C54.1261 59.5596 54.1261 59.2145 54.1261 58.8694C53.7317 58.8694 53.3374 58.8694 52.943 58.8694C52.943 58.6723 52.943 58.475 52.943 58.2779C52.7459 58.2779 52.5486 58.2779 52.3514 58.2779C52.3514 57.8835 52.3514 57.4892 52.3514 57.0948C52.4993 57.0948 52.6472 57.0948 52.7951 57.0948C52.7954 57.97 53.0665 58.1179 53.6085 57.5384C54.0498 56.6607 54.2224 55.7241 54.1261 54.7285C53.929 54.7285 53.7317 54.7285 53.5346 54.7285C53.5048 54.297 53.4062 53.9519 53.2388 53.6933C55.1834 52.9182 57.0566 51.9816 58.8586 50.8834C60.116 50.1306 61.2991 49.2678 62.408 48.2953C64.3611 46.17 66.2837 44.0256 68.1757 41.8621Z" fill="white"/>
<path fill-rule="evenodd" clip-rule="evenodd" d="M48.6543 54.8764C49.2302 55.117 49.4768 55.5607 49.3938 56.2074C49.0992 56.2328 48.8528 56.1342 48.6543 55.9116C48.377 56.9347 48.1799 57.97 48.0628 59.0173C48.0937 59.104 48.1431 59.1779 48.2107 59.2391C48.0752 59.2803 47.9767 59.3542 47.9149 59.461C47.617 59.445 47.3707 59.5435 47.1754 59.7568C46.7843 59.4991 46.3406 59.4005 45.8444 59.461C45.8444 59.0666 45.8444 58.6723 45.8444 58.2779C45.45 58.2779 45.0557 58.2779 44.6613 58.2779C44.6613 58.6723 44.6613 59.0666 44.6613 59.461C43.8726 59.461 43.0838 59.461 42.2951 59.461C42.2951 59.2638 42.2951 59.0666 42.2951 58.8694C41.9006 58.8694 41.5064 58.8694 41.1119 58.8694C41.1119 58.6723 41.1119 58.475 41.1119 58.2779C40.7175 58.2779 40.3233 58.2779 39.9288 58.2779C39.9288 58.6723 39.9288 59.0666 39.9288 59.461C39.6823 59.461 39.4359 59.461 39.1894 59.461C39.2298 59.7495 39.1313 59.9714 38.8936 60.1265C39.2525 60.2599 39.5976 60.3832 39.9288 60.4962C39.5665 60.4663 39.2215 60.5156 38.8936 60.6441C38.6391 60.1008 38.1954 59.9036 37.5626 60.0525C37.5626 59.8554 37.5626 59.6581 37.5626 59.461C37.1682 59.461 36.7739 59.461 36.3795 59.461C36.3795 59.0666 36.3795 58.6723 36.3795 58.2779C35.985 58.2779 35.5908 58.2779 35.1964 58.2779C35.1964 58.0807 35.1964 57.8834 35.1964 57.6863C35.3935 57.6863 35.5908 57.6863 35.7879 57.6863C35.7879 57.4892 35.7879 57.2919 35.7879 57.0947C33.8653 57.0947 31.9428 57.0947 30.0202 57.0947C29.9085 57.5402 29.7114 57.9345 29.4286 58.2779C28.8776 58.2301 28.3353 58.2795 27.8019 58.4258C27.9648 58.5257 28.1127 58.6242 28.2455 58.7215C27.8764 58.8813 27.5312 59.0785 27.2103 59.3131C27.0624 59.3131 26.9145 59.3131 26.7666 59.3131C26.7166 58.8953 26.8645 58.5748 27.2103 58.3518C26.9757 57.9337 26.7294 57.9092 26.4708 58.2779C26.2367 57.9096 26.0888 57.5152 26.0272 57.0947C25.7314 57.0947 25.4356 57.0947 25.1398 57.0947C25.1861 56.6885 25.1369 56.2941 24.9919 55.9116C24.8933 56.0103 24.7948 56.1088 24.6962 56.2074C24.0593 56.0873 23.4185 55.9887 22.7736 55.9116C22.7243 56.306 22.675 56.7003 22.6257 57.0947C22.4778 57.0947 22.3299 57.0947 22.182 57.0947C22.1745 56.7886 22.273 56.5175 22.4778 56.2813C22.3991 55.9826 22.202 55.8594 21.8863 55.9116C21.925 56.1302 21.8758 56.3273 21.7384 56.5032C21.2349 55.8955 21.3828 55.575 22.182 55.5419C22.0942 55.4733 21.9955 55.4486 21.8863 55.468C25.2808 54.8313 28.6575 54.0424 32.0167 53.1017C32.1893 53.1264 32.3617 53.151 32.5343 53.1757C33.588 53.7904 34.7219 54.2341 35.9358 54.5067C40.1443 55.65 44.3837 55.7732 48.6543 54.8764Z" fill="white"/>
<path fill-rule="evenodd" clip-rule="evenodd" d="M53.2387 53.6933C53.4061 53.952 53.5048 54.297 53.5345 54.7285C53.7316 54.7285 53.9289 54.7285 54.126 54.7285C54.2223 55.7241 54.0497 56.6607 53.6084 57.5384C53.0664 58.1179 52.7953 57.97 52.795 57.0948C52.6471 57.0948 52.4993 57.0948 52.3514 57.0948C52.3514 57.4892 52.3514 57.8835 52.3514 58.2779C52.5485 58.2779 52.7458 58.2779 52.9429 58.2779C52.9429 58.475 52.9429 58.6723 52.9429 58.8694C53.3373 58.8694 53.7316 58.8694 54.126 58.8694C54.126 59.2145 54.126 59.5596 54.126 59.9047C54.6707 60.0784 55.213 60.0784 55.7528 59.9047C55.7528 59.7568 55.7528 59.6089 55.7528 59.461C55.6049 59.461 55.4571 59.461 55.3092 59.461C55.3092 59.3131 55.3092 59.1652 55.3092 59.0173C55.5063 59.0173 55.7036 59.0173 55.9007 59.0173C55.8674 59.5432 55.9906 59.5926 56.2704 59.1652C56.7203 59.5299 57.1885 59.5546 57.6754 59.2392C57.3015 59.0888 57.3015 58.9162 57.6754 58.7216C57.327 58.5509 57.3023 58.3538 57.6015 58.13C57.6753 57.3922 57.7 56.6527 57.6754 55.9116C57.8725 55.9116 58.0698 55.9116 58.267 55.9116C58.267 55.7145 58.267 55.5172 58.267 55.3201C58.4641 55.3201 58.6614 55.3201 58.8585 55.3201C58.9199 56.0359 58.8213 56.7261 58.5627 57.3905C58.5956 57.6205 58.6942 57.8178 58.8585 57.9821C58.7457 58.1624 58.5978 58.3103 58.4149 58.4258C58.537 58.5664 58.5616 58.7143 58.4888 58.8694C58.4395 58.8202 58.3902 58.7708 58.3409 58.7216C58.0385 58.9509 57.8166 59.2467 57.6754 59.6089C57.757 59.8312 57.757 60.0776 57.6754 60.3483C57.08 60.8948 56.4884 61.4371 55.9007 61.9751C51.223 65.2938 46.0468 67.4629 40.3723 68.4823C29.7595 69.9554 20.344 67.2934 12.1253 60.4962C10.6042 59.271 9.22399 57.8907 7.98438 56.3553C12.6287 56.4204 17.2625 56.1246 21.886 55.468C21.9953 55.4486 22.094 55.4733 22.1818 55.5419C21.3826 55.5751 21.2347 55.8955 21.7381 56.5032C21.8755 56.3274 21.9248 56.1302 21.886 55.9116C22.2018 55.8594 22.3989 55.9826 22.4776 56.2814C22.2728 56.5176 22.1743 56.7886 22.1818 57.0948C22.3297 57.0948 22.4776 57.0948 22.6255 57.0948C22.6747 56.7003 22.7241 56.3061 22.7734 55.9116C23.4183 55.9887 24.0591 56.0873 24.6959 56.2074C24.7946 56.1088 24.8931 56.0103 24.9917 55.9116C25.1367 56.2941 25.1859 56.6885 25.1396 57.0948C25.4354 57.0948 25.7312 57.0948 26.0269 57.0948C26.0886 57.5152 26.2365 57.9096 26.4706 58.2779C26.7291 57.9092 26.9755 57.9337 27.2101 58.3518C26.8643 58.5749 26.7164 58.8953 26.7664 59.3131C26.9143 59.3131 27.0622 59.3131 27.2101 59.3131C26.9109 61.06 27.6503 61.824 29.4284 61.6054C30.4645 60.5857 30.4153 59.649 29.2805 58.7955C28.9389 58.722 28.5939 58.6975 28.2453 58.7216C28.1125 58.6242 27.9646 58.5258 27.8016 58.4258C28.3351 58.2795 28.8774 58.2301 29.4284 58.2779C29.7112 57.9345 29.9083 57.5402 30.02 57.0948C31.9425 57.0948 33.8651 57.0948 35.7877 57.0948C35.7877 57.2919 35.7877 57.4892 35.7877 57.6863C35.5906 57.6863 35.3933 57.6863 35.1961 57.6863C35.1961 57.8835 35.1961 58.0808 35.1961 58.2779C35.5906 58.2779 35.9848 58.2779 36.3792 58.2779C36.3792 58.6723 36.3792 59.0666 36.3792 59.461C36.7737 59.461 37.1679 59.461 37.5624 59.461C37.5624 59.6581 37.5624 59.8554 37.5624 60.0526C38.1952 59.9036 38.6389 60.1008 38.8934 60.6441C38.0729 61.5721 38.1715 62.4348 39.1892 63.2322C40.5866 63.4123 41.2027 62.7962 41.0378 61.3836C40.8189 60.893 40.4492 60.5972 39.9286 60.4962C39.5973 60.3832 39.2523 60.2599 38.8934 60.1265C39.131 59.9714 39.2295 59.7495 39.1892 59.461C39.4357 59.461 39.6821 59.461 39.9286 59.461C39.9286 59.0666 39.9286 58.6723 39.9286 58.2779C40.323 58.2779 40.7173 58.2779 41.1117 58.2779C41.1117 58.475 41.1117 58.6723 41.1117 58.8694C41.5061 58.8694 41.9004 58.8694 42.2948 58.8694C42.2948 59.0666 42.2948 59.2639 42.2948 59.461C43.0835 59.461 43.8724 59.461 44.6611 59.461C44.6611 59.0666 44.6611 58.6723 44.6611 58.2779C45.0555 58.2779 45.4498 58.2779 45.8442 58.2779C45.8442 58.6723 45.8442 59.0666 45.8442 59.461C46.3404 59.4005 46.784 59.4992 47.1752 59.7568C47.0647 60.5801 47.4099 60.8512 48.2104 60.5702C48.457 60.1002 48.3583 59.7305 47.9147 59.461C47.9765 59.3542 48.075 59.2803 48.2104 59.2392C48.1429 59.1779 48.0935 59.104 48.0626 59.0173C48.1797 57.97 48.3768 56.9348 48.6541 55.9116C48.8526 56.1342 49.099 56.2329 49.3936 56.2074C49.4765 55.5607 49.23 55.117 48.6541 54.8764C50.1787 54.4583 51.7069 54.0639 53.2387 53.6933Z" fill="white"/>
<path fill-rule="evenodd" clip-rule="evenodd" d="M28.2454 58.7215C28.5939 58.6974 28.939 58.722 29.2806 58.7955C30.4154 59.649 30.4646 60.5857 29.4285 61.6054C27.6504 61.824 26.911 61.06 27.2101 59.3131C27.5311 59.0785 27.8762 58.8813 28.2454 58.7215Z" fill="#ECF3F5"/>
<path fill-rule="evenodd" clip-rule="evenodd" d="M47.9148 59.461C48.3585 59.7305 48.4571 60.1002 48.2106 60.5702C47.4101 60.8512 47.0649 60.5801 47.1754 59.7568C47.3706 59.5435 47.617 59.445 47.9148 59.461Z" fill="#ECF3F5"/>
<path fill-rule="evenodd" clip-rule="evenodd" d="M39.9287 60.4962C40.4493 60.5972 40.819 60.893 41.0379 61.3836C41.2028 62.7962 40.5866 63.4123 39.1892 63.2322C38.1716 62.4348 38.073 61.5721 38.8935 60.6441C39.2213 60.5156 39.5664 60.4663 39.9287 60.4962Z" fill="#ECF3F5"/>
</svg>
